SplineFontDB: 3.0
FontName: LinguaFranca-Bold
FullName: Lingua Franca Bold
FamilyName: Lingua Franca
Weight: Bold
Copyright: Copyright (c) 1989, 1991 Adobe Systems Incorporated. All Rights Reserved.\nUtopia (R)\nUtopia is either a registered trademark or trademark of Adobe Systems\nIncorporated in the United States and/or other countries. Used under license.\n\nFor details of the license, cf. http://tug.org/fonts/utopia/LICENSE-utopia.txt.\n\nCopyright (c) 2003-2004 the GUTenberg project for the Greek glyphs, which are\nlicensed under the Latex Public Project License (LPPL).\n\nCopyright (c) 2006 Han The Thanh, for the modifications released under the name\n"Vntopia".\n\nCopyright (c) 2008-2014 Andrey V. Panov, for the modifications released under\nthe name "Heuristica".\n\nCopyright (c) 2014 Michael Sharpe for the open-box glyphs, which are licensed\nunder the SIL Open Font License (OFL).\n\nCopyright (c) 2016 Andreas Nolda, for the modifications released under the\ncurrent name.\n\nThis Font Software is licensed under the SIL Open Font License (OFL),\nVersion 1.1; see http://scripts.sil.org/ofl.
Version: 1.12
ItalicAngle: 0
UnderlinePosition: -100
UnderlineWidth: 50
Ascent: 750
Descent: 250
LayerCount: 2
Layer: 0 0 "Back"  1
Layer: 1 0 "Fore"  0
XUID: [1021 113 1689094547 14968998]
FSType: 8
OS2Version: 4
OS2_WeightWidthSlopeOnly: 0
OS2_UseTypoMetrics: 1
CreationTime: 1164221255
ModificationTime: 1475917586
PfmFamily: 17
TTFWeight: 700
TTFWidth: 5
LineGap: 0
VLineGap: 0
Panose: 2 2 8 3 6 7 5 2 2 4
OS2TypoAscent: 750
OS2TypoAOffset: 0
OS2TypoDescent: -250
OS2TypoDOffset: 0
OS2TypoLinegap: 200
OS2WinAscent: 950
OS2WinAOffset: 0
OS2WinDescent: 250
OS2WinDOffset: 0
HheadAscent: 950
HheadAOffset: 0
HheadDescent: -250
HheadDOffset: 0
OS2SubXSize: 650
OS2SubYSize: 700
OS2SubXOff: 0
OS2SubYOff: 140
OS2SupXSize: 650
OS2SupYSize: 700
OS2SupXOff: 0
OS2SupYOff: 480
OS2StrikeYSize: 49
OS2StrikeYPos: 258
OS2Vendor: 'PfEd'
OS2CodePages: 00000017.00000000

StartChar: .notdef
Encoding: 0 -1 0
AltUni2: 000000.ffffffff.0
Width: 608
Flags: MW
HStem: 0 43<153 455 153 518> 649 43<153 153 153 454>
VStem: 90 43<93 93 93 600> 475 43<93 600 600 600>
LayerCount: 2
Fore
SplineSet
90 0 m 1
 90 692 l 1
 518 692 l 1
 518 0 l 1
 90 0 l 1
133 93 m 1
 280 346 l 1
 133 600 l 1
 133 93 l 1
153 43 m 1
 455 43 l 1
 304 304 l 1
 153 43 l 1
153 649 m 1
 304 389 l 1
 454 649 l 1
 153 649 l 1
328 346 m 1
 475 93 l 1
 475 600 l 1
 328 346 l 1
EndSplineSet
EndChar

StartChar: exclam
Encoding: 33 33 2
Width: 280
GlyphClass: 2
Flags: HMW
HStem: -12 186<112.5 167.5> 687 20G<97 183.5>
VStem: 47 186<53.5 108.5> 58 165<592 592>
LayerCount: 2
Fore
SplineSet
58 592 m 2xd0
 47 671 54 707 140 707 c 0
 227 707 234 671 223 592 c 2
 172 219 l 1
 108 219 l 1
 58 592 l 2xd0
47 81 m 0xa0
 47 136 85 174 140 174 c 0
 195 174 233 136 233 81 c 0
 233 26 195 -12 140 -12 c 0
 85 -12 47 26 47 81 c 0xa0
EndSplineSet
EndChar

StartChar: quotedbl
Encoding: 34 34 3
Width: 473
GlyphClass: 2
Flags: MW
HStem: 687 20G<109 171 301 363>
VStem: 71 139 263 139
LayerCount: 2
Fore
SplineSet
266 630 m 2
 256 682 270 707 332 707 c 0
 394 707 409 683 399 630 c 2
 355 407 l 1
 309 407 l 1
 266 630 l 2
74 630 m 2
 64 682 78 707 140 707 c 0
 202 707 217 683 207 630 c 2
 163 407 l 1
 117 407 l 1
 74 630 l 2
EndSplineSet
EndChar

StartChar: numbersign
Encoding: 35 35 4
Width: 560
GlyphClass: 2
Flags: MW
HStem: 0 21G<44 121 44 44 233 309 233 233> 219 72<14 131 14 110 14 187 208 299 395 494> 398 72<67 163 67 185 67 240 261 352 449 547> 648 20G<244 320 320 320 433 508 508 508>
VStem: 14 533<219 470 291 470>
LayerCount: 2
Fore
SplineSet
14 219 m 1
 14 291 l 1
 131 291 l 1
 163 398 l 1
 67 398 l 1
 67 470 l 1
 185 470 l 1
 244 668 l 1
 320 668 l 1
 261 470 l 1
 374 470 l 1
 433 668 l 1
 508 668 l 1
 449 470 l 1
 547 470 l 1
 547 398 l 1
 427 398 l 1
 395 291 l 1
 494 291 l 1
 494 219 l 1
 374 219 l 1
 309 0 l 1
 233 0 l 1
 299 219 l 1
 187 219 l 1
 121 0 l 1
 44 0 l 1
 110 219 l 1
 14 219 l 1
208 291 m 1
 320 291 l 1
 352 398 l 1
 240 398 l 1
 208 291 l 1
EndSplineSet
EndChar

StartChar: dollar
Encoding: 36 36 5
Width: 560
GlyphClass: 2
Flags: MW
HStem: 0 46<248 248 304 330.5> 622 46<248 248>
VStem: 39 122<506 541> 248 56<-104 0 -104 0 46 262 438 622 668 748> 395 129
LayerCount: 2
Fore
SplineSet
38 122 m 0
 38 165 84 194 110 194 c 0
 134 194 145 184 154 162 c 0
 191 69 228 50 248 46 c 1
 248 281 l 1
 196 300 l 1
 106 334 39 385 39 478 c 0
 39 604 133 664 248 668 c 1
 248 748 l 1
 304 748 l 1
 304 668 l 1
 436 665 496 600 496 558 c 0
 496 510 441 497 422 497 c 0
 400 497 391 506 384 524 c 0
 358 595 330 617 304 622 c 1
 304 416 l 1
 350 399 l 2
 456 359 523 307 524 197 c 1
 523 53 396 0 304 0 c 1
 304 -104 l 1
 248 -104 l 1
 248 0 l 1
 80 6 38 88 38 122 c 0
161 530 m 0
 161 482 199 451 248 438 c 1
 248 622 l 1
 197 619 161 580 161 530 c 0
304 46 m 1
 357 46 395 80 395 139 c 0
 395 200 358 241 304 262 c 1
 304 46 l 1
EndSplineSet
EndChar

StartChar: percent
Encoding: 37 37 6
Width: 887
GlyphClass: 2
Flags: MW
HStem: -12 21G<613.5 729.5> -12 40<651.5 691.5 651.5 729.5> 308 40<196.5 236 196.5 268> 320 40<653 690> 590 43<382 526 526 555 382 564 378 526> 640 40<197.5 235> 648 20G<682 682> 681 20G<635 635>
VStem: 40 114<442 550 442 555.5> 278 114<442 516.5 432.5 550> 495 114<122 230 122 235.5> 733 114<122 230>
LayerCount: 2
Fore
SplineSet
40 494 m 0x2bf0
 40 617 100 680 216 680 c 0x2df0
 273 680 303 666 337 646 c 0
 348 640 362 633 382 633 c 2
 526 633 l 2
 584 633 595 642 614 670 c 2
 635 701 l 1
 682 668 l 1
 252 -31 l 1
 205 6 l 1
 564 590 l 1
 378 590 l 1
 385 567 392 539 392 494 c 0
 392 371 326 308 210 308 c 0
 100 308 40 371 40 494 c 0x2bf0
154 494 m 0
 154 390 177 348 216 348 c 0
 256 348 278 390 278 494 c 0
 278 606 254 640 216 640 c 0
 179 640 154 606 154 494 c 0
495 174 m 0x5030
 495 297 555 360 672 360 c 0
 787 360 847 297 847 174 c 0
 847 51 787 -12 672 -12 c 0
 555 -12 495 51 495 174 c 0x5030
609 174 m 0
 609 70 631 28 672 28 c 0
 711 28 733 70 733 174 c 0
 733 286 708 320 672 320 c 0
 634 320 609 286 609 174 c 0
EndSplineSet
EndChar

StartChar: ampersand
Encoding: 38 38 7
Width: 748
GlyphClass: 2
Flags: MW
HStem: -12 74<304.5 317> -7 31<730 734> 634 46<296.5 328.5>
VStem: 45 146<172 233.5> 129 124<523.5 552.5> 373 119<512 571> 560 142
LayerCount: 2
Fore
SplineSet
45 186 m 0xb6
 45 281 129 333 186 359 c 1
 155 400 129 451 129 500 c 0
 129 605 203 680 318 680 c 0
 417 680 492 622 492 531 c 0
 492 446 424 404 358 373 c 1
 402 322 467 254 536 187 c 1
 585 248 573 340 560 400 c 1
 589 430 641 446 671 443 c 1
 695 420 702 387 702 355 c 0
 702 285 629 194 580 150 c 1
 634 97 698 40 734 24 c 1
 730 -7 l 1x6e
 684 -6 l 1
 602 -3 548 14 489 57 c 1
 428 13 360 -12 274 -12 c 0
 151 -12 45 56 45 186 c 0xb6
191 218 m 0xb6
 191 126 262 62 347 62 c 0
 386 62 426 73 444 91 c 1
 351 166 267 257 223 310 c 1
 208 297 191 263 191 218 c 0xb6
253 549 m 0x2e
 253 498 278 454 317 414 c 1
 348 438 373 482 373 542 c 0
 373 600 344 634 313 634 c 0
 280 634 253 600 253 549 c 0x2e
EndSplineSet
EndChar

StartChar: quotesingle
Encoding: 39 39 8
Width: 252
GlyphClass: 2
Flags: MW
HStem: 687 20G<95 157>
VStem: 57 139
LayerCount: 2
Fore
SplineSet
60 630 m 2
 50 682 64 707 126 707 c 0
 188 707 203 683 193 630 c 2
 149 407 l 1
 103 407 l 1
 60 630 l 2
EndSplineSet
EndChar

StartChar: parenleft
Encoding: 40 40 9
Width: 365
GlyphClass: 2
Flags: MW
HStem: -135 34<339 344> 665 34<339 344>
VStem: 99 101<220.5 343.5 220.5 361.5>
LayerCount: 2
Fore
SplineSet
99 282 m 0
 99 441 132 694 339 699 c 1
 344 665 l 1
 228 630 200 405 200 282 c 0
 200 159 228 -66 344 -101 c 1
 339 -135 l 1
 132 -130 99 123 99 282 c 0
EndSplineSet
EndChar

StartChar: parenright
Encoding: 41 41 10
Width: 365
GlyphClass: 2
Flags: MW
HStem: 665 34<21 26>
VStem: 165 101<220.5 343.5>
LayerCount: 2
Fore
SplineSet
21 -101 m 1
 137 -68 165 159 165 282 c 0
 165 405 137 632 21 665 c 1
 26 699 l 1
 233 694 266 441 266 282 c 0
 266 123 233 -130 26 -135 c 1
 21 -101 l 1
EndSplineSet
EndChar

StartChar: asterisk
Encoding: 42 42 11
Width: 442
GlyphClass: 2
Flags: MW
HStem: 687 20G<205 237>
LayerCount: 2
Fore
SplineSet
51 408 m 0
 33 435 39 463 69 473 c 2
 167 503 l 2
 179 506 180 520 166 525 c 2
 69 558 l 2
 39 568 30 590 52 622 c 0
 68 646 90 651 110 633 c 2
 180 568 l 2
 194 556 203 565 198 582 c 2
 177 665 l 2
 170 692 189 707 221 707 c 0
 253 707 272 692 265 665 c 2
 244 582 l 2
 240 565 249 556 262 568 c 2
 332 633 l 1
 353 651 374 646 390 622 c 0
 412 590 404 568 373 558 c 2
 277 525 l 2
 262 520 265 506 276 503 c 2
 373 473 l 2
 404 463 409 435 391 408 c 0
 370 376 348 374 324 399 c 2
 262 462 l 2
 251 474 240 463 244 449 c 2
 266 364 l 2
 273 337 260 315 221 315 c 0
 182 315 169 337 176 364 c 2
 199 449 l 2
 203 463 192 473 181 462 c 2
 119 399 l 2
 95 374 72 376 51 408 c 0
EndSplineSet
EndChar

StartChar: plus
Encoding: 43 43 12
Width: 600
GlyphClass: 2
Flags: MW
HStem: 0 21G<252 348 252 252> 210 80<58 252 58 252 348 542> 470 20G<252 348 348 348>
VStem: 252 96<0 210 0 210 290 490>
LayerCount: 2
Fore
SplineSet
58 210 m 1
 58 290 l 1
 252 290 l 1
 252 490 l 1
 348 490 l 1
 348 290 l 1
 542 290 l 1
 542 210 l 1
 348 210 l 1
 348 0 l 1
 252 0 l 1
 252 210 l 1
 58 210 l 1
EndSplineSet
EndChar

StartChar: comma
Encoding: 44 44 13
Width: 280
GlyphClass: 2
Flags: MW
HStem: -167 347<70 160>
VStem: 100 126<-32 101>
LayerCount: 2
Fore
SplineSet
40 -138 m 1
 75 -99 100 -56 100 -8 c 0
 100 40 60 61 60 107 c 0
 60 144 85 180 134 180 c 0
 186 180 226 137 226 65 c 0
 226 -27 137 -113 70 -167 c 1
 40 -138 l 1
EndSplineSet
EndChar

StartChar: hyphen
Encoding: 45 45 14
Width: 392
GlyphClass: 2
Flags: MW
HStem: 203 95<65 328 65 328>
VStem: 65 263<203 298 203 298>
LayerCount: 2
Fore
SplineSet
65 203 m 1
 65 298 l 1
 328 298 l 1
 328 203 l 1
 65 203 l 1
EndSplineSet
EndChar

StartChar: period
Encoding: 46 46 15
Width: 280
GlyphClass: 2
Flags: MW
HStem: -12 186<112.5 167.5>
VStem: 47 186<53.5 108.5>
LayerCount: 2
Fore
SplineSet
47 81 m 0
 47 136 85 174 140 174 c 0
 195 174 233 136 233 81 c 0
 233 26 195 -12 140 -12 c 0
 85 -12 47 26 47 81 c 0
EndSplineSet
EndChar

StartChar: slash
Encoding: 47 47 16
Width: 378
GlyphClass: 2
Flags: MW
HStem: -15 21G<34 34 34 134> 687 20G<244 344 344 344>
VStem: 34 310
LayerCount: 2
Fore
SplineSet
34 -15 m 1
 244 707 l 1
 344 707 l 1
 134 -15 l 1
 34 -15 l 1
EndSplineSet
Substitution2: "'ss01' Style Set 1 lookup 8 subtable" slash.alt
EndChar

StartChar: zero
Encoding: 48 48 17
Width: 560
GlyphClass: 2
Flags: MW
HStem: -12 46<239 321 239 373.5> 634 46<239 321>
VStem: 31 158<277 391 277 425.5> 371 158<277 391>
LayerCount: 2
Fore
SplineSet
31 334 m 0
 31 517 93 680 280 680 c 0
 467 680 529 517 529 334 c 0
 529 151 467 -12 280 -12 c 0
 93 -12 31 151 31 334 c 0
189 334 m 0
 189 220 198 34 280 34 c 0
 362 34 371 220 371 334 c 0
 371 448 362 634 280 634 c 0
 198 634 189 448 189 334 c 0
EndSplineSet
Substitution2: "'pnum' Proportional Numbers lookup 5 subtable" zero.pnum
Substitution2: "'onum' Oldstyle Figures lookup 4 subtable" zero.oldstyle
Substitution2: "'sups' Superscript lookup 3 subtable" zerosuperior
EndChar

StartChar: one
Encoding: 49 49 18
Width: 560
GlyphClass: 2
Flags: MW
HStem: 0 38<102 102 102 459> 610 31<108 108> 660 20G<347 347>
VStem: 205 151<85 547 547 565>
LayerCount: 2
Fore
SplineSet
102 0 m 1
 102 38 l 1
 170 44 l 2
 194 46 205 53 205 85 c 2
 205 547 l 2
 205 583 196 592 170 597 c 2
 108 610 l 1
 108 641 l 1
 347 680 l 1
 356 672 l 1
 356 85 l 2
 356 53 367 46 391 44 c 2
 459 38 l 1
 459 0 l 1
 102 0 l 1
EndSplineSet
Substitution2: "'pnum' Proportional Numbers lookup 5 subtable" one.pnum
Substitution2: "'onum' Oldstyle Figures lookup 4 subtable" one.oldstyle
Substitution2: "'sups' Superscript lookup 3 subtable" onesuperior
EndChar

StartChar: two
Encoding: 50 50 19
Width: 560
GlyphClass: 2
Flags: MW
HStem: 0 121<165 420 420 441 165 499> 634 46<249.5 299.5>
VStem: 348 159<483 550.5>
LayerCount: 2
Fore
SplineSet
30 18 m 1
 32 85 81 168 221 283 c 0
 332 375 348 450 348 516 c 0
 348 585 325 634 274 634 c 0
 225 634 194 581 177 502 c 0
 171 475 154 464 133 464 c 0
 99 464 48 486 48 529 c 0
 48 616 150 680 281 680 c 0
 409 680 507 628 507 490 c 0
 507 386 441 333 325 271 c 0
 214 212 181 156 165 121 c 1
 420 121 l 2
 462 121 475 128 504 180 c 1
 539 175 l 1
 499 0 l 1
 44 0 l 1
 30 18 l 1
EndSplineSet
Substitution2: "'pnum' Proportional Numbers lookup 5 subtable" two.pnum
Substitution2: "'onum' Oldstyle Figures lookup 4 subtable" two.oldstyle
Substitution2: "'sups' Superscript lookup 3 subtable" twosuperior
EndChar

StartChar: three
Encoding: 51 51 20
Width: 560
GlyphClass: 2
Flags: MW
HStem: -12 46<241.5 294.5 241.5 341> 317 82<150.5 172> 331 54<238 282> 634 46<241 295.5>
VStem: 27 128 49 120 336 155<499 537.5> 357 162<136 247.5>
LayerCount: 2
Fore
SplineSet
27 119 m 0xb9
 27 165 75 192 111 192 c 0
 134 192 149 176 155 158 c 0
 183 67 219 34 264 34 c 0
 325 34 357 86 357 186 c 0
 357 309 307 331 257 331 c 0xb9
 217 331 183 317 161 317 c 0
 140 317 132 335 132 358 c 0
 132 382 140 399 161 399 c 0xd9
 183 399 219 385 257 385 c 0
 330 385 336 481 336 517 c 0
 336 558 326 634 265 634 c 0
 217 634 191 593 169 519 c 0
 162 497 149 484 127 484 c 0
 103 484 49 502 49 547 c 0
 49 622 148 680 265 680 c 0
 368 680 491 648 491 510 c 0xb6
 491 412 405 380 352 366 c 1
 352 362 l 1
 390 356 519 327 519 184 c 0
 519 57 422 -12 260 -12 c 0
 78 -12 27 81 27 119 c 0xb9
EndSplineSet
Substitution2: "'pnum' Proportional Numbers lookup 5 subtable" three.pnum
Substitution2: "'onum' Oldstyle Figures lookup 4 subtable" three.oldstyle
Substitution2: "'sups' Superscript lookup 3 subtable" threesuperior
EndChar

StartChar: four
Encoding: 52 52 21
Width: 560
GlyphClass: 2
Flags: MW
HStem: 0 40 173 69<123 292 123 292 433 533> 648 20G<313 433 433 433>
VStem: 292 141<75 173 63.5 173 242 539 539 539>
LayerCount: 2
Fore
SplineSet
19 203 m 1
 108 355 206 512 313 668 c 1
 433 668 l 1
 433 242 l 1
 533 242 l 1
 533 173 l 1
 433 173 l 1
 433 75 l 2
 433 52 443 44 459 42 c 2
 506 38 l 1
 506 0 l 1
 199 0 l 1
 199 38 l 1
 266 43 l 2
 281 44 292 52 292 75 c 2
 292 173 l 1
 38 173 l 1
 19 203 l 1
123 242 m 1
 292 242 l 1
 292 539 l 1
 290 539 l 1
 227 435 170 335 123 242 c 1
EndSplineSet
Substitution2: "'pnum' Proportional Numbers lookup 5 subtable" four.pnum
Substitution2: "'onum' Oldstyle Figures lookup 4 subtable" four.oldstyle
Substitution2: "'sups' Superscript lookup 3 subtable" foursuperior
EndChar

StartChar: five
Encoding: 53 53 22
Width: 560
GlyphClass: 2
Flags: MW
HStem: -12 46<249 302 249 360.5> 366 65<263 276.5> 547 121<176.5 190 190 456>
VStem: 43 125 360 159<154 258>
LayerCount: 2
Fore
SplineSet
43 119 m 0
 43 163 87 192 119 192 c 0
 147 192 161 176 168 154 c 0
 197 66 227 34 271 34 c 0
 333 34 360 99 360 200 c 0
 360 316 311 366 242 366 c 0
 194 366 154 346 115 298 c 1
 74 328 l 1
 94 659 l 1
 102 668 l 1
 485 668 l 1
 495 654 l 1
 456 547 l 1
 190 547 l 2
 163 547 160 542 155 508 c 2
 136 374 l 1
 175 401 229 431 297 431 c 0
 476 431 519 305 519 215 c 0
 519 93 454 -12 267 -12 c 0
 90 -12 43 84 43 119 c 0
EndSplineSet
Substitution2: "'pnum' Proportional Numbers lookup 5 subtable" five.pnum
Substitution2: "'onum' Oldstyle Figures lookup 4 subtable" five.oldstyle
Substitution2: "'sups' Superscript lookup 3 subtable" fivesuperior
EndChar

StartChar: six
Encoding: 54 54 23
Width: 560
GlyphClass: 2
Flags: MW
HStem: -12 46<252 322.5 252 375> 348 82<307 309> 634 46<251 317>
VStem: 30 154<225 263.5 180 363> 383 154<160 250>
LayerCount: 2
Fore
SplineSet
30 326 m 0
 30 400 42 481 76 548 c 1
 118 628 193 680 309 680 c 0
 441 680 502 608 502 557 c 0
 502 516 453 497 427 497 c 0
 404 497 388 511 383 528 c 0
 365 594 338 634 296 634 c 0
 198 634 187 438 185 348 c 1
 187 348 l 1
 226 394 274 430 340 430 c 0
 444 430 537 361 537 220 c 0
 537 100 465 -12 285 -12 c 0
 97 -12 30 124 30 326 c 0
184 234 m 0
 184 126 216 34 288 34 c 0
 357 34 383 104 383 194 c 0
 383 306 337 348 281 348 c 0
 219 348 184 293 184 234 c 0
EndSplineSet
Substitution2: "'pnum' Proportional Numbers lookup 5 subtable" six.pnum
Substitution2: "'onum' Oldstyle Figures lookup 4 subtable" six.oldstyle
Substitution2: "'sups' Superscript lookup 3 subtable" sixsuperior
EndChar

StartChar: seven
Encoding: 55 55 24
Width: 560
GlyphClass: 2
Flags: MW
HStem: -12 21G<216 254.5> 489 21G<69 69> 547 121<124.5 146 146 408>
VStem: 153 160
LayerCount: 2
Fore
SplineSet
34 499 m 1
 77 668 l 1
 517 668 l 1
 530 656 l 1
 514 559 475 492 380 353 c 0
 333 285 316 174 313 51 c 0
 312 -4 272 -12 237 -12 c 0
 195 -12 153 -4 153 54 c 0
 153 138 211 241 293 340 c 0
 374 438 398 514 408 547 c 1
 146 547 l 2
 103 547 91 531 79 508 c 2
 69 489 l 1
 34 499 l 1
EndSplineSet
Substitution2: "'pnum' Proportional Numbers lookup 5 subtable" seven.pnum
Substitution2: "'onum' Oldstyle Figures lookup 4 subtable" seven.oldstyle
Substitution2: "'sups' Superscript lookup 3 subtable" sevensuperior
EndChar

StartChar: eight
Encoding: 56 56 25
Width: 560
GlyphClass: 2
Flags: MW
HStem: -12 46<248.5 311.5 248.5 346.5> 332 48<255.5 306 255.5 311> 634 46<255 306.5>
VStem: 27 158<141.5 227 141.5 234> 52 148<470 542.5 470 558> 360 148<470 542.5> 375 158<141.5 227>
LayerCount: 2
Fore
SplineSet
27 189 m 0xf2
 27 279 79 337 159 362 c 1
 159 364 l 1
 98 382 52 426 52 501 c 0
 52 615 140 680 280 680 c 0
 422 680 508 618 508 501 c 0xec
 508 426 462 382 401 363 c 1
 401 361 l 1
 482 337 533 279 533 189 c 0
 533 39 413 -12 280 -12 c 0
 148 -12 27 40 27 189 c 0xf2
185 186 m 0xf2
 185 97 217 34 280 34 c 0
 343 34 375 97 375 186 c 0
 375 268 342 332 280 332 c 0
 218 332 185 268 185 186 c 0xf2
200 506 m 0xec
 200 434 231 380 280 380 c 0
 332 380 360 434 360 506 c 0
 360 579 333 634 280 634 c 0
 230 634 200 579 200 506 c 0xec
EndSplineSet
Substitution2: "'pnum' Proportional Numbers lookup 5 subtable" eight.pnum
Substitution2: "'onum' Oldstyle Figures lookup 4 subtable" eight.oldstyle
Substitution2: "'sups' Superscript lookup 3 subtable" eightsuperior
EndChar

StartChar: nine
Encoding: 57 57 26
Width: 560
GlyphClass: 2
Flags: MW
HStem: -12 48<243.5 288 243.5 291.5> 255 76<257.5 264> 634 46<250 308.5>
VStem: 34 154<435.5 517> 369 154<317 317>
LayerCount: 2
Fore
SplineSet
34 454 m 0
 34 580 119 680 272 680 c 0
 368 680 430 647 469 591 c 0
 507 535 523 454 523 352 c 0
 523 209 493 113 444 59 c 0
 398 8 331 -12 252 -12 c 0
 102 -12 50 70 50 107 c 0
 50 149 95 176 124 176 c 0
 148 176 163 165 170 144 c 0
 199 58 225 36 262 36 c 0
 314 36 364 79 369 317 c 1
 367 317 l 1
 338 287 292 255 236 255 c 0
 129 255 34 319 34 454 c 0
188 478 m 0
 188 393 225 331 290 331 c 0
 322 331 347 351 358 369 c 0
 368 385 370 405 370 433 c 0
 370 551 338 634 279 634 c 0
 221 634 188 573 188 478 c 0
EndSplineSet
Substitution2: "'pnum' Proportional Numbers lookup 5 subtable" nine.pnum
Substitution2: "'onum' Oldstyle Figures lookup 4 subtable" nine.oldstyle
Substitution2: "'sups' Superscript lookup 3 subtable" ninesuperior
EndChar

StartChar: colon
Encoding: 58 58 27
Width: 280
GlyphClass: 2
Flags: MW
HStem: -12 186<112.5 167.5> 304 186<112.5 167.5>
VStem: 47 186<53.5 108.5 369.5 424.5>
LayerCount: 2
Fore
SplineSet
47 81 m 0
 47 136 85 174 140 174 c 0
 195 174 233 136 233 81 c 0
 233 26 195 -12 140 -12 c 0
 85 -12 47 26 47 81 c 0
47 397 m 0
 47 452 85 490 140 490 c 0
 195 490 233 452 233 397 c 0
 233 342 195 304 140 304 c 0
 85 304 47 342 47 397 c 0
EndSplineSet
EndChar

StartChar: semicolon
Encoding: 59 59 28
Width: 280
GlyphClass: 2
Flags: MW
HStem: -167 347<70 160> 304 186<112.5 167.5>
VStem: 47 186<369.5 424.5> 100 126<-32 101>
LayerCount: 2
Fore
SplineSet
47 397 m 0x60
 47 452 85 490 140 490 c 0
 195 490 233 452 233 397 c 0
 233 342 195 304 140 304 c 0
 85 304 47 342 47 397 c 0x60
40 -138 m 1x90
 75 -99 100 -56 100 -8 c 0
 100 40 60 61 60 107 c 0
 60 144 85 180 134 180 c 0
 186 180 226 137 226 65 c 0
 226 -27 137 -113 70 -167 c 1
 40 -138 l 1x90
EndSplineSet
EndChar

StartChar: less
Encoding: 60 60 29
Width: 600
GlyphClass: 2
Flags: MW
HStem: 473 20G<539 539>
VStem: 61 478<5 289 5 289>
LayerCount: 2
Fore
SplineSet
61 206 m 1
 61 289 l 1
 539 493 l 1
 539 402 l 1
 158 248 l 1
 539 95 l 1
 539 5 l 1
 61 206 l 1
EndSplineSet
EndChar

StartChar: equal
Encoding: 61 61 30
Width: 600
GlyphClass: 2
Flags: MW
HStem: 103 80<58 542 58 542> 317 80<58 542 58 542>
VStem: 58 484<103 183 103 183 317 397 103 397>
LayerCount: 2
Fore
SplineSet
58 103 m 1
 58 183 l 1
 542 183 l 1
 542 103 l 1
 58 103 l 1
58 317 m 1
 58 397 l 1
 542 397 l 1
 542 317 l 1
 58 317 l 1
EndSplineSet
EndChar

StartChar: greater
Encoding: 62 62 31
Width: 600
GlyphClass: 2
Flags: MW
HStem: 473 20G<61 61>
VStem: 61 478<5 289 95 289 206 493 206 493>
LayerCount: 2
Fore
SplineSet
61 5 m 1
 61 95 l 1
 442 248 l 1
 61 402 l 1
 61 493 l 1
 539 289 l 1
 539 206 l 1
 61 5 l 1
EndSplineSet
EndChar

StartChar: question
Encoding: 63 63 32
Width: 456
GlyphClass: 2
Flags: MW
HStem: -12 186<196.5 251.5> 224 70<188 327.5> 273 27<364 375> 661 46<212 238>
VStem: 20 139 86 168<332 344.5> 131 186<53.5 108.5> 266 167<556.5 606.5>
LayerCount: 2
Fore
SplineSet
20 582 m 0xd9
 20 632 88 707 229 707 c 0
 346 707 433 659 433 559 c 0
 433 488 370 457 328 435 c 0
 278 409 254 377 254 347 c 0xd5
 254 317 278 294 317 294 c 0xd2
 338 294 353 297 364 300 c 1
 375 273 l 1xb2
 335 246 281 224 224 224 c 0
 152 224 86 258 86 330 c 0xd4
 86 359 101 394 172 437 c 0
 237 477 266 529 266 584 c 0
 266 629 251 661 225 661 c 0
 199 661 179 634 159 551 c 0
 153 526 137 514 105 514 c 0
 72 514 20 537 20 582 c 0xd9
131 81 m 0x82
 131 136 169 174 224 174 c 0
 279 174 317 136 317 81 c 0
 317 26 279 -12 224 -12 c 0
 169 -12 131 26 131 81 c 0x82
EndSplineSet
EndChar

StartChar: at
Encoding: 64 64 33
Width: 833
GlyphClass: 2
Flags: MW
HStem: -15 54<323.5 444.5> 161 52<278 388 592.5 643.5> 506 38<456 500 390.5 504> 647 60<376.5 534.5>
VStem: 45 109<252.5 397 252.5 432> 224 122<238.5 285.5 238.5 289> 476 103 722 75<375.5 487.5>
LayerCount: 2
Fore
SplineSet
45 307 m 0
 45 557 248 707 472 707 c 0
 673 707 797 574 797 414 c 0
 797 302 723 161 564 161 c 0
 478 161 468 211 479 255 c 1
 491 309 l 1
 488 311 l 1
 442 214 384 161 304 161 c 0
 252 161 224 199 224 251 c 0
 224 327 290 544 491 544 c 0
 509 544 526 540 538 534 c 1
 541 540 l 1
 651 540 l 1
 625 446 600 353 579 259 c 0
 574 237 575 213 610 213 c 0
 681 213 722 342 722 409 c 0
 722 566 605 647 464 647 c 0
 289 647 154 487 154 307 c 0
 154 198 217 39 430 39 c 0
 499 39 565 54 612 74 c 1
 623 39 l 1
 570 1 474 -15 415 -15 c 0
 215 -15 45 87 45 307 c 0
346 253 m 0
 346 224 355 213 369 213 c 0
 407 213 471 336 492 400 c 1
 528 498 l 1
 520 504 509 506 499 506 c 0
 413 506 346 318 346 253 c 0
EndSplineSet
EndChar

StartChar: A
Encoding: 65 65 34
Width: 644
GlyphClass: 2
Flags: MW
HStem: 0 38<-28 -28 -28 206> 246 48<192 354 192 370 176 354> 672 20G<262 388 388 388>
AnchorPoint: "Anchor-3" 325 707 basechar 0
AnchorPoint: "Anchor-2" 318 0 basechar 0
AnchorPoint: "Anchor-1" 508 0 basechar 0
LayerCount: 2
Fore
SplineSet
-28 0 m 1
 -28 38 l 1
 26 41 37 48 53 90 c 0
 77 151 110 252 146 355 c 2
 262 692 l 1
 388 692 l 1
 585 86 l 2
 598 45 611 39 663 38 c 1
 663 0 l 1
 347 0 l 1
 347 38 l 1
 405 44 l 2
 426 46 429 59 422 80 c 2
 370 246 l 1
 176 246 l 1
 158 187 140 133 128 79 c 0
 123 57 124 45 146 43 c 2
 206 38 l 1
 206 0 l 1
 -28 0 l 1
192 294 m 1
 354 294 l 1
 276 553 l 1
 273 553 l 1
 192 294 l 1
EndSplineSet
EndChar

StartChar: B
Encoding: 66 66 35
Width: 683
GlyphClass: 2
Flags: MW
HStem: 0 38<33 33 33 363> 0 46<319 363> 343 46<272 321 321 323 272 321> 646 46<310 363 363 375> 654 38<33 363>
VStem: 112 160<97 111 111 343 389 595 595 609> 456 162<485 555.5> 470 175<162 230 162 371 162 369>
AnchorPoint: "Anchor-3" 325 707 basechar 0
AnchorPoint: "Anchor-2" 325 0 basechar 0
LayerCount: 2
Fore
SplineSet
33 0 m 1xa5
 33 38 l 1
 104 41 112 46 112 97 c 2
 112 595 l 2
 112 646 104 651 33 654 c 1
 33 692 l 1xad
 363 692 l 2
 521 692 618 648 618 526 c 0x36
 618 444 568 392 470 371 c 1
 470 369 l 1
 563 355 645 300 645 189 c 0
 645 135 629 87 588 54 c 0
 546 20 477 0 363 0 c 2x75
 33 0 l 1xa5
272 111 m 2
 272 62 294 46 344 46 c 0x65
 414 46 470 81 470 188 c 0
 470 272 423 343 323 343 c 2
 272 343 l 1
 272 111 l 2
272 389 m 1
 321 389 l 2
 417 389 456 444 456 518 c 0
 456 593 420 646 330 646 c 0x36
 290 646 272 643 272 609 c 2
 272 389 l 1
EndSplineSet
EndChar

StartChar: C
Encoding: 67 67 36
Width: 689
GlyphClass: 2
Flags: MW
HStem: -15 46<333 443> 661 46<352.5 448 352.5 478>
VStem: 42 177<298.5 389> 600 38<484 663>
AnchorPoint: "Anchor-3" 423 707 basechar 0
AnchorPoint: "Anchor-2" 408 0 basechar 0
LayerCount: 2
Fore
SplineSet
42 339 m 0
 42 439 67 534 128 602 c 0
 187 668 282 707 423 707 c 0
 473 707 578 699 638 663 c 1
 638 484 l 1
 600 484 l 1
 577 556 542 661 414 661 c 0
 233 661 219 428 219 355 c 0
 219 242 244 31 422 31 c 0
 535 31 578 118 616 228 c 1
 654 228 l 1
 642 33 l 1
 582 -3 478 -15 408 -15 c 0
 151 -15 42 125 42 339 c 0
EndSplineSet
EndChar

StartChar: D
Encoding: 68 68 37
Width: 777
GlyphClass: 2
Flags: MW
HStem: 0 38<33 33 33 332> 0 46<320.5 332> 646 46<323.5 376 33 422> 654 38<33 376>
VStem: 112 160<97 595 595 618> 558 177<221 409 187 449.5>
AnchorPoint: "Anchor-3" 370 707 basechar 0
AnchorPoint: "Anchor-2" 370 0 basechar 0
LayerCount: 2
Fore
SplineSet
33 0 m 1x8c
 33 38 l 1
 104 41 112 46 112 97 c 2
 112 595 l 2
 112 646 104 651 33 654 c 1
 33 692 l 1x9c
 376 692 l 1
 506 691 590 663 648 606 c 0
 706 549 735 465 735 353 c 0
 735 21 488 0 332 0 c 2x6c
 33 0 l 1x8c
272 90 m 2
 272 58 289 46 352 46 c 0
 450 46 558 89 558 353 c 0
 558 546 489 646 355 646 c 0x6c
 292 646 272 641 272 618 c 2
 272 90 l 2
EndSplineSet
EndChar

StartChar: E
Encoding: 69 69 38
Width: 629
GlyphClass: 2
Flags: MW
HStem: 0 38<33 33 33 592> 0 46<349 454 349 592> 337 52<272 367 272 367> 646 46<293 307 307 382> 654 38<33 572>
VStem: 112 160<97 119 119 337 389 595 595 610> 459 38<247 479 247 479> 534 38<507 692> 566 38<208 208>
AnchorPoint: "Anchor-3" 318 707 basechar 0
AnchorPoint: "Anchor-2" 318 0 basechar 0
AnchorPoint: "Anchor-1" 318 0 basechar 0
LayerCount: 2
Fore
SplineSet
33 0 m 1xa680
 33 38 l 1
 104 41 112 46 112 97 c 2
 112 595 l 2
 112 646 104 651 33 654 c 1
 33 692 l 1
 572 692 l 1xaf
 572 507 l 1
 534 507 l 1
 503 606 485 646 382 646 c 2
 307 646 l 2
 279 646 272 639 272 610 c 2
 272 389 l 1
 367 389 l 2
 430 389 443 406 459 479 c 1
 497 479 l 1
 497 247 l 1
 459 247 l 1
 443 320 430 337 367 337 c 2
 272 337 l 1
 272 119 l 2
 272 55 303 46 395 46 c 0x77
 513 46 530 101 566 208 c 1
 604 208 l 1
 592 0 l 1
 33 0 l 1xa680
EndSplineSet
EndChar

StartChar: F
Encoding: 70 70 39
Width: 593
GlyphClass: 2
Flags: MW
HStem: 0 38<37 37 37 372> 318 52<276 390 276 390> 646 46<297 311 311 378> 654 38<37 568>
VStem: 116 160<97 318 370 595 595 610> 482 38<228 460 228 460> 530 38<507 692>
AnchorPoint: "Anchor-3" 302 707 basechar 0
AnchorPoint: "Anchor-2" 302 0 basechar 0
LayerCount: 2
Fore
SplineSet
37 0 m 1xee
 37 38 l 1
 108 41 116 46 116 97 c 2
 116 595 l 2
 116 646 108 651 37 654 c 1
 37 692 l 1
 568 692 l 1xde
 568 507 l 1
 530 507 l 1
 499 604 481 646 378 646 c 2
 311 646 l 2
 283 646 276 639 276 610 c 2
 276 370 l 1
 390 370 l 2
 453 370 466 387 482 460 c 1
 520 460 l 1
 520 228 l 1
 482 228 l 1
 466 301 453 318 390 318 c 2
 276 318 l 1
 276 97 l 2
 276 46 284 41 372 38 c 1
 372 0 l 1
 37 0 l 1xee
EndSplineSet
EndChar

StartChar: G
Encoding: 71 71 40
Width: 726
GlyphClass: 2
Flags: MW
HStem: -15 46<377 444.5 319.5 448> 276 38<407 709 407 709> 661 46<331.5 453.5 254 474.5>
VStem: 42 177<317.5 405 317.5 410> 493 160<76 217 217 219 33 241.5> 605 38<481 663>
AnchorPoint: "Anchor-3" 414 707 basechar 0
AnchorPoint: "Anchor-2" 410 0 basechar 0
LayerCount: 2
Fore
SplineSet
42 341 m 0xf8
 42 479 94 707 414 707 c 0
 493 707 580 697 643 663 c 1
 643 481 l 1
 605 481 l 1xf4
 577 567 530 661 419 661 c 0
 244 661 219 456 219 354 c 0
 219 281 229 31 410 31 c 0
 479 31 493 41 493 76 c 2
 493 217 l 2
 493 266 485 271 407 276 c 1
 407 314 l 1
 709 314 l 1
 709 276 l 1
 661 271 653 266 653 219 c 2
 653 33 l 1
 583 2 486 -15 410 -15 c 0
 344 -15 250 -9 177 40 c 0
 101 91 42 183 42 341 c 0xf8
EndSplineSet
EndChar

StartChar: H
Encoding: 72 72 41
Width: 807
GlyphClass: 2
Flags: MW
HStem: 0 38<33 33 33 351> 341 48<272 535 272 535> 654 38<33 351 33 351>
VStem: 112 160<97 341 389 595> 535 160<97 341 341 341 389 595>
AnchorPoint: "Anchor-3" 404 707 basechar 0
AnchorPoint: "Anchor-2" 404 0 basechar 0
LayerCount: 2
Fore
SplineSet
33 0 m 1
 33 38 l 1
 104 41 112 46 112 97 c 2
 112 595 l 2
 112 646 104 651 33 654 c 1
 33 692 l 1
 351 692 l 1
 351 654 l 1
 280 651 272 646 272 595 c 2
 272 389 l 1
 535 389 l 1
 535 595 l 2
 535 646 527 651 456 654 c 1
 456 692 l 1
 774 692 l 1
 774 654 l 1
 703 651 695 646 695 595 c 2
 695 97 l 2
 695 46 703 41 774 38 c 1
 774 0 l 1
 456 0 l 1
 456 38 l 1
 527 41 535 46 535 97 c 2
 535 341 l 1
 272 341 l 1
 272 97 l 2
 272 46 280 41 351 38 c 1
 351 0 l 1
 33 0 l 1
EndSplineSet
EndChar

StartChar: I
Encoding: 73 73 42
Width: 384
GlyphClass: 2
Flags: MW
HStem: 0 38<33 33 33 351> 654 38<33 351 33 351>
VStem: 112 160<97 595>
AnchorPoint: "Anchor-3" 192 707 basechar 0
AnchorPoint: "Anchor-2" 192 0 basechar 0
AnchorPoint: "Anchor-1" 192 0 basechar 0
LayerCount: 2
Fore
SplineSet
33 0 m 1
 33 38 l 1
 104 41 112 46 112 97 c 2
 112 595 l 2
 112 646 104 651 33 654 c 1
 33 692 l 1
 351 692 l 1
 351 654 l 1
 280 651 272 646 272 595 c 2
 272 97 l 2
 272 46 280 41 351 38 c 1
 351 0 l 1
 33 0 l 1
EndSplineSet
EndChar

StartChar: J
Encoding: 74 74 43
Width: 386
GlyphClass: 2
Flags: MW
HStem: 654 38<43 361 43 361>
VStem: 122 160<146 595>
AnchorPoint: "Anchor-3" 202 707 basechar 0
AnchorPoint: "Anchor-2" 184 0 basechar 0
LayerCount: 2
Fore
SplineSet
6 -83 m 1
 41 -72 62 -60 83 -36 c 0
 106 -10 122 50 122 146 c 2
 122 595 l 2
 122 646 114 651 43 654 c 1
 43 692 l 1
 361 692 l 1
 361 654 l 1
 290 651 282 646 282 595 c 2
 282 143 l 2
 282 30 255 -44 178 -81 c 0
 127 -105 68 -115 12 -114 c 1
 6 -83 l 1
EndSplineSet
EndChar

StartChar: K
Encoding: 75 75 44
Width: 707
GlyphClass: 2
Flags: MW
HStem: 0 38<33 33 33 351> 654 38<33 351 33 351>
VStem: 112 160<97 339 359 595>
AnchorPoint: "Anchor-3" 376 707 basechar 0
AnchorPoint: "Anchor-2" 376 0 basechar 0
LayerCount: 2
Fore
SplineSet
33 0 m 1
 33 38 l 1
 104 41 112 46 112 97 c 2
 112 595 l 2
 112 646 104 651 33 654 c 1
 33 692 l 1
 351 692 l 1
 351 654 l 1
 280 651 272 646 272 595 c 2
 272 359 l 1
 377 480 l 2
 428 538 467 589 493 622 c 0
 506 638 503 648 487 650 c 2
 445 656 l 1
 445 692 l 1
 717 692 l 1
 717 656 l 1
 656 651 637 641 602 615 c 0
 531 562 478 500 401 419 c 1
 456 327 552 189 637 92 c 0
 665 60 688 40 709 35 c 1
 719 32 l 1
 719 -6 l 1
 651 -4 l 2
 525 0 478 25 411 119 c 0
 362 189 326 241 274 339 c 1
 272 339 l 1
 272 97 l 2
 272 46 280 41 351 38 c 1
 351 0 l 1
 33 0 l 1
EndSplineSet
EndChar

StartChar: L
Encoding: 76 76 45
Width: 585
GlyphClass: 2
Flags: MW
HStem: 0 38<33 33 33 572> 0 46<341 440 341 572> 654 38<33 363 33 363>
VStem: 112 160<97 119 119 595> 546 38<201 201>
AnchorPoint: "Anchor-3" 308 707 basechar 0
AnchorPoint: "Anchor-2" 308 0 basechar 0
LayerCount: 2
Fore
SplineSet
33 0 m 1xb8
 33 38 l 1xb8
 104 41 112 46 112 97 c 2
 112 595 l 2
 112 646 104 651 33 654 c 1
 33 692 l 1
 363 692 l 1
 363 654 l 1
 280 651 272 646 272 595 c 2
 272 119 l 2
 272 55 299 46 383 46 c 0x78
 497 46 510 101 546 201 c 1
 584 201 l 1
 572 0 l 1
 33 0 l 1xb8
EndSplineSet
EndChar

StartChar: M
Encoding: 77 77 46
Width: 918
GlyphClass: 2
Flags: MW
HStem: 0 38<26 26 26 265> 654 38<23 287>
VStem: 102 62<252 593> 654 152<97 593 593 593>
AnchorPoint: "Anchor-3" 454 707 basechar 0
AnchorPoint: "Anchor-2" 454 0 basechar 0
LayerCount: 2
Fore
SplineSet
26 0 m 1
 26 38 l 1
 61 43 l 2
 84 46 94 61 97 96 c 0
 101 131 102 170 102 252 c 2
 102 595 l 2
 102 646 94 651 23 654 c 1
 23 692 l 1
 287 692 l 1
 300 649 323 590 340 545 c 2
 459 238 l 1
 462 238 l 1
 547 472 l 2
 574 546 608 644 625 692 c 1
 885 692 l 1
 885 654 l 1
 814 651 806 646 806 595 c 2
 806 97 l 2
 806 46 814 41 885 38 c 1
 885 0 l 1
 575 0 l 1
 575 38 l 1
 646 41 654 46 654 97 c 2
 654 593 l 1
 651 593 l 1
 442 18 l 1
 382 18 l 1
 167 593 l 1
 164 593 l 1
 164 252 l 2
 164 171 165 132 169 96 c 0
 172 61 183 45 211 43 c 2
 265 38 l 1
 265 0 l 1
 26 0 l 1
EndSplineSet
EndChar

StartChar: N
Encoding: 78 78 47
Width: 739
GlyphClass: 2
Flags: MW
HStem: 0 38<28 28 28 269> 654 38<25 262>
VStem: 104 62<252 558> 581 62<216 440 0 481>
AnchorPoint: "Anchor-3" 374 707 basechar 0
AnchorPoint: "Anchor-2" 374 0 basechar 0
LayerCount: 2
Fore
SplineSet
28 0 m 1
 28 38 l 1
 63 43 l 2
 86 46 96 61 99 96 c 0
 103 131 104 170 104 252 c 2
 104 595 l 2
 104 646 96 651 25 654 c 1
 25 692 l 1
 262 692 l 1
 365 533 471 375 577 216 c 1
 581 216 l 1
 581 440 l 2
 581 522 580 560 576 596 c 0
 573 631 562 647 534 649 c 2
 478 654 l 1
 478 692 l 1
 719 692 l 1
 719 654 l 1
 684 649 l 2
 661 646 651 631 648 596 c 0
 644 561 643 522 643 440 c 2
 643 0 l 1
 533 0 l 1
 414 186 293 372 170 558 c 1
 166 558 l 1
 166 252 l 2
 166 170 167 132 171 96 c 0
 174 61 185 45 213 43 c 2
 269 38 l 1
 269 0 l 1
 28 0 l 1
EndSplineSet
EndChar

StartChar: O
Encoding: 79 79 48
Width: 768
GlyphClass: 2
Flags: MW
HStem: -15 46<311.5 457.5 311.5 499> 661 46<310.5 457.5>
VStem: 42 177<285.5 406.5 285.5 459> 549 177<285.5 406.5>
AnchorPoint: "Anchor-3" 384 707 basechar 0
AnchorPoint: "Anchor-2" 384 0 basechar 0
AnchorPoint: "Anchor-1" 384 0 basechar 0
LayerCount: 2
Fore
SplineSet
42 346 m 0
 42 572 154 707 384 707 c 0
 614 707 726 572 726 346 c 0
 726 120 614 -15 384 -15 c 0
 154 -15 42 120 42 346 c 0
219 346 m 0
 219 225 239 31 384 31 c 0
 531 31 549 225 549 346 c 0
 549 467 531 661 384 661 c 0
 237 661 219 467 219 346 c 0
EndSplineSet
EndChar

StartChar: P
Encoding: 80 80 49
Width: 650
GlyphClass: 2
Flags: MW
HStem: 0 38<33 33 33 368> 275 46<308.5 332 272 378.5> 646 46<305.5 343 343 364.5> 654 38<33 343>
VStem: 112 160<97 275 345 364 364 595 595 609> 455 168<452 529 452 543.5>
AnchorPoint: "Anchor-3" 314 707 basechar 0
AnchorPoint: "Anchor-2" 314 0 basechar 0
LayerCount: 2
Fore
SplineSet
33 0 m 1xdc
 33 38 l 1
 104 41 112 46 112 97 c 2
 112 595 l 2
 112 646 104 651 33 654 c 1
 33 692 l 1xdc
 343 692 l 2xec
 424 692 489 684 538 654 c 0
 587 624 623 569 623 489 c 0
 623 415 596 361 546 325 c 0
 500 292 426 275 332 275 c 2
 272 275 l 1
 272 97 l 2
 272 46 280 41 368 36 c 1
 368 0 l 1
 33 0 l 1xdc
272 364 m 2
 272 326 289 321 328 321 c 0
 429 321 455 410 455 486 c 0
 455 601 398 646 331 646 c 0xec
 280 646 272 637 272 609 c 2
 272 364 l 2
EndSplineSet
EndChar

StartChar: Q
Encoding: 81 81 50
Width: 768
GlyphClass: 2
Flags: MW
HStem: -193 46 -171 24<681 698> 661 46<311.5 456.5>
VStem: 42 177<346 346> 549 177<346 346>
AnchorPoint: "Anchor-3" 384 707 basechar 0
AnchorPoint: "Anchor-2" 384 -230 basechar 0
LayerCount: 2
Fore
SplineSet
42 346 m 0xb8
 42 572 154 707 384 707 c 0
 614 707 726 572 726 346 c 0
 726 161 650 37 499 -2 c 1
 513 -28 535 -54 559 -79 c 0
 606 -128 655 -147 681 -147 c 2
 692 -147 l 1xb8
 698 -171 l 1x78
 674 -185 635 -193 594 -193 c 0
 444 -193 352 -83 324 -11 c 1
 136 10 42 140 42 346 c 0xb8
219 346 m 1
 221 210 239 31 384 31 c 0
 529 31 547 210 549 346 c 1
 547 474 529 661 384 661 c 0
 239 661 221 474 219 346 c 1
EndSplineSet
EndChar

StartChar: R
Encoding: 82 82 51
Width: 684
GlyphClass: 2
Flags: MW
HStem: 0 38<33 33 33 351> 318 46<272 318 272 322> 646 46<308.5 370> 654 38<33 380>
VStem: 112 160<97 318 364 595 595 607> 455 168<469.5 538.5 469.5 558>
AnchorPoint: "Anchor-3" 314 707 basechar 0
AnchorPoint: "Anchor-2" 314 0 basechar 0
LayerCount: 2
Fore
SplineSet
33 0 m 1xec
 33 38 l 1
 104 41 112 46 112 97 c 2
 112 595 l 2
 112 646 104 651 33 654 c 1
 33 692 l 1xdc
 380 692 l 2
 478 692 535 673 573 640 c 1
 609 607 623 564 623 513 c 0
 623 426 553 361 454 348 c 1
 454 346 l 1
 557 320 576 254 590 174 c 0
 599 122 614 85 639 60 c 0
 651 48 668 39 686 38 c 1
 686 0 l 1
 612 0 l 2
 507 0 464 26 440 100 c 0
 424 151 416 205 408 240 c 0
 396 294 368 318 318 318 c 2
 272 318 l 1
 272 97 l 2
 272 46 280 41 351 38 c 1
 351 0 l 1
 33 0 l 1xec
272 364 m 1
 322 364 l 2
 423 364 455 424 455 507 c 0
 455 609 404 646 336 646 c 0xec
 281 646 272 634 272 607 c 2
 272 364 l 1
EndSplineSet
EndChar

StartChar: S
Encoding: 83 83 52
Width: 561
GlyphClass: 2
Flags: MW
HStem: -15 46<240 273> 499 21G<451 487 451 451> 661 46<269 330.5 216 331>
VStem: 42 37<226 226> 51 144<521 561> 383 150<147 172> 451 36<499 663>
AnchorPoint: "Anchor-3" 300 707 basechar 0
AnchorPoint: "Anchor-2" 273 0 basechar 0
LayerCount: 2
Fore
SplineSet
42 226 m 1xf4
 79 226 l 1
 117 101 193 31 269 31 c 0
 334 31 382 66 383 140 c 0xf4
 383 204 341 249 250 287 c 0
 162 324 51 378 51 502 c 0
 51 620 132 707 300 707 c 0
 361 707 435 695 487 663 c 1
 487 499 l 1
 451 499 l 1
 423 616 363 661 299 661 c 0
 239 661 195 621 195 559 c 0xea
 195 483 278 447 344 420 c 0
 435 382 533 331 533 199 c 0
 533 95 473 -13 273 -15 c 0
 207 -15 108 0 57 47 c 1
 42 226 l 1xf4
EndSplineSet
EndChar

StartChar: T
Encoding: 84 84 53
Width: 624
GlyphClass: 2
Flags: MW
HStem: 0 38<136 488 136 136> 646 46<146 192 192 232 392 432 392 392>
VStem: 15 38<504 692> 232 160<95 646> 571 38<504 692>
CounterMasks: 1 38
AnchorPoint: "Anchor-3" 312 707 basechar 0
AnchorPoint: "Anchor-2" 312 0 basechar 0
LayerCount: 2
Fore
SplineSet
15 504 m 1
 15 692 l 1
 609 692 l 1
 609 504 l 1
 571 504 l 1
 537 604 524 646 432 646 c 2
 392 646 l 1
 392 95 l 2
 392 59 399 44 431 42 c 2
 488 38 l 1
 488 0 l 1
 136 0 l 1
 136 38 l 1
 193 42 l 2
 225 44 232 59 232 95 c 2
 232 646 l 1
 192 646 l 2
 100 646 87 604 53 504 c 1
 15 504 l 1
EndSplineSet
EndChar

StartChar: U
Encoding: 85 85 54
Width: 786
GlyphClass: 2
Flags: MW
HStem: -15 46<348 439 348 485.5> 654 38<29 341 29 341>
VStem: 105 160<225 595> 521 160<225 595 225 595 225 620.5>
AnchorPoint: "Anchor-3" 393 707 basechar 0
AnchorPoint: "Anchor-2" 393 0 basechar 0
AnchorPoint: "Anchor-1" 393 0 basechar 0
LayerCount: 2
Fore
SplineSet
29 654 m 1
 29 692 l 1
 341 692 l 1
 341 654 l 1
 273 651 265 646 265 595 c 2
 265 211 l 2
 265 97 303 31 393 31 c 0
 485 31 521 97 521 211 c 2
 521 595 l 2
 521 646 513 651 445 654 c 1
 445 692 l 1
 757 692 l 1
 757 654 l 1
 689 651 681 646 681 595 c 2
 681 225 l 1
 679 52 578 -15 393 -15 c 0
 193 -15 105 52 105 225 c 2
 105 595 l 2
 105 646 97 651 29 654 c 1
EndSplineSet
EndChar

StartChar: V
Encoding: 86 86 55
Width: 645
GlyphClass: 2
Flags: MW
HStem: 0 21G<262 388 262 262> 0 149<372 377 372 388 262 377> 652 40
VStem: -16 695<654 692 654 692> 447 232<654 692 654 692>
AnchorPoint: "Anchor-3" 326 707 basechar 0
AnchorPoint: "Anchor-2" 325 0 basechar 0
LayerCount: 2
Fore
SplineSet
-16 654 m 1xb0
 -16 692 l 1xb0
 287 692 l 1
 287 654 l 1
 239 649 l 2
 216 647 216 634 222 613 c 2
 372 149 l 1
 377 149 l 1
 395 200 440 346 460 407 c 0
 490 500 512 583 520 616 c 0
 525 637 523 647 503 649 c 2
 447 654 l 1
 447 692 l 1x68
 679 692 l 1
 679 654 l 1
 623 650 614 643 594 595 c 1
 579 556 544 459 507 349 c 2
 388 0 l 1
 262 0 l 1
 60 603 l 2
 46 646 35 652 -16 654 c 1xb0
EndSplineSet
EndChar

StartChar: W
Encoding: 87 87 56
Width: 933
GlyphClass: 2
Flags: MW
HStem: 0 21G<221 347 221 221 591 718 591 591> 0 159<327 329 327 347 221 329 696 700> 656 36<-10 277 -10 277> 657 20G<453 564 564 564>
VStem: -10 970<656 692 656 692> 807 153
AnchorPoint: "Anchor-3" 470 707 basechar 0
AnchorPoint: "Anchor-2" 470 0 basechar 0
LayerCount: 2
Fore
SplineSet
-10 656 m 1xa8
 -10 692 l 1
 277 692 l 1
 277 656 l 1xa8
 231 649 l 2
 220 648 214 644 211 638 c 0
 209 632 210 623 213 611 c 2
 327 159 l 1
 329 159 l 1
 453 677 l 1
 564 677 l 1
 696 159 l 1
 700 159 l 1
 757 384 l 2
 788 509 803 583 807 608 c 0x54
 811 632 809 645 788 648 c 2
 731 656 l 1
 731 692 l 1
 960 692 l 1
 960 656 l 1
 906 649 897 644 883 598 c 0
 868 550 840 455 811 347 c 2
 718 0 l 1
 591 0 l 1
 468 468 l 1
 465 468 l 1
 347 0 l 1
 221 0 l 1
 133 334 l 2
 105 438 80 535 58 608 c 0
 47 644 40 651 -10 656 c 1xa8
EndSplineSet
EndChar

StartChar: X
Encoding: 88 88 57
Width: 634
GlyphClass: 2
Flags: MW
HStem: 0 38<-19 -19 -19 242> 654 38<-6 299 -6 299>
AnchorPoint: "Anchor-3" 326 707 basechar 0
AnchorPoint: "Anchor-2" 326 0 basechar 0
LayerCount: 2
Fore
SplineSet
-19 0 m 1
 -19 38 l 1
 46 42 53 47 85 89 c 0
 129 148 195 249 249 330 c 1
 191 428 135 520 83 603 c 0
 57 645 49 649 -6 654 c 1
 -6 692 l 1
 299 692 l 1
 299 654 l 1
 257 649 l 2
 238 646 234 634 246 614 c 2
 346 449 l 1
 348 449 l 1
 387 511 424 565 451 618 c 0
 461 637 454 645 441 647 c 2
 398 654 l 1
 398 692 l 1
 631 692 l 1
 631 654 l 1
 580 651 561 646 530 608 c 0
 490 558 432 479 381 401 c 1
 441 305 503 202 568 98 c 0
 598 49 608 41 671 38 c 1
 671 0 l 1
 335 0 l 1
 335 38 l 1
 386 44 l 2
 409 47 409 61 400 77 c 2
 283 274 l 1
 279 274 l 1
 237 205 190 125 168 77 c 0
 159 57 164 44 184 42 c 2
 242 38 l 1
 242 0 l 1
 -19 0 l 1
EndSplineSet
EndChar

StartChar: Y
Encoding: 89 89 58
Width: 617
GlyphClass: 2
Flags: MW
HStem: 0 38<142 494 142 142> 654 38<-12 304 -12 304>
VStem: 238 160<97 240 240 250 71.5 252.5>
AnchorPoint: "Anchor-3" 313 707 basechar 0
AnchorPoint: "Anchor-2" 313 0 basechar 0
LayerCount: 2
Fore
SplineSet
-12 654 m 1
 -12 692 l 1
 304 692 l 1
 304 654 l 1
 250 648 l 2
 228 645 229 631 236 615 c 2
 359 342 l 1
 362 342 l 1
 402 432 455 540 481 608 c 0
 491 634 485 646 466 648 c 2
 414 654 l 1
 414 692 l 1
 655 692 l 1
 655 654 l 1
 601 648 584 640 561 600 c 0
 514 518 463 416 416 321 c 0
 405 298 398 278 398 250 c 2
 398 97 l 2
 398 46 406 41 494 38 c 1
 494 0 l 1
 142 0 l 1
 142 38 l 1
 230 41 238 46 238 97 c 2
 238 240 l 2
 238 265 227 289 217 309 c 2
 72 597 l 2
 49 643 40 650 -12 654 c 1
EndSplineSet
EndChar

StartChar: Z
Encoding: 90 90 59
Width: 614
GlyphClass: 2
Flags: MW
HStem: 0 46<196 357 357 431> 646 46<219 280 280 407>
VStem: 58 38<496 692> 568 38<209 209>
AnchorPoint: "Anchor-3" 303 707 basechar 0
AnchorPoint: "Anchor-2" 303 0 basechar 0
LayerCount: 2
Fore
SplineSet
0 22 m 1
 138 229 272 437 407 646 c 1
 280 646 l 2
 158 646 120 612 96 496 c 1
 58 496 l 1
 58 692 l 1
 592 692 l 1
 605 671 l 1
 468 463 331 256 196 46 c 1
 357 46 l 2
 505 46 530 97 568 209 c 1
 606 209 l 1
 594 0 l 1
 13 0 l 1
 0 22 l 1
EndSplineSet
EndChar

StartChar: bracketleft
Encoding: 91 91 60
Width: 335
GlyphClass: 2
Flags: MW
HStem: -128 38 654 38
VStem: 123 94<-54.5 -40 -40 604>
LayerCount: 2
Fore
SplineSet
123 -128 m 1
 123 692 l 1
 308 692 l 1
 308 658 l 1
 248 651 l 2
 221 648 217 633 217 604 c 2
 217 -40 l 2
 217 -69 221 -84 248 -87 c 2
 308 -94 l 1
 308 -128 l 1
 123 -128 l 1
EndSplineSet
EndChar

StartChar: backslash
Encoding: 92 92 61
Width: 379
GlyphClass: 2
Flags: MW
HStem: -15 21G<245 345 245 245> 687 20G<34 134 134 134>
VStem: 34 311
LayerCount: 2
Fore
SplineSet
34 707 m 1
 134 707 l 1
 345 -15 l 1
 245 -15 l 1
 34 707 l 1
EndSplineSet
Substitution2: "'ss01' Style Set 1 lookup 8 subtable" backslash.alt
EndChar

StartChar: bracketright
Encoding: 93 93 62
Width: 335
GlyphClass: 2
Flags: MW
HStem: -128 38 654 38
VStem: 118 94<-40 604 604 618.5>
LayerCount: 2
Fore
SplineSet
27 -94 m 1
 87 -87 l 2
 114 -84 118 -69 118 -40 c 2
 118 604 l 2
 118 633 114 648 87 651 c 2
 27 658 l 1
 27 692 l 1
 212 692 l 1
 212 -128 l 1
 27 -128 l 1
 27 -94 l 1
EndSplineSet
EndChar

StartChar: asciicircum
Encoding: 94 94 63
Width: 600
GlyphClass: 2
Flags: MW
HStem: 648 20G<253 352 352 352>
LayerCount: 2
Fore
SplineSet
56 215 m 1
 253 668 l 1
 352 668 l 1
 544 215 l 1
 440 215 l 1
 302 556 l 1
 160 215 l 1
 56 215 l 1
EndSplineSet
EndChar

StartChar: underscore
Encoding: 95 95 64
Width: 500
GlyphClass: 2
Flags: MW
HStem: -125 50<0 500 0 500>
VStem: 0 500<-125 -75 -125 -75>
LayerCount: 2
Fore
SplineSet
0 -75 m 1
 500 -75 l 1
 500 -125 l 1
 0 -125 l 1
 0 -75 l 1
EndSplineSet
EndChar

StartChar: grave
Encoding: 96 96 65
Width: 430
GlyphClass: 2
Flags: MW
HStem: 511 229<81 291>
VStem: 40 272<541 692.5>
LayerCount: 2
Fore
SplineSet
40 680 m 0
 40 705 69 740 93 740 c 0
 113 740 130 728 167 690 c 2
 312 541 l 1
 291 511 l 1
 108 614 l 2
 72 634 40 654 40 680 c 0
EndSplineSet
EndChar

StartChar: a
Encoding: 97 97 66
Width: 544
GlyphClass: 2
Flags: MW
HStem: -12 78<141.5 282.5> 456 46<259 287.5>
VStem: 41 154<123.5 161.5> 331 147<134 279 279 279 329 362>
AnchorPoint: "Anchor-3" 291 502 basechar 0
AnchorPoint: "Anchor-2" 291 0 basechar 0
AnchorPoint: "Anchor-1" 402 0 basechar 0
LayerCount: 2
Fore
SplineSet
41 133 m 0
 41 190 68 231 147 258 c 0
 212 280 296 305 331 329 c 1
 331 382 l 2
 331 439 302 456 273 456 c 0
 245 456 213 441 185 356 c 0
 177 332 166 316 144 316 c 0
 118 316 54 334 54 379 c 0
 54 444 144 502 291 502 c 0
 468 502 478 424 478 362 c 2
 478 131 l 2
 478 72 497 60 510 56 c 0
 525 51 545 50 558 51 c 1
 561 18 l 1
 528 5 465 -12 413 -12 c 0
 365 -12 348 15 335 46 c 1
 300 23 256 -12 192 -12 c 0
 91 -12 41 58 41 133 c 0
195 150 m 0
 195 97 230 66 269 66 c 0
 296 66 329 80 331 134 c 1
 331 279 l 1
 307 268 272 254 241 237 c 0
 211 220 195 197 195 150 c 0
EndSplineSet
EndChar

StartChar: b
Encoding: 98 98 67
Width: 605
GlyphClass: 2
Flags: MW
HStem: -12 46<286.5 348.5 286.5 380.5> 425 77<289.5 434> 722 20G<218 218>
VStem: 74 151<144.5 154 154 312 433 621 621 641> 412 159<174 318.5>
AnchorPoint: "Anchor-3" 322 742 basechar 0
AnchorPoint: "Anchor-2" 322 0 basechar 0
LayerCount: 2
Fore
SplineSet
15 679 m 1
 15 715 l 1
 218 742 l 1
 225 736 l 1
 225 433 l 1
 272 469 321 502 384 502 c 0
 484 502 571 425 571 262 c 0
 571 36 452 -12 309 -12 c 0
 244 -12 196 3 160 22 c 1
 106 -12 l 1
 74 6 l 1
 74 621 l 2
 74 661 66 670 50 673 c 2
 15 679 l 1
225 154 m 2
 225 135 226 113 229 98 c 0
 236 61 262 34 311 34 c 0
 386 34 412 111 412 237 c 0
 412 400 361 425 312 425 c 0
 267 425 244 402 231 368 c 0
 226 354 225 333 225 312 c 2
 225 154 l 2
EndSplineSet
EndChar

StartChar: c
Encoding: 99 99 68
Width: 494
GlyphClass: 2
Flags: MW
HStem: -12 77<288.5 310.5> 456 46<257 295.5>
VStem: 34 159<187 284.5>
AnchorPoint: "Anchor-3" 287 502 basechar 0
AnchorPoint: "Anchor-2" 269 0 basechar 0
LayerCount: 2
Fore
SplineSet
34 241 m 0
 34 328 60 393 102 435 c 0
 147 480 209 502 287 502 c 0
 378 502 478 463 478 392 c 0
 478 348 430 330 395 330 c 0
 369 330 354 342 347 365 c 0
 330 425 313 456 278 456 c 0
 236 456 193 399 193 265 c 0
 193 109 256 65 321 65 c 0
 376 65 415 88 449 156 c 1
 484 140 l 1
 445 16 352 -12 269 -12 c 0
 128 -12 34 73 34 241 c 0
EndSplineSet
EndChar

StartChar: d
Encoding: 100 100 69
Width: 605
GlyphClass: 2
Flags: MW
HStem: -12 77<171.5 334> 0 38<380 596> 456 46<276 313 258.5 323> 679 36<321 321> 722 20G<524 524>
VStem: 34 159<192 281> 380 151<0 87 50 87 152 358 358 368.5 489 621 621 641>
AnchorPoint: "Anchor-3" 282 742 basechar 0
AnchorPoint: "Anchor-2" 315 0 basechar 0
LayerCount: 2
Fore
SplineSet
34 236 m 0xbe
 34 326 62 393 109 437 c 0
 155 480 221 502 296 502 c 0
 330 502 358 498 380 489 c 1
 380 621 l 2
 380 661 372 670 356 673 c 2
 321 679 l 1
 321 715 l 1
 524 742 l 1
 531 736 l 1
 531 87 l 2
 531 45 539 41 596 38 c 1
 596 0 l 1
 380 0 l 1x7e
 380 50 l 1
 326 7 272 -12 235 -12 c 0
 108 -12 34 90 34 236 c 0xbe
193 256 m 0
 193 128 237 65 302 65 c 0xbe
 366 65 380 112 380 152 c 2
 380 358 l 2
 380 379 380 402 372 417 c 0
 362 437 342 456 304 456 c 0
 248 456 193 403 193 256 c 0
EndSplineSet
EndChar

StartChar: e
Encoding: 101 101 70
Width: 519
GlyphClass: 2
Flags: MW
HStem: -12 77<277 338.5> 252 48<193 317 317 328.5 193 451 193 317> 456 46<244.5 307.5>
VStem: 34 159<199.5 252 300 315> 348 157<319.5 335 278 356.5>
AnchorPoint: "Anchor-3" 280 502 basechar 0
AnchorPoint: "Anchor-2" 279 0 basechar 0
AnchorPoint: "Anchor-1" 279 0 basechar 0
LayerCount: 2
Fore
SplineSet
34 245 m 0
 34 385 101 502 281 502 c 0
 474 502 505 376 505 294 c 0
 505 262 487 252 451 252 c 2
 193 252 l 1
 193 147 227 65 327 65 c 0
 388 65 431 97 461 154 c 1
 497 134 l 1
 463 46 398 -12 279 -12 c 0
 93 -12 34 109 34 245 c 0
193 300 m 1
 317 300 l 2
 340 300 348 306 348 333 c 0
 348 380 338 456 277 456 c 0
 212 456 193 372 193 300 c 1
EndSplineSet
EndChar

StartChar: f
Encoding: 102 102 71
Width: 342
GlyphClass: 2
Flags: MW
HStem: 0 38<27 27 27 322> 440 50<29 92 29 92 243 346> 696 46<239 253>
VStem: 92 151<87 440 490 514>
AnchorPoint: "Anchor-3" 272 742 basechar 0
AnchorPoint: "Anchor-2" 168 0 basechar 0
LayerCount: 2
Fore
SplineSet
27 0 m 1
 27 38 l 1
 84 41 92 45 92 87 c 2
 92 440 l 1
 29 440 l 1
 29 490 l 1
 92 490 l 1
 92 533 l 2
 92 670 162 742 273 742 c 0
 383 742 421 686 421 649 c 0
 421 615 380 591 348 591 c 0
 324 591 313 603 303 621 c 0
 273 677 261 696 245 696 c 0
 233 696 221 685 221 659 c 0
 221 622 243 538 243 490 c 1
 346 490 l 1
 346 440 l 1
 243 440 l 1
 243 87 l 2
 243 45 251 41 322 38 c 1
 322 0 l 1
 27 0 l 1
EndSplineSet
EndChar

StartChar: g
Encoding: 103 103 72
Width: 533
GlyphClass: 2
Flags: MW
HStem: -242 46<253.5 294> -16 121<251 315.5> 174 46<254 288 243.5 319> 456 46<246 285.5>
VStem: 25 135<-121.5 -72 -121.5 -62.5> 34 156<300.5 371> 49 125<73 150> 340 143<300.5 351 276.5 378> 411 121<-88 -65.5>
AnchorPoint: "Anchor-3" 258 502 basechar 0
AnchorPoint: "Anchor-2" 272 -230 basechar 0
LayerCount: 2
Fore
SplineSet
25 -96 m 0xf880
 25 -29 99 -10 141 -1 c 1
 141 1 l 1
 97 11 49 51 49 95 c 0xf2
 49 135 91 171 156 187 c 1
 156 189 l 1
 95 199 34 249 34 332 c 0xf4
 34 410 87 502 267 502 c 0
 321 502 377 488 410 469 c 1
 535 512 l 1
 546 501 l 1
 526 426 l 1
 460 414 l 1
 473 397 483 366 483 336 c 0
 483 217 378 174 260 174 c 0
 248 174 233 174 214 176 c 1
 200 173 174 161 174 139 c 0xf3
 174 121 192 105 241 105 c 2
 334 105 l 2
 439 105 532 68 532 -52 c 0
 532 -124 494 -176 439 -205 c 0
 389 -232 316 -242 272 -242 c 0
 129 -242 25 -194 25 -96 c 0xf880
160 -86 m 0xf880
 160 -157 220 -196 287 -196 c 0
 354 -196 411 -167 411 -96 c 0
 411 -35 358 -16 273 -16 c 0
 229 -16 199 -22 185 -31 c 0
 171 -41 160 -58 160 -86 c 0xf880
190 335 m 0xf5
 190 266 222 220 265 220 c 0
 311 220 340 265 340 336 c 0
 340 420 305 456 266 456 c 0
 226 456 190 420 190 335 c 0xf5
EndSplineSet
EndChar

StartChar: h
Encoding: 104 104 73
Width: 631
GlyphClass: 2
Flags: MW
HStem: 0 38<19 19 19 288> 425 77<306 456.5> 679 36<25 25> 722 20G<228 228>
VStem: 84 151<87 317 433 621 621 641> 406 151<80 87 87 332 332 347>
AnchorPoint: "Anchor-3" 320 742 basechar 0
AnchorPoint: "Anchor-2" 320 0 basechar 0
LayerCount: 2
Fore
SplineSet
19 0 m 1
 19 38 l 1
 76 41 84 45 84 87 c 2
 84 621 l 2
 84 661 76 670 60 673 c 2
 25 679 l 1
 25 715 l 1
 228 742 l 1
 235 736 l 1
 235 433 l 1
 297 472 344 502 404 502 c 0
 509 502 557 441 557 347 c 2
 557 87 l 2
 557 45 565 41 622 38 c 1
 622 0 l 1
 353 0 l 1
 353 38 l 1
 374 40 l 2
 395 42 406 47 406 80 c 2
 406 332 l 2
 406 392 378 425 327 425 c 0
 285 425 258 402 245 376 c 0
 238 362 235 339 235 317 c 2
 235 80 l 2
 235 47 246 42 267 40 c 2
 288 38 l 1
 288 0 l 1
 19 0 l 1
EndSplineSet
EndChar

StartChar: i
Encoding: 105 105 74
Width: 316
GlyphClass: 2
Flags: MW
HStem: 0 38<26 26 26 307> 437 36<32 32> 482 20<235 235> 545 175<133 188.5>
VStem: 70 183<609 656.5> 91 151<87 381 381 401>
AnchorPoint: "Anchor-3" 166 700 basechar 0
AnchorPoint: "Anchor-2" 166 0 basechar 0
AnchorPoint: "Anchor-1" 166 0 basechar 0
LayerCount: 2
Fore
SplineSet
70 633 m 0x18
 70 680 105 720 161 720 c 0
 218 720 253 680 253 633 c 0
 253 585 216 545 161 545 c 0
 105 545 70 585 70 633 c 0x18
26 0 m 1xe4
 26 38 l 1
 83 41 91 45 91 87 c 2
 91 381 l 2
 91 421 83 430 67 432 c 2
 32 437 l 1
 32 473 l 1
 235 502 l 1
 242 496 l 1
 242 87 l 2
 242 45 250 41 307 38 c 1
 307 0 l 1
 26 0 l 1xe4
EndSplineSet
EndChar

StartChar: j
Encoding: 106 106 75
Width: 316
GlyphClass: 2
Flags: MW
HStem: -232 21<-8 21.5> 437 36<39 39> 482 20<242 242> 545 175<140 195.5>
VStem: 77 183<609 656.5> 98 151<31 381 381 401>
AnchorPoint: "Anchor-2" 13 -230 basechar 0
LayerCount: 2
Fore
SplineSet
77 633 m 0x18
 77 680 112 720 168 720 c 0
 225 720 260 680 260 633 c 0
 260 585 223 545 168 545 c 0
 112 545 77 585 77 633 c 0x18
-12 -201 m 1xe4
 15 -192 40 -181 60 -156 c 0
 82 -128 98 -69 98 31 c 2
 98 381 l 2
 98 421 90 430 74 432 c 2
 39 437 l 1
 39 473 l 1
 242 502 l 1
 249 496 l 1
 249 25 l 2
 249 -84 227 -162 158 -198 c 0
 108 -224 51 -232 -8 -232 c 1
 -12 -201 l 1xe4
EndSplineSet
EndChar

StartChar: k
Encoding: 107 107 76
Width: 582
GlyphClass: 2
Flags: MW
HStem: 0 38<19 19 19 300> 458 32<430 575> 722 20G<228 228>
VStem: 84 151<87 254 272 621 621 641>
AnchorPoint: "Anchor-3" 307 742 basechar 0
AnchorPoint: "Anchor-2" 307 0 basechar 0
LayerCount: 2
Fore
SplineSet
19 0 m 1
 19 38 l 1
 76 41 84 45 84 87 c 2
 84 621 l 2
 84 661 76 670 60 673 c 2
 25 679 l 1
 25 715 l 1
 228 742 l 1
 235 736 l 1
 235 272 l 1
 237 272 l 1
 309 374 l 2
 332 406 352 435 371 460 c 1
 389 482 408 490 430 490 c 2
 575 490 l 1
 575 458 l 1
 491 440 430 396 377 345 c 1
 355 323 l 1
 408 239 464 161 531 86 c 0
 561 52 574 40 595 32 c 1
 595 0 l 1
 505 0 l 2
 432 0 392 13 357 59 c 0
 311 120 271 188 237 254 c 1
 235 254 l 1
 235 87 l 2
 235 45 243 41 300 38 c 1
 300 0 l 1
 19 0 l 1
EndSplineSet
EndChar

StartChar: l
Encoding: 108 108 77
Width: 309
GlyphClass: 2
Flags: MW
HStem: 0 38<19 19 19 300> 722 20G<228 228>
VStem: 84 151<87 621 621 641>
AnchorPoint: "Anchor-3" 160 742 basechar 0
AnchorPoint: "Anchor-2" 160 0 basechar 0
LayerCount: 2
Fore
SplineSet
19 0 m 1
 19 38 l 1
 76 41 84 45 84 87 c 2
 84 621 l 2
 84 661 76 670 60 673 c 2
 25 679 l 1
 25 715 l 1
 228 742 l 1
 235 736 l 1
 235 87 l 2
 235 45 243 41 300 38 c 1
 300 0 l 1
 19 0 l 1
EndSplineSet
EndChar

StartChar: m
Encoding: 109 109 78
Width: 948
GlyphClass: 2
Flags: MW
HStem: 0 38<26 26 26 295> 425 77 437 36<32 32>
VStem: 91 151<87 310> 407 151<80 310> 723 151<80 87 87 329 329 347>
CounterMasks: 1 1c
AnchorPoint: "Anchor-3" 482 502 basechar 0
AnchorPoint: "Anchor-2" 482 0 basechar 0
LayerCount: 2
Fore
SplineSet
26 0 m 1xdc
 26 38 l 1
 83 41 91 45 91 87 c 2
 91 381 l 2
 91 421 83 430 67 432 c 2
 32 437 l 1
 32 473 l 1xbc
 229 502 l 1
 242 433 l 1
 297 468 343 502 408 502 c 0
 483 502 524 463 544 427 c 1
 587 454 649 502 718 502 c 0
 824 502 874 440 874 347 c 2
 874 87 l 2
 874 45 882 41 939 38 c 1
 939 0 l 1
 670 0 l 1
 670 38 l 1
 691 40 l 2
 712 42 723 47 723 80 c 2
 723 329 l 2
 723 384 697 425 648 425 c 0
 603 425 558 397 558 310 c 2
 558 80 l 2
 558 47 569 42 590 40 c 2
 611 38 l 1
 611 0 l 1
 354 0 l 1
 354 38 l 1
 375 40 l 2
 396 42 407 47 407 80 c 2
 407 329 l 2
 407 384 384 425 335 425 c 0
 290 425 242 397 242 310 c 2
 242 80 l 2
 242 47 253 42 274 40 c 2
 295 38 l 1
 295 0 l 1
 26 0 l 1xdc
EndSplineSet
EndChar

StartChar: n
Encoding: 110 110 79
Width: 638
GlyphClass: 2
Flags: MW
HStem: 0 38<26 26 26 295> 425 77
VStem: 91 151<87 317> 413 151<80 87 87 334 334 334>
AnchorPoint: "Anchor-3" 328 502 basechar 0
AnchorPoint: "Anchor-2" 328 0 basechar 0
LayerCount: 2
Fore
SplineSet
26 0 m 1
 26 38 l 1
 83 41 91 45 91 87 c 2
 91 381 l 2
 91 421 83 430 67 432 c 2
 32 437 l 1
 32 473 l 1
 229 502 l 1
 242 433 l 1
 308 472 355 502 413 502 c 0
 516 502 563 442 564 348 c 1
 564 87 l 2
 564 45 572 41 629 38 c 1
 629 0 l 1
 360 0 l 1
 360 38 l 1
 381 40 l 2
 402 42 413 47 413 80 c 2
 413 334 l 1
 411 394 385 425 334 425 c 0
 292 425 265 402 252 376 c 0
 245 362 242 339 242 317 c 2
 242 80 l 2
 242 47 253 42 274 40 c 2
 295 38 l 1
 295 0 l 1
 26 0 l 1
EndSplineSet
EndChar

StartChar: o
Encoding: 111 111 80
Width: 585
GlyphClass: 2
Flags: MW
HStem: -12 46<257.5 328.5 257.5 384> 456 46<257.5 328.5>
VStem: 34 159<178 312 178 325> 393 159<178 312>
AnchorPoint: "Anchor-3" 293 502 basechar 0
AnchorPoint: "Anchor-2" 293 0 basechar 0
AnchorPoint: "Anchor-1" 293 0 basechar 0
LayerCount: 2
Fore
SplineSet
34 245 m 0
 34 405 111 502 293 502 c 0
 475 502 552 405 552 245 c 0
 552 85 475 -12 293 -12 c 0
 111 -12 34 85 34 245 c 0
193 245 m 0
 193 111 222 34 293 34 c 0
 364 34 393 111 393 245 c 0
 393 379 364 456 293 456 c 0
 222 456 193 379 193 245 c 0
EndSplineSet
EndChar

StartChar: p
Encoding: 112 112 81
Width: 615
GlyphClass: 2
Flags: MW
HStem: -230 38<19 318 19 19> -12 46<300.5 356.5 296 388> 425 77 437 36<25 25>
VStem: 84 151<-143 0 142.5 152 152 310> 422 159<175 318>
AnchorPoint: "Anchor-3" 332 502 basechar 0
AnchorPoint: "Anchor-2" 332 -230 basechar 0
LayerCount: 2
Fore
SplineSet
19 -192 m 1xec
 76 -189 84 -185 84 -143 c 2
 84 381 l 2
 84 421 76 430 60 432 c 2
 25 437 l 1
 25 473 l 1xdc
 217 502 l 1
 235 433 l 1
 284 470 330 502 400 502 c 0
 494 502 581 425 581 259 c 0
 581 40 462 -12 314 -12 c 0
 287 -12 252 -7 235 0 c 1
 235 -143 l 2
 235 -185 245 -189 318 -192 c 1
 318 -230 l 1
 19 -230 l 1
 19 -192 l 1xec
235 152 m 2
 235 133 236 116 239 101 c 0
 248 57 274 34 318 34 c 0
 395 34 422 113 422 237 c 0
 422 399 369 425 322 425 c 0xec
 280 425 255 402 242 365 c 0
 237 351 235 331 235 310 c 2
 235 152 l 2
EndSplineSet
EndChar

StartChar: q
Encoding: 113 113 82
Width: 597
GlyphClass: 2
Flags: MW
HStem: -230 38<305 596 305 305> -12 77<174 334> 456 46<274 325>
VStem: 34 159<192 282.5> 380 151<-143 47 47 47 152 353 353 362.5>
AnchorPoint: "Anchor-3" 282 502 basechar 0
AnchorPoint: "Anchor-2" 282 -230 basechar 0
LayerCount: 2
Fore
SplineSet
34 235 m 0
 34 330 63 393 108 437 c 0
 152 480 222 502 301 502 c 0
 358 502 407 489 441 471 c 1
 484 502 l 1
 531 502 l 1
 531 -143 l 2
 531 -185 539 -189 596 -192 c 1
 596 -230 l 1
 305 -230 l 1
 305 -192 l 1
 372 -189 380 -185 380 -143 c 2
 380 47 l 1
 328 1 284 -12 237 -12 c 0
 111 -12 34 89 34 235 c 0
193 256 m 0
 193 128 236 65 301 65 c 0
 367 65 380 112 380 152 c 2
 380 353 l 2
 380 372 380 390 376 403 c 0
 367 435 345 456 305 456 c 0
 243 456 193 391 193 256 c 0
EndSplineSet
EndChar

StartChar: r
Encoding: 114 114 83
Width: 440
GlyphClass: 2
Flags: MW
HStem: 0 38<26 26 26 328> 386 116<227 284> 437 36<32 32>
VStem: 91 151<87 311>
AnchorPoint: "Anchor-3" 274 502 basechar 0
AnchorPoint: "Anchor-2" 177 0 basechar 0
LayerCount: 2
Fore
SplineSet
26 0 m 1xd0
 26 38 l 1
 83 41 91 45 91 87 c 2
 91 381 l 2
 91 421 83 430 67 432 c 2
 32 437 l 1
 32 473 l 1xb0
 227 502 l 1
 239 414 l 1
 297 475 330 502 372 502 c 0
 414 502 442 475 442 432 c 0
 442 410 437 390 426 375 c 0
 415 360 395 349 375 349 c 0
 356 349 342 357 329 365 c 0
 307 378 292 386 276 386 c 0
 252 386 242 363 242 311 c 2
 242 87 l 2
 242 45 251 42 328 38 c 1
 328 0 l 1
 26 0 l 1xd0
EndSplineSet
EndChar

StartChar: s
Encoding: 115 115 84
Width: 446
GlyphClass: 2
Flags: MW
HStem: -12 46<191 243 188 280> 456 46<220.5 266.5>
VStem: 38 38<185 185> 43 135<378 394.5> 290 135<97 119> 354 37<334 467>
AnchorPoint: "Anchor-3" 240 502 basechar 0
AnchorPoint: "Anchor-2" 219 0 basechar 0
LayerCount: 2
Fore
SplineSet
38 185 m 1xe8
 76 185 l 1
 102 103 155 34 221 34 c 0
 265 34 290 57 290 95 c 0xe8
 290 143 241 172 190 190 c 1
 102 223 43 271 43 344 c 0
 43 445 119 502 241 502 c 0
 293 502 350 492 391 467 c 1
 391 334 l 1
 354 334 l 1
 335 410 292 456 241 456 c 0
 200 456 178 429 178 398 c 0xd4
 178 358 221 334 279 313 c 0
 371 278 425 237 425 151 c 0
 425 43 341 -12 219 -12 c 0
 163 -12 88 1 50 36 c 1
 38 185 l 1xe8
EndSplineSet
EndChar

StartChar: t
Encoding: 116 116 85
Width: 370
GlyphClass: 2
Flags: MW
HStem: -12 75<186 316> 440 50<32 95 32 90 241 345>
VStem: 90 151<123 155 155 440>
AnchorPoint: "Anchor-3" 166 616 basechar 0
AnchorPoint: "Anchor-2" 200 0 basechar 0
LayerCount: 2
Fore
SplineSet
32 440 m 1
 32 490 l 1
 95 490 l 1
 183 616 l 1
 241 616 l 1
 241 490 l 1
 345 490 l 1
 345 440 l 1
 241 440 l 1
 241 155 l 2
 241 91 267 63 305 63 c 0
 327 63 348 67 362 73 c 1
 373 42 l 1
 317 7 255 -12 214 -12 c 0
 158 -12 90 26 90 117 c 2
 90 440 l 1
 32 440 l 1
EndSplineSet
EndChar

StartChar: u
Encoding: 117 117 86
Width: 629
GlyphClass: 2
Flags: MW
HStem: -12 79<191 339> 0 38<412 620> 437 36<23 23> 482 20G<226 226 548 548>
VStem: 82 151<138 176 176 381 381 401> 404 151<56 87 170 381 381 401>
AnchorPoint: "Anchor-3" 318 502 basechar 0
AnchorPoint: "Anchor-2" 318 0 basechar 0
AnchorPoint: "Anchor-1" 480 0 basechar 0
LayerCount: 2
Fore
SplineSet
23 437 m 1xbc
 23 473 l 1
 226 502 l 1
 233 496 l 1
 233 176 l 2
 233 98 264 67 317 67 c 0xbc
 361 67 387 91 396 114 c 0
 402 129 404 153 404 170 c 2
 404 381 l 2
 404 421 396 430 380 432 c 2
 345 437 l 1
 345 473 l 1
 548 502 l 1
 555 496 l 1
 555 87 l 2
 555 45 563 41 620 38 c 1
 620 0 l 1
 412 0 l 1x7c
 404 56 l 1
 364 34 312 -12 227 -12 c 0
 155 -12 82 21 82 138 c 2
 82 381 l 2
 82 421 74 430 58 432 c 2
 23 437 l 1xbc
EndSplineSet
EndChar

StartChar: v
Encoding: 118 118 87
Width: 520
GlyphClass: 2
Flags: MW
HStem: 0 21G<208 318 208 208> 452 38<-8 257 -8 257>
AnchorPoint: "Anchor-3" 269 502 basechar 0
AnchorPoint: "Anchor-2" 263 0 basechar 0
LayerCount: 2
Fore
SplineSet
-8 452 m 1
 -8 490 l 1
 257 490 l 1
 257 452 l 1
 220 447 l 2
 202 445 200 437 206 418 c 2
 304 132 l 1
 308 132 l 1
 342 233 374 324 398 414 c 0
 403 433 400 444 382 446 c 2
 339 452 l 1
 339 490 l 1
 546 490 l 1
 546 452 l 1
 505 449 494 444 477 409 c 0
 459 373 432 310 405 236 c 2
 318 0 l 1
 208 0 l 1
 130 215 l 2
 106 280 83 344 57 408 c 0
 44 440 31 449 -8 452 c 1
EndSplineSet
EndChar

StartChar: w
Encoding: 119 119 88
Width: 774
GlyphClass: 2
Flags: MW
HStem: 0 21G<185 295 185 185 490 600 490 490> 0 142<280 283 280 295 185 283 584 588> 452 38<-10 250 -10 250>
VStem: -10 211 595 207<452 490 452 490>
AnchorPoint: "Anchor-3" 391 502 basechar 0
AnchorPoint: "Anchor-2" 392 0 basechar 0
LayerCount: 2
Fore
SplineSet
-10 452 m 1xb8
 -10 490 l 1
 250 490 l 1
 250 452 l 1
 222 449 l 2
 202 447 198 439 204 417 c 2
 280 142 l 1
 283 142 l 1
 376 490 l 1
 481 490 l 1
 584 142 l 1
 588 142 l 1x78
 613 236 646 363 655 413 c 0
 658 432 656 443 638 446 c 2
 595 452 l 1
 595 490 l 1
 802 490 l 1
 802 452 l 1
 751 448 744 441 729 402 c 1
 714 366 693 303 672 234 c 2
 600 0 l 1
 490 0 l 1
 390 307 l 1
 386 307 l 1
 295 0 l 1
 185 0 l 1
 101 265 l 2
 81 328 75 348 53 409 c 0
 41 443 30 448 -10 452 c 1xb8
EndSplineSet
EndChar

StartChar: x
Encoding: 120 120 89
Width: 522
GlyphClass: 2
Flags: MW
HStem: 0 38<-15 -15 -15 206> 452 38<-6 254 -6 254>
AnchorPoint: "Anchor-3" 268 502 basechar 0
AnchorPoint: "Anchor-2" 268 0 basechar 0
LayerCount: 2
Fore
SplineSet
-15 0 m 1
 -15 38 l 1
 37 44 55 51 87 87 c 0
 126 131 162 178 201 227 c 1
 151 294 109 360 68 415 c 0
 48 442 38 447 -6 452 c 1
 -6 490 l 1
 254 490 l 1
 254 452 l 1
 231 448 l 2
 219 446 218 437 225 427 c 2
 287 332 l 1
 289 332 l 1
 349 421 l 2
 361 438 358 447 344 449 c 2
 318 452 l 1
 318 490 l 1
 516 490 l 1
 516 452 l 1
 475 451 454 441 430 417 c 0
 395 381 358 340 320 289 c 1
 367 220 414 152 462 87 c 1
 491 50 507 41 550 38 c 1
 550 0 l 1
 272 0 l 1
 272 38 l 1
 294 41 l 2
 311 43 318 52 307 69 c 2
 234 181 l 1
 232 181 l 1
 163 73 l 2
 151 55 155 45 171 43 c 2
 206 38 l 1
 206 0 l 1
 -15 0 l 1
EndSplineSet
EndChar

StartChar: y
Encoding: 121 121 90
Width: 524
GlyphClass: 2
Flags: MW
HStem: -242 108<114 209> 452 38<-12 268 -12 268>
AnchorPoint: "Anchor-3" 273 502 basechar 0
AnchorPoint: "Anchor-2" 272 -230 basechar 0
LayerCount: 2
Fore
SplineSet
-12 452 m 1
 -12 490 l 1
 268 490 l 1
 268 452 l 1
 230 446 l 2
 214 444 211 433 218 413 c 0
 249 319 286 226 319 134 c 1
 321 134 l 1
 352 228 384 321 412 416 c 0
 417 435 411 444 397 446 c 2
 356 452 l 1
 356 490 l 1
 557 490 l 1
 557 452 l 1
 536 450 l 2
 508 447 497 428 479 385 c 0
 420 242 360 95 302 -60 c 0
 248 -204 202 -242 133 -242 c 0
 95 -242 52 -218 52 -179 c 0
 52 -141 84 -98 116 -98 c 0
 133 -98 142 -105 161 -119 c 0
 173 -129 186 -134 197 -134 c 0
 221 -134 230 -108 236 -85 c 0
 241 -65 238 -39 230 -19 c 0
 177 119 117 267 59 406 c 0
 48 433 36 444 21 447 c 2
 -12 452 l 1
EndSplineSet
EndChar

StartChar: z
Encoding: 122 122 91
Width: 483
GlyphClass: 2
Flags: MW
HStem: 0 46<187 284 284 336> 444 46<158.5 206 206 288>
VStem: 43 39<322 490> 442 38<180 180>
AnchorPoint: "Anchor-3" 240 502 basechar 0
AnchorPoint: "Anchor-2" 240 0 basechar 0
LayerCount: 2
Fore
SplineSet
-1 21 m 1
 97 162 194 303 288 444 c 1
 206 444 l 2
 111 444 102 405 82 322 c 1
 43 322 l 1
 43 490 l 1
 465 490 l 1
 476 470 l 1
 378 329 281 187 187 46 c 1
 284 46 l 2
 388 46 413 77 442 180 c 1
 480 180 l 1
 468 0 l 1
 11 0 l 1
 -1 21 l 1
EndSplineSet
EndChar

StartChar: braceleft
Encoding: 123 123 92
Width: 365
GlyphClass: 2
Flags: MW
HStem: -128 34<284 325> 265 34<74 112.5> 658 34<284 325>
VStem: 74 251
CounterMasks: 1 e0
LayerCount: 2
Fore
SplineSet
74 265 m 1
 74 299 l 1
 173 299 168 340 160 411 c 2
 150 505 l 2
 141 588 142 692 284 692 c 2
 325 692 l 1
 325 658 l 1
 244 654 240 607 247 539 c 2
 255 462 l 2
 263 382 282 309 164 285 c 1
 164 279 l 1
 282 255 263 182 255 102 c 2
 247 25 l 2
 240 -43 244 -90 325 -94 c 1
 325 -128 l 1
 284 -128 l 2
 142 -128 141 -24 150 59 c 2
 160 153 l 2
 168 224 151 265 74 265 c 1
EndSplineSet
EndChar

StartChar: bar
Encoding: 124 124 93
Width: 284
GlyphClass: 2
Flags: MW
HStem: -250 1000<94 190 94 190>
VStem: 94 96<-250 750 -250 750>
LayerCount: 2
Fore
SplineSet
94 -250 m 1
 94 750 l 1
 190 750 l 1
 190 -250 l 1
 94 -250 l 1
EndSplineSet
Substitution2: "'ss01' Style Set 1 lookup 8 subtable" bar.alt
EndChar

StartChar: braceright
Encoding: 125 125 94
Width: 365
GlyphClass: 2
Flags: MW
HStem: -128 34<40 81 40 40> 265 34<252.5 291> 658 34<40 81>
VStem: 40 251
CounterMasks: 1 e0
LayerCount: 2
Fore
SplineSet
40 -94 m 1
 121 -90 125 -43 118 25 c 2
 110 102 l 2
 102 182 83 255 201 279 c 1
 201 285 l 1
 83 309 102 382 110 462 c 2
 118 539 l 2
 125 607 121 654 40 658 c 1
 40 692 l 1
 81 692 l 2
 223 692 224 588 215 505 c 2
 205 411 l 2
 197 340 192 299 291 299 c 1
 291 265 l 1
 214 265 197 224 205 153 c 2
 215 59 l 2
 224 -24 223 -128 81 -128 c 2
 40 -128 l 1
 40 -94 l 1
EndSplineSet
EndChar

StartChar: asciitilde
Encoding: 126 126 95
Width: 600
GlyphClass: 2
Flags: MW
HStem: 178 89<394.5 427.5 394.5 438.5> 235 89<172 207.5>
LayerCount: 2
Fore
SplineSet
50 186 m 1x40
 74 243 113 324 205 324 c 0x40
 241 324 277 310 311 296 c 0
 345 281 379 267 410 267 c 0
 445 267 468 285 497 339 c 1
 551 311 l 1
 523 245 482 178 395 178 c 0x80
 352 178 318 192 287 207 c 1
 255 221 226 235 189 235 c 0
 155 235 130 209 106 158 c 1
 50 186 l 1x40
EndSplineSet
EndChar

StartChar: exclamdown
Encoding: 161 161 97
Width: 278
GlyphClass: 2
Flags: MW
HStem: 316 186<111.5 167>
VStem: 47 184<382 409 382 436.5> 56 165<-102 -102>
LayerCount: 2
Fore
SplineSet
47 409 m 0xc0
 47 464 84 502 139 502 c 0
 195 502 229 464 231 409 c 1
 231 355 195 316 139 316 c 0
 84 316 47 355 47 409 c 0xc0
56 -102 m 2xa0
 107 271 l 1
 171 271 l 1
 221 -102 l 2
 232 -181 225 -217 139 -217 c 0
 52 -217 45 -181 56 -102 c 2xa0
EndSplineSet
EndChar

StartChar: cent
Encoding: 162 162 98
Width: 560
GlyphClass: 2
Flags: MW
HStem: -15 21G<294 350 294 294> 87 59<294 379 350 379> 553 46<294 296> 658 20G<296 350 350 350>
VStem: 39 153<319.5 426> 294 56<-15 87 -15 87 150 553>
LayerCount: 2
Fore
SplineSet
39 339 m 0
 39 513 137 594 296 599 c 1
 296 678 l 1
 350 678 l 1
 350 599 l 1
 418 598 539 568 539 495 c 0
 539 455 496 436 464 436 c 0
 440 436 428 448 418 473 c 0
 396 531 374 550 350 553 c 1
 350 146 l 1
 408 146 465 163 509 243 c 1
 546 221 l 1
 508 120 414 88 350 87 c 1
 350 -15 l 1
 294 -15 l 1
 294 87 l 1
 97 86 39 208 39 339 c 0
192 368 m 0
 192 271 215 169 294 150 c 1
 294 553 l 1
 250 549 192 518 192 368 c 0
EndSplineSet
EndChar

StartChar: sterling
Encoding: 163 163 99
Width: 560
GlyphClass: 2
Flags: MW
HStem: 0 116<237 426 426 443 237 499> 290 48<38 132 38 159 38 132 318 318 318 448> 499 21G<407.5 434> 633 46<270 306>
VStem: 83 139<532 536> 377 120
LayerCount: 2
Fore
SplineSet
21 9 m 1
 43 72 l 1
 133 102 189 137 189 196 c 0
 189 225 178 258 159 290 c 1
 38 290 l 1
 38 338 l 1
 132 338 l 1
 122 357 83 424 83 485 c 0
 83 587 146 679 301 679 c 0
 450 679 497 600 497 560 c 0
 497 521 449 499 419 499 c 0
 396 499 385 512 377 530 c 0
 347 593 324 633 288 633 c 0
 252 633 222 596 222 546 c 0
 222 518 230 486 253 438 c 0
 270 402 290 368 304 338 c 1
 448 338 l 1
 448 290 l 1
 318 290 l 1
 320 277 322 264 322 249 c 0
 323 203 295 152 237 118 c 1
 237 116 l 1
 426 116 l 2
 460 116 479 127 496 149 c 2
 520 180 l 1
 555 167 l 1
 499 0 l 1
 30 0 l 1
 21 9 l 1
EndSplineSet
EndChar

StartChar: currency
Encoding: 164 164 100
Width: 560
GlyphClass: 2
Flags: MW
HStem: 98 89<258 302> 481 89<258 302 258 317.5>
VStem: 46 102<309.5 358.5> 412 102<309.5 358.5 309.5 375.5>
LayerCount: 2
Fore
SplineSet
40 88 m 0
 11 116 19 144 40 161 c 2
 89 200 l 1
 61 232 46 285 46 334 c 0
 46 383 61 436 89 468 c 1
 40 507 l 2
 19 524 11 552 40 580 c 0
 64 604 97 598 112 578 c 2
 150 529 l 1
 183 557 236 570 280 570 c 0
 324 570 377 557 410 529 c 1
 448 578 l 2
 463 598 496 604 520 580 c 0
 549 552 541 524 520 507 c 2
 471 468 l 1
 499 436 514 383 514 334 c 0
 514 285 499 232 471 200 c 1
 520 161 l 2
 541 144 549 116 520 88 c 0
 496 64 463 70 448 90 c 2
 410 139 l 1
 377 111 324 98 280 98 c 0
 236 98 183 111 150 139 c 1
 112 90 l 2
 97 70 64 64 40 88 c 0
148 334 m 0
 148 251 205 187 280 187 c 0
 355 187 412 251 412 334 c 0
 412 417 355 481 280 481 c 0
 205 481 148 417 148 334 c 0
EndSplineSet
EndChar

StartChar: yen
Encoding: 165 165 101
Width: 560
GlyphClass: 2
Flags: MW
HStem: 0 36<128 435 128 128> 214 48<51 208 51 208 355 513> 349 48<51 170 51 191 51 170 386 513> 632 36<3 285>
VStem: 208 147<77 214 69 214 262 272>
LayerCount: 2
Fore
SplineSet
3 632 m 1
 3 668 l 1
 285 668 l 1
 285 629 l 1
 238 624 l 2
 219 622 223 609 229 595 c 2
 320 386 l 1
 322 386 l 1
 361 474 397 560 408 592 c 0
 415 615 407 624 389 626 c 2
 341 632 l 1
 341 668 l 1
 562 668 l 1
 562 632 l 1
 529 628 l 2
 507 625 493 612 479 586 c 0
 462 555 423 481 386 397 c 1
 513 397 l 1
 513 349 l 1
 366 349 l 1
 359 327 l 2
 355 314 355 282 355 262 c 1
 513 262 l 1
 513 214 l 1
 355 214 l 1
 355 77 l 2
 355 61 357 44 377 42 c 2
 435 36 l 1
 435 0 l 1
 128 0 l 1
 128 36 l 1
 185 42 l 2
 206 44 208 61 208 77 c 2
 208 214 l 1
 51 214 l 1
 51 262 l 1
 208 262 l 1
 208 291 208 311 202 325 c 2
 191 349 l 1
 51 349 l 1
 51 397 l 1
 170 397 l 1
 127 484 93 553 72 592 c 0
 60 614 47 625 30 628 c 2
 3 632 l 1
EndSplineSet
EndChar

StartChar: brokenbar
Encoding: 166 166 102
Width: 284
GlyphClass: 2
Flags: MW
HStem: 655 20G<94 190 190 190>
VStem: 94 96<-175 175 -175 175 325 675>
LayerCount: 2
Fore
SplineSet
94 -175 m 1
 94 175 l 1
 190 175 l 1
 190 -175 l 1
 94 -175 l 1
94 325 m 1
 94 675 l 1
 190 675 l 1
 190 325 l 1
 94 325 l 1
EndSplineSet
EndChar

StartChar: section
Encoding: 167 167 103
Width: 566
GlyphClass: 2
Flags: MW
HStem: -115 48<291 319.5 291 333> 659 48<255 285>
VStem: 35 65<398.5 404> 466 65<207 211.5>
LayerCount: 2
Fore
SplineSet
35 370 m 0
 35 438 71 510 129 553 c 1
 128 617 172 707 307 707 c 0
 382 707 455 669 455 622 c 0
 455 589 417 566 392 566 c 0
 372 566 363 577 354 591 c 0
 321 642 300 659 270 659 c 0
 240 659 220 635 220 610 c 0
 220 583 226 546 328 492 c 0
 476 414 531 358 531 240 c 0
 531 174 498 108 455 53 c 1
 456 -43 396 -115 270 -115 c 0
 171 -115 102 -69 101 -20 c 0
 101 26 138 45 165 45 c 0
 187 45 199 38 211 14 c 0
 244 -53 275 -67 307 -67 c 0
 332 -67 359 -48 359 -14 c 0
 359 22 342 69 218 134 c 0
 77 208 35 277 35 370 c 0
100 428 m 0
 100 369 143 321 266 255 c 0
 344 213 409 165 436 115 c 1
 449 128 466 150 466 183 c 0
 466 240 421 296 316 353 c 0
 241 394 172 435 143 496 c 1
 123 486 100 457 100 428 c 0
EndSplineSet
EndChar

StartChar: dieresis
Encoding: 168 168 104
Width: 430
GlyphClass: 2
Flags: MW
HStem: 561 149
VStem: 16 158<616 654> 256 158<616 654>
LayerCount: 2
Fore
SplineSet
256 635 m 0
 256 673 284 710 335 710 c 0
 386 710 414 673 414 635 c 0
 414 597 386 560 335 560 c 0
 284 560 256 597 256 635 c 0
16 635 m 0
 16 673 44 710 95 710 c 0
 146 710 174 673 174 635 c 0
 174 597 146 560 95 560 c 0
 44 560 16 597 16 635 c 0
EndSplineSet
EndChar

StartChar: copyright
Encoding: 169 169 105
Width: 800
GlyphClass: 2
Flags: MW
HStem: -15 63<322.5 477.5 322.5 500.5> 151 32<394.5 445> 516 32<392.5 447.5 345 457> 644 63<322.5 477.5>
VStem: 36 83<262 430 262 446> 207 120<308 398.5 308 403> 531 27<415 519> 681 83<262 430>
LayerCount: 2
Fore
SplineSet
36 346 m 0
 36 546 199 707 400 707 c 0
 601 707 764 546 764 346 c 0
 764 146 601 -15 400 -15 c 0
 199 -15 36 146 36 346 c 0
119 346 m 0
 119 178 245 48 400 48 c 0
 555 48 681 178 681 346 c 0
 681 514 555 644 400 644 c 0
 245 644 119 514 119 346 c 0
207 348 m 0
 207 458 270 548 420 548 c 0
 475 548 526 538 558 519 c 1
 558 415 l 1
 531 415 l 1
 516 462 487 516 427 516 c 0
 358 516 327 443 327 354 c 0
 327 262 356 183 433 183 c 0
 490 183 519 238 541 290 c 1
 568 290 l 1
 557 182 l 1
 525 162 471 151 419 151 c 0
 263 151 207 236 207 348 c 0
EndSplineSet
EndChar

StartChar: ordfeminine
Encoding: 170 170 106
Width: 405
GlyphClass: 2
Flags: MW
HStem: 265 54<97 199> 554 36<182 200.5>
VStem: 28 120<351.5 375> 227 112<356 362 362 439 439 439 476 495>
LayerCount: 2
Fore
SplineSet
28 358 m 0
 28 392 49 418 97 434 c 0
 142 449 181 462 227 476 c 1
 227 511 l 2
 227 541 210 554 191 554 c 0
 173 554 152 547 132 496 c 0
 124 476 116 466 100 466 c 0
 77 466 34 479 34 511 c 0
 34 553 96 590 201 590 c 0
 327 590 339 538 339 495 c 2
 339 362 l 2
 339 318 352 306 394 307 c 1
 395 284 l 1
 372 276 329 265 285 265 c 0
 251 265 241 284 230 301 c 1
 200 286 174 265 133 265 c 0
 61 265 28 311 28 358 c 0
148 370 m 0
 148 333 173 319 190 319 c 0
 208 319 225 327 227 356 c 1
 227 439 l 1
 200 434 148 427 148 370 c 0
EndSplineSet
EndChar

StartChar: guillemotleft
Encoding: 171 171 107
Width: 487
GlyphClass: 2
Flags: MW
HStem: 37 427<223 223 223 423>
VStem: 40 129 240 129
LayerCount: 2
Fore
SplineSet
49 231 m 2
 37 245 38 258 49 270 c 2
 223 464 l 1
 252 443 l 1
 173 268 l 2
 168 257 167 246 173 232 c 2
 252 58 l 1
 223 37 l 1
 49 231 l 2
249 231 m 2
 237 245 238 258 249 270 c 2
 423 464 l 1
 452 443 l 1
 373 268 l 2
 368 257 367 246 373 232 c 2
 452 58 l 1
 423 37 l 1
 249 231 l 2
EndSplineSet
EndChar

StartChar: logicalnot
Encoding: 172 172 108
Width: 600
GlyphClass: 2
Flags: MW
HStem: 317 80<58 542 58 446>
VStem: 446 96<95 317 317 317>
LayerCount: 2
Fore
SplineSet
58 317 m 1
 58 397 l 1
 542 397 l 1
 542 95 l 1
 446 95 l 1
 446 317 l 1
 58 317 l 1
EndSplineSet
EndChar

StartChar: uni00AD
Encoding: 173 173 109
Width: 392
GlyphClass: 2
Flags: MW
HStem: 203 95<65 328 65 328>
VStem: 65 263<203 298 203 298>
LayerCount: 2
Fore
SplineSet
65 203 m 1
 65 298 l 1
 328 298 l 1
 328 203 l 1
 65 203 l 1
EndSplineSet
EndChar

StartChar: registered
Encoding: 174 174 110
Width: 800
GlyphClass: 2
Flags: MW
HStem: -15 63<322.5 477.5 322.5 500.5> 159 28 331 32<367 385 367 391> 508 32<384.5 413.5> 644 63<322.5 477.5>
VStem: 36 83<262 430 262 446> 267 100<219 331 363 481 481 488> 456 105<425 462.5> 681 83<262 430>
LayerCount: 2
Fore
SplineSet
36 346 m 0
 36 546 199 707 400 707 c 0
 601 707 764 546 764 346 c 0
 764 146 601 -15 400 -15 c 0
 199 -15 36 146 36 346 c 0
119 346 m 0
 119 178 245 48 400 48 c 0
 555 48 681 178 681 346 c 0
 681 514 555 644 400 644 c 0
 245 644 119 514 119 346 c 0
221 159 m 1
 221 185 l 1
 248 189 l 2
 264 191 267 201 267 219 c 2
 267 481 l 2
 267 498 264 508 248 510 c 2
 221 514 l 1
 221 540 l 1
 429 540 l 2
 528 540 561 500 561 448 c 0
 561 396 525 361 472 351 c 1
 472 349 l 1
 527 334 533 297 544 253 c 0
 550 228 559 205 571 196 c 0
 577 191 585 188 595 185 c 1
 595 159 l 1
 540 159 l 2
 482 159 464 174 451 204 c 0
 440 230 433 274 427 295 c 0
 421 316 412 331 385 331 c 2
 367 331 l 1
 367 219 l 2
 367 201 371 191 387 189 c 2
 414 185 l 1
 414 159 l 1
 221 159 l 1
367 363 m 1
 391 363 l 2
 416 363 431 370 441 382 c 0
 451 395 456 413 456 437 c 0
 456 488 429 508 398 508 c 0
 371 508 367 503 367 488 c 2
 367 363 l 1
EndSplineSet
EndChar

StartChar: macron
Encoding: 175 175 111
Width: 430
GlyphClass: 2
Flags: MW
HStem: 587 87<60 371 60 371>
VStem: 60 311<587 674 587 674>
LayerCount: 2
Fore
SplineSet
60 587 m 1
 60 674 l 1
 371 674 l 1
 371 587 l 1
 60 587 l 1
EndSplineSet
EndChar

StartChar: degree
Encoding: 176 176 112
Width: 396
GlyphClass: 2
Flags: MW
HStem: 360 58<174 221.5 174 243> 622 58<173.5 221>
VStem: 35 77<491 520> 284 77<491 550>
LayerCount: 2
Fore
SplineSet
35 520 m 0
 34 610 107 680 198 680 c 0
 288 680 361 610 361 520 c 0
 361 430 288 360 198 360 c 0
 107 360 35 430 35 520 c 0
112 521 m 1
 112 461 150 418 198 418 c 0
 245 418 284 461 284 521 c 0
 284 579 245 622 197 622 c 0
 150 622 111 579 112 521 c 1
EndSplineSet
EndChar

StartChar: plusminus
Encoding: 177 177 113
Width: 600
GlyphClass: 2
Flags: MW
HStem: 0 80<58 542 58 542> 298 80<58 253 58 253 349 542>
VStem: 253 96<129 298 129 298 378 549>
LayerCount: 2
Fore
SplineSet
58 298 m 1
 58 378 l 1
 253 378 l 1
 253 549 l 1
 349 549 l 1
 349 378 l 1
 542 378 l 1
 542 298 l 1
 349 298 l 1
 349 129 l 1
 253 129 l 1
 253 298 l 1
 58 298 l 1
58 0 m 1
 58 80 l 1
 542 80 l 1
 542 0 l 1
 58 0 l 1
EndSplineSet
EndChar

StartChar: twosuperior
Encoding: 178 178 114
Width: 402
GlyphClass: 2
Flags: HMW
HStem: 408 82<138 306 306 317 138 351> 778 38<189.5 212>
VStem: 235 126<697.5 734.5>
LayerCount: 2
Fore
SplineSet
29 418 m 1
 32 476 84 529 154 582 c 0
 221 633 235 678 235 717 c 0
 235 752 223 778 201 778 c 0
 178 778 164 752 152 700 c 0
 146 675 133 664 109 664 c 0
 83 664 43 681 43 717 c 0
 43 768 105 816 202 816 c 0
 296 816 361 779 361 697 c 0
 361 625 306 593 251 570 c 0
 196 548 152 522 138 490 c 1
 306 490 l 2
 328 490 338 494 354 521 c 1
 382 513 l 1
 351 408 l 1
 40 408 l 1
 29 418 l 1
EndSplineSet
Substitution2: "'pnum' Proportional Numbers lookup 5 subtable" twosuperior.pnum
EndChar

StartChar: threesuperior
Encoding: 179 179 115
Width: 402
GlyphClass: 2
Flags: HMW
HStem: 401 38<177.5 201.5 177.5 252.5> 590 62<108.5 123> 602 38<170 192.5> 778 38<175 198>
VStem: 25 104 35 104 221 125<705.5 733.5> 235 128<495 548.5 489 557.5>
LayerCount: 2
Fore
SplineSet
25 486 m 0xb9
 25 522 62 546 88 546 c 0
 111 546 123 532 129 513 c 0
 148 459 168 439 187 439 c 0
 216 439 235 468 235 522 c 0
 235 593 204 602 181 602 c 0xb9
 158 602 130 590 116 590 c 0
 101 590 94 602 94 620 c 0
 94 640 101 652 116 652 c 0xd9
 130 652 159 640 181 640 c 0
 220 640 221 693 221 718 c 0
 221 749 211 778 185 778 c 0
 165 778 151 755 139 714 c 0
 133 693 122 682 98 682 c 0
 74 682 37 696 35 729 c 1
 36 775 91 816 193 816 c 0
 266 816 346 792 346 714 c 0xb6
 346 660 301 634 259 626 c 1
 259 623 l 1
 315 615 363 577 363 520 c 0
 363 458 322 401 183 401 c 0
 109 401 25 430 25 486 c 0xb9
EndSplineSet
Substitution2: "'pnum' Proportional Numbers lookup 5 subtable" threesuperior.pnum
EndChar

StartChar: acute
Encoding: 180 180 116
Width: 430
GlyphClass: 2
Flags: MW
HStem: 511 229<140 350>
VStem: 119 272<541 692.5>
LayerCount: 2
Fore
SplineSet
119 541 m 1
 264 690 l 2
 301 728 318 740 338 740 c 0
 362 740 391 705 391 680 c 0
 391 654 359 634 323 614 c 2
 140 511 l 1
 119 541 l 1
EndSplineSet
EndChar

StartChar: micro
Encoding: 181 181 117
Width: 629
GlyphClass: 2
Flags: MW
HStem: -242 21G<106.5 127> -12 79<236 339> 0 38<412 620> 437 36<23 23> 482 20G<226 226 548 548>
VStem: 82 84<-23 -8 -8 20 -23 381> 82 138<-175 -160.5 -175 381> 82 151<137 176 176 381 381 401> 404 151<56 87 170 381 381 401>
LayerCount: 2
Fore
SplineSet
23 437 m 1xd980
 23 473 l 1
 226 502 l 1
 233 496 l 1
 233 176 l 2
 233 98 264 67 317 67 c 0xd980
 361 67 387 91 396 114 c 0
 402 129 404 153 404 170 c 2
 404 381 l 2
 404 421 396 430 380 432 c 2
 345 437 l 1
 345 473 l 1
 548 502 l 1
 555 496 l 1
 555 87 l 2
 555 45 563 41 620 38 c 1
 620 0 l 1
 412 0 l 1xb980
 404 56 l 1
 364 34 312 -12 255 -12 c 0
 217 -12 186 3 168 20 c 1
 166 20 l 1
 166 -8 l 2xdc80
 166 -38 181 -81 195 -106 c 0
 208 -130 220 -153 220 -168 c 0
 220 -182 213 -202 184 -221 c 0
 167 -233 137 -242 117 -242 c 0
 96 -242 82 -234 82 -192 c 2xda80
 82 381 l 2
 82 421 74 430 58 432 c 2
 23 437 l 1xd980
EndSplineSet
EndChar

StartChar: paragraph
Encoding: 182 182 118
Width: 552
GlyphClass: 2
Flags: MW
HStem: -101 31<243 441 243 243> 661 31<527 527>
VStem: 35 242<396.5 532> 344 97<-7 608 -101 692 -101 692>
LayerCount: 2
Fore
SplineSet
35 465 m 0
 35 599 122 692 277 692 c 1
 277 238 l 1
 127 238 35 328 35 465 c 0
243 -70 m 1
 323 -56 l 2
 341 -53 344 -36 344 -7 c 2
 344 692 l 1
 527 692 l 1
 527 661 l 1
 462 649 l 2
 444 646 441 637 441 608 c 2
 441 -101 l 1
 243 -101 l 1
 243 -70 l 1
EndSplineSet
EndChar

StartChar: periodcentered
Encoding: 183 183 119
Width: 280
GlyphClass: 2
Flags: MW
HStem: 156 186<112.5 167.5>
VStem: 48 184
LayerCount: 2
Fore
SplineSet
47 249 m 0
 47 304 85 342 140 342 c 0
 195 342 233 304 233 249 c 0
 233 194 195 156 140 156 c 0
 85 156 47 194 47 249 c 0
EndSplineSet
EndChar

StartChar: cedilla
Encoding: 184 184 120
Width: 430
GlyphClass: 2
Flags: MW
HStem: -243 32<136 164> -58 58<236 236>
VStem: 230 105<-174.5 -132>
LayerCount: 2
Fore
SplineSet
136 -211 m 1
 192 -211 230 -196 230 -153 c 0
 230 -111 186 -102 164 -100 c 1
 160 -92 l 1
 217 0 l 1
 275 0 l 1
 236 -58 l 1
 267 -62 335 -79 335 -144 c 0
 335 -234 231 -246 184 -246 c 0
 165 -246 153 -245 136 -243 c 1
 136 -211 l 1
EndSplineSet
EndChar

StartChar: onesuperior
Encoding: 185 185 121
Width: 402
GlyphClass: 2
Flags: HMW
HStem: 408 27<75 75 75 328> 766 26<77 77> 796 20G<253 253>
VStem: 142 119<476 726 726 738>
LayerCount: 2
Fore
SplineSet
75 408 m 1
 75 435 l 1
 113 440 l 2
 134 443 142 450 142 476 c 2
 142 726 l 2
 142 750 134 757 118 760 c 2
 77 766 l 1
 77 792 l 1
 253 816 l 1
 261 809 l 1
 261 476 l 2
 261 450 269 443 290 440 c 2
 328 435 l 1
 328 408 l 1
 75 408 l 1
EndSplineSet
Substitution2: "'pnum' Proportional Numbers lookup 5 subtable" onesuperior.pnum
EndChar

StartChar: ordmasculine
Encoding: 186 186 122
Width: 427
GlyphClass: 2
Flags: HMW
HStem: 401 36<194 234 194 281.5> 690 36<194 234>
VStem: 28 126<525 602.5 525 611> 273 126<525 602.5>
LayerCount: 2
Fore
SplineSet
28 564 m 0
 28 658 79 726 214 726 c 0
 349 726 399 658 399 564 c 0
 399 469 349 401 214 401 c 0
 79 401 28 469 28 564 c 0
154 564 m 0
 154 486 174 437 214 437 c 0
 254 437 273 486 273 564 c 0
 273 641 254 690 214 690 c 0
 174 690 154 641 154 564 c 0
EndSplineSet
EndChar

StartChar: guillemotright
Encoding: 187 187 123
Width: 487
GlyphClass: 2
Flags: MW
HStem: 37 427<64 64 64 264>
VStem: 118 129 318 129
LayerCount: 2
Fore
SplineSet
235 58 m 1
 314 232 l 2
 320 246 319 257 314 268 c 2
 235 443 l 1
 264 464 l 1
 438 270 l 2
 449 258 450 245 438 231 c 2
 264 37 l 1
 235 58 l 1
35 58 m 1
 114 232 l 2
 120 246 119 257 114 268 c 2
 35 443 l 1
 64 464 l 1
 238 270 l 2
 249 258 250 245 238 231 c 2
 64 37 l 1
 35 58 l 1
EndSplineSet
EndChar

StartChar: onequarter
Encoding: 188 188 124
Width: 900
GlyphClass: 2
Flags: MW
HStem: 0 27<573 796 573 573> 93 49<527 632 527 632 747 814> 272 27<77 77 77 330> 381 20<651 747 747 747> 630 26<79 79> 647 20<653 653> 660 20<255 255> 675 20<600 600>
VStem: 144 119<340 590 590 602> 243 410 632 115<61 93 49.5 93 142 311 311 311>
LayerCount: 2
Fore
SplineSet
456 119 m 1xd020
 520 221 587 319 651 401 c 1
 747 401 l 1
 747 142 l 1
 814 142 l 1
 814 93 l 1
 747 93 l 1
 747 61 l 2
 747 38 754 32 769 30 c 2
 796 27 l 1
 796 0 l 1
 573 0 l 1
 573 27 l 1
 610 31 l 2
 624 33 632 38 632 61 c 2
 632 93 l 1
 470 93 l 1
 456 119 l 1xd020
527 142 m 1
 632 142 l 1
 632 311 l 1
 630 311 l 1
 594 261 561 202 527 142 c 1
243 4 m 1x0540
 600 695 l 1
 653 667 l 1
 295 -27 l 1
 243 4 l 1x0540
77 272 m 1x2a80
 77 299 l 1
 115 304 l 2
 136 307 144 314 144 340 c 2
 144 590 l 2
 144 614 136 621 120 624 c 2
 79 630 l 1
 79 656 l 1
 255 680 l 1
 263 673 l 1
 263 340 l 2
 263 314 271 307 292 304 c 2
 330 299 l 1
 330 272 l 1
 77 272 l 1x2a80
EndSplineSet
EndChar

StartChar: onehalf
Encoding: 189 189 125
Width: 900
GlyphClass: 2
Flags: MW
HStem: 0 82<605 773 773 784 605 818> 272 27<57 57 57 310> 370 38<656.5 679> 630 26<59 59> 647 20<628 628> 660 20<235 235> 675 20<575 575>
VStem: 124 119<340 590 590 602> 218 410 702 126<289.5 326.5>
LayerCount: 2
Fore
SplineSet
218 4 m 1x0a80
 575 695 l 1
 628 667 l 1
 270 -27 l 1
 218 4 l 1x0a80
57 272 m 1x55
 57 299 l 1
 95 304 l 2
 116 307 124 314 124 340 c 2
 124 590 l 2
 124 614 116 621 100 624 c 2
 59 630 l 1
 59 656 l 1
 235 680 l 1
 243 673 l 1
 243 340 l 2
 243 314 251 307 272 304 c 2
 310 299 l 1
 310 272 l 1
 57 272 l 1x55
496 10 m 1xa040
 499 68 551 121 621 174 c 0
 688 225 702 270 702 309 c 0
 702 344 690 370 668 370 c 0
 645 370 631 344 619 292 c 0
 613 267 600 256 576 256 c 0
 550 256 510 273 510 309 c 0
 510 360 572 408 669 408 c 0
 763 408 828 371 828 289 c 0
 828 217 773 185 718 162 c 0
 663 140 619 114 605 82 c 1
 773 82 l 2
 795 82 805 86 821 113 c 1
 849 105 l 1
 818 0 l 1
 507 0 l 1
 496 10 l 1xa040
EndSplineSet
EndChar

StartChar: threequarters
Encoding: 190 190 126
Width: 900
GlyphClass: 2
Flags: MW
HStem: 0 27<601 824 601 601> 93 49<555 660 555 660 775 842> 265 38<187.5 211.5 187.5 262.5> 381 20<679 775 775 775> 454 62<118.5 133> 466 38<180 202.5> 642 38<185 208> 647 20<677 677> 675 20<624 624>
VStem: 35 104 45 104 231 125<569.5 597.5> 245 128<359 412.5 353 421.5> 267 410 660 115<61 93 49.5 93 142 311 311 311>
LayerCount: 2
Fore
SplineSet
484 119 m 1xd002
 548 221 615 319 679 401 c 1
 775 401 l 1
 775 142 l 1
 842 142 l 1
 842 93 l 1
 775 93 l 1
 775 61 l 2
 775 38 782 32 797 30 c 2
 824 27 l 1
 824 0 l 1
 601 0 l 1
 601 27 l 1
 638 31 l 2
 652 33 660 38 660 61 c 2
 660 93 l 1
 498 93 l 1
 484 119 l 1xd002
555 142 m 1
 660 142 l 1
 660 311 l 1
 658 311 l 1
 622 261 589 202 555 142 c 1
267 4 m 1x0184
 624 695 l 1
 677 667 l 1
 319 -27 l 1
 267 4 l 1x0184
35 350 m 0x2648
 35 386 72 410 98 410 c 0
 121 410 133 396 139 377 c 0
 158 323 178 303 197 303 c 0
 226 303 245 332 245 386 c 0
 245 457 214 466 191 466 c 0x2648
 168 466 140 454 126 454 c 0
 111 454 104 466 104 484 c 0
 104 504 111 516 126 516 c 0x2a48
 140 516 169 504 191 504 c 0
 230 504 231 557 231 582 c 0
 231 613 221 642 195 642 c 0
 175 642 161 619 149 578 c 0
 143 557 132 546 108 546 c 0
 84 546 47 560 45 593 c 1
 46 639 101 680 203 680 c 0
 276 680 356 656 356 578 c 0x2630
 356 524 311 498 269 490 c 1
 269 487 l 1
 325 479 373 441 373 384 c 0
 373 322 332 265 193 265 c 0
 119 265 35 294 35 350 c 0x2648
EndSplineSet
EndChar

StartChar: questiondown
Encoding: 191 191 127
Width: 456
GlyphClass: 2
Flags: MW
HStem: -217 46<218 244 218 297.5> 196 70<128.5 268> 316 186<196.5 251.5> 482 20G<196.5 251.5>
VStem: 23 167<-116.5 -66.5 -116.5 -33.5> 131 186<381.5 436.5> 202 168<145.5 158>
LayerCount: 2
Fore
SplineSet
23 -69 m 0xca
 23 2 86 33 128 55 c 0
 178 81 202 113 202 143 c 0
 202 173 178 196 139 196 c 0
 118 196 103 193 92 190 c 1
 81 217 l 1
 121 244 175 266 232 266 c 0
 304 266 370 232 370 160 c 0
 370 131 355 96 284 53 c 0
 219 13 190 -39 190 -94 c 0
 190 -139 205 -171 231 -171 c 0
 257 -171 277 -144 297 -61 c 0
 303 -36 319 -24 351 -24 c 0
 384 -24 436 -47 436 -92 c 0
 436 -142 368 -217 227 -217 c 0
 110 -217 23 -169 23 -69 c 0xca
131 409 m 0xe4
 131 464 169 502 224 502 c 0
 279 502 317 464 317 409 c 0
 317 354 279 316 224 316 c 0
 169 316 131 354 131 409 c 0xe4
EndSplineSet
EndChar

StartChar: Agrave
Encoding: 192 192 128
Width: 644
GlyphClass: 2
Flags: MW
HStem: 0 38<-28 -28 -28 206> 246 48<192 354 192 370 176 354> 672 20<262 388 388 388> 783 121<180 215>
VStem: 142 290<751 850>
AnchorPoint: "Anchor-3" 325 899 basechar 0
AnchorPoint: "Anchor-2" 318 0 basechar 0
LayerCount: 2
Fore
SplineSet
142 840 m 0
 142 860 164 904 196 904 c 0
 214 904 229 897 260 874 c 2
 432 751 l 1
 418 719 l 1
 215 783 l 2
 162 800 142 811 142 840 c 0
-28 0 m 1
 -28 38 l 1
 26 41 37 48 53 90 c 0
 77 151 110 252 146 355 c 2
 262 692 l 1
 388 692 l 1
 585 86 l 2
 598 45 611 39 663 38 c 1
 663 0 l 1
 347 0 l 1
 347 38 l 1
 405 44 l 2
 426 46 429 59 422 80 c 2
 370 246 l 1
 176 246 l 1
 158 187 140 133 128 79 c 0
 123 57 124 45 146 43 c 2
 206 38 l 1
 206 0 l 1
 -28 0 l 1
192 294 m 1
 354 294 l 1
 276 553 l 1
 273 553 l 1
 192 294 l 1
EndSplineSet
EndChar

StartChar: Aacute
Encoding: 193 193 129
Width: 644
GlyphClass: 2
Flags: MW
HStem: 0 38<-28 -28 -28 206> 246 48<192 354 192 370 176 354> 672 20<262 388 388 388> 783 121<432 467>
VStem: 215 290<751 850>
AnchorPoint: "Anchor-3" 325 899 basechar 0
AnchorPoint: "Anchor-2" 318 0 basechar 0
LayerCount: 2
Fore
SplineSet
215 751 m 1
 387 874 l 2
 418 897 433 904 451 904 c 0
 483 904 505 860 505 840 c 0
 505 811 485 800 432 783 c 2
 229 719 l 1
 215 751 l 1
-28 0 m 1
 -28 38 l 1
 26 41 37 48 53 90 c 0
 77 151 110 252 146 355 c 2
 262 692 l 1
 388 692 l 1
 585 86 l 2
 598 45 611 39 663 38 c 1
 663 0 l 1
 347 0 l 1
 347 38 l 1
 405 44 l 2
 426 46 429 59 422 80 c 2
 370 246 l 1
 176 246 l 1
 158 187 140 133 128 79 c 0
 123 57 124 45 146 43 c 2
 206 38 l 1
 206 0 l 1
 -28 0 l 1
192 294 m 1
 354 294 l 1
 276 553 l 1
 273 553 l 1
 192 294 l 1
EndSplineSet
EndChar

StartChar: Acircumflex
Encoding: 194 194 130
Width: 644
GlyphClass: 2
Flags: MW
HStem: 0 38<-28 -28 -28 206> 246 48<192 354 192 370 176 354> 672 20<262 388 388 388> 800 105<320 331>
VStem: 138 376<755 755>
AnchorPoint: "Anchor-3" 325 900 basechar 0
AnchorPoint: "Anchor-2" 318 0 basechar 0
LayerCount: 2
Fore
SplineSet
138 755 m 1
 280 881 l 2
 296 896 311 905 325 905 c 0
 340 905 358 895 372 882 c 2
 514 755 l 1
 496 725 l 1
 365 785 l 2
 352 792 337 800 325 800 c 0
 315 800 301 792 287 785 c 2
 157 725 l 1
 138 755 l 1
-28 0 m 1
 -28 38 l 1
 26 41 37 48 53 90 c 0
 77 151 110 252 146 355 c 2
 262 692 l 1
 388 692 l 1
 585 86 l 2
 598 45 611 39 663 38 c 1
 663 0 l 1
 347 0 l 1
 347 38 l 1
 405 44 l 2
 426 46 429 59 422 80 c 2
 370 246 l 1
 176 246 l 1
 158 187 140 133 128 79 c 0
 123 57 124 45 146 43 c 2
 206 38 l 1
 206 0 l 1
 -28 0 l 1
192 294 m 1
 354 294 l 1
 276 553 l 1
 273 553 l 1
 192 294 l 1
EndSplineSet
EndChar

StartChar: Atilde
Encoding: 195 195 131
Width: 644
GlyphClass: 2
Flags: MW
HStem: 0 38<-28 -28 -28 206> 246 48<192 354 192 370 176 354> 672 20<262 388 388 388> 736 85<419 445> 778 85<208 236> 856 20<507 507>
AnchorPoint: "Anchor-3" 325 871 basechar 0
AnchorPoint: "Anchor-2" 318 0 basechar 0
LayerCount: 2
Fore
SplineSet
114 741 m 1x08
 132 784 167 863 249 863 c 0x08
 277 863 309 853 341 842 c 1
 374 832 406 821 432 821 c 0
 469 821 485 837 507 876 c 1
 539 858 l 1
 521 815 486 736 404 736 c 0x14
 379 736 348 747 316 757 c 0
 284 768 251 778 221 778 c 0
 184 778 168 762 146 723 c 1
 114 741 l 1x08
-28 0 m 1xe0
 -28 38 l 1
 26 41 37 48 53 90 c 0
 77 151 110 252 146 355 c 2
 262 692 l 1
 388 692 l 1
 585 86 l 2
 598 45 611 39 663 38 c 1
 663 0 l 1
 347 0 l 1
 347 38 l 1
 405 44 l 2
 426 46 429 59 422 80 c 2
 370 246 l 1
 176 246 l 1
 158 187 140 133 128 79 c 0
 123 57 124 45 146 43 c 2
 206 38 l 1
 206 0 l 1
 -28 0 l 1xe0
192 294 m 1
 354 294 l 1
 276 553 l 1
 273 553 l 1
 192 294 l 1
EndSplineSet
EndChar

StartChar: Adieresis
Encoding: 196 196 132
Width: 644
GlyphClass: 2
Flags: MW
HStem: 0 38<-28 -28 -28 206> 246 48<192 354 192 370 176 354> 672 20<262 388 388 388> 731 150<170.5 221.5 422.5 473.5>
VStem: 117 158<787 825> 369 158<787 825>
AnchorPoint: "Anchor-3" 325 876 basechar 0
AnchorPoint: "Anchor-2" 318 0 basechar 0
LayerCount: 2
Fore
SplineSet
369 806 m 0
 369 844 397 881 448 881 c 0
 499 881 527 844 527 806 c 0
 527 768 499 731 448 731 c 0
 397 731 369 768 369 806 c 0
117 806 m 0
 117 844 145 881 196 881 c 0
 247 881 275 844 275 806 c 0
 275 768 247 731 196 731 c 0
 145 731 117 768 117 806 c 0
-28 0 m 1
 -28 38 l 1
 26 41 37 48 53 90 c 0
 77 151 110 252 146 355 c 2
 262 692 l 1
 388 692 l 1
 585 86 l 2
 598 45 611 39 663 38 c 1
 663 0 l 1
 347 0 l 1
 347 38 l 1
 405 44 l 2
 426 46 429 59 422 80 c 2
 370 246 l 1
 176 246 l 1
 158 187 140 133 128 79 c 0
 123 57 124 45 146 43 c 2
 206 38 l 1
 206 0 l 1
 -28 0 l 1
192 294 m 1
 354 294 l 1
 276 553 l 1
 273 553 l 1
 192 294 l 1
EndSplineSet
EndChar

StartChar: Aring
Encoding: 197 197 133
Width: 644
GlyphClass: 2
Flags: MW
HStem: 0 38<-28 -28 -28 206> 246 48<192 354 192 370 176 354> 831 41<308.5 337>
VStem: 204 67<738 784 738 802> 375 67<738 784>
LayerCount: 2
Fore
SplineSet
-28 0 m 1
 -28 38 l 1
 26 41 37 48 53 90 c 0
 77 151 110 252 146 355 c 2
 254 667 l 1
 224 683 204 713 204 761 c 0
 204 843 264 872 323 872 c 0
 382 872 442 843 442 761 c 0
 442 714 423 684 395 668 c 1
 585 86 l 2
 598 45 611 39 663 38 c 1
 663 0 l 1
 347 0 l 1
 347 38 l 1
 405 44 l 2
 426 46 429 59 422 80 c 2
 370 246 l 1
 176 246 l 1
 158 187 140 133 128 79 c 0
 123 57 124 45 146 43 c 2
 206 38 l 1
 206 0 l 1
 -28 0 l 1
192 294 m 1
 354 294 l 1
 276 553 l 1
 273 553 l 1
 192 294 l 1
271 761 m 0
 271 715 294 691 323 691 c 0
 351 691 375 715 375 761 c 0
 375 807 351 831 323 831 c 0
 294 831 271 807 271 761 c 0
EndSplineSet
EndChar

StartChar: AE
Encoding: 198 198 134
Width: 879
GlyphClass: 2
Flags: MW
HStem: 0 38<-77 -77 -77 176> 0 46<599 704 599 842> 337 52<230 366 230 366 205 366 522 617> 646 46<543 557 557 632> 654 38<199 822>
VStem: 366 156<97 119 119 337 389 610> 709 38<247 479 247 479> 784 38<507 692>
AnchorPoint: "Anchor-3" 460 707 basechar 0
AnchorPoint: "Anchor-2" 388 0 basechar 0
LayerCount: 2
Fore
SplineSet
-77 0 m 1xa7
 -77 38 l 1
 -19 40 -6 52 16 94 c 0
 86 226 226 509 272 605 c 0
 285 632 283 645 263 647 c 2
 199 654 l 1
 199 692 l 1
 822 692 l 1xaf
 822 507 l 1
 784 507 l 1
 753 606 735 646 632 646 c 2
 557 646 l 2
 529 646 522 639 522 610 c 2
 522 389 l 1
 617 389 l 2
 680 389 693 406 709 479 c 1
 747 479 l 1
 747 247 l 1
 709 247 l 1
 693 320 680 337 617 337 c 2
 522 337 l 1
 522 119 l 2
 522 55 553 46 645 46 c 0x77
 763 46 780 101 816 208 c 1
 854 208 l 1
 842 0 l 1
 287 0 l 1
 287 38 l 1
 358 41 366 46 366 97 c 2
 366 337 l 1
 205 337 l 1
 150 217 115 136 94 83 c 0
 84 59 88 46 112 44 c 2
 176 38 l 1
 176 0 l 1
 -77 0 l 1xa7
230 389 m 1
 366 389 l 1
 366 640 l 1
 356 640 l 1
 314 562 270 472 230 389 c 1
EndSplineSet
EndChar

StartChar: Ccedilla
Encoding: 199 199 135
Width: 689
GlyphClass: 2
Flags: MW
HStem: -243 33<296 325> -14 45<373 373 432 432> 661 46<352.5 448 352.5 478>
VStem: 42 177<298.5 389> 394 109<-171.5 -130> 600 38<484 663>
AnchorPoint: "Anchor-3" 423 707 basechar 0
LayerCount: 2
Fore
SplineSet
42 339 m 0
 42 439 67 534 128 602 c 0
 187 668 282 707 423 707 c 0
 473 707 578 699 638 663 c 1
 638 484 l 1
 600 484 l 1
 577 556 542 661 414 661 c 0
 233 661 219 428 219 355 c 0
 219 242 244 31 422 31 c 0
 535 31 578 118 616 228 c 1
 654 228 l 1
 642 33 l 1
 588 1 499 -12 432 -14 c 1
 404 -55 l 1
 433 -60 503 -77 503 -140 c 0
 503 -234 395 -246 346 -246 c 0
 326 -246 314 -245 296 -243 c 1
 296 -210 l 1
 354 -210 394 -194 394 -149 c 0
 394 -111 348 -101 329 -99 c 1
 325 -91 l 1
 373 -14 l 1
 141 -1 42 135 42 339 c 0
EndSplineSet
EndChar

StartChar: Egrave
Encoding: 200 200 136
Width: 629
GlyphClass: 2
Flags: MW
HStem: 0 38<33 33 33 592> 0 46<349 454 349 592> 337 52<272 367 272 367> 646 46<293 307 307 382> 654 38<33 572> 783 121<170 205>
VStem: 112 160<97 119 119 337 389 595 595 610> 132 290<751 850> 459 38<247 479 247 479> 534 38<507 692> 566 38<208 208>
AnchorPoint: "Anchor-3" 318 899 basechar 0
AnchorPoint: "Anchor-2" 318 0 basechar 0
LayerCount: 2
Fore
SplineSet
132 840 m 0x05
 132 860 154 904 186 904 c 0
 204 904 219 897 250 874 c 2
 422 751 l 1
 408 719 l 1
 205 783 l 2
 152 800 132 811 132 840 c 0x05
33 0 m 1xa2a0
 33 38 l 1
 104 41 112 46 112 97 c 2
 112 595 l 2
 112 646 104 651 33 654 c 1
 33 692 l 1
 572 692 l 1xaac0
 572 507 l 1
 534 507 l 1
 503 606 485 646 382 646 c 2
 307 646 l 2
 279 646 272 639 272 610 c 2
 272 389 l 1
 367 389 l 2
 430 389 443 406 459 479 c 1
 497 479 l 1
 497 247 l 1
 459 247 l 1
 443 320 430 337 367 337 c 2
 272 337 l 1
 272 119 l 2
 272 55 303 46 395 46 c 0x72c0
 513 46 530 101 566 208 c 1
 604 208 l 1
 592 0 l 1
 33 0 l 1xa2a0
EndSplineSet
EndChar

StartChar: Eacute
Encoding: 201 201 137
Width: 629
GlyphClass: 2
Flags: MW
HStem: 0 38<33 33 33 592> 0 46<349 454 349 592> 337 52<272 367 272 367> 646 46<293 307 307 382> 654 38<33 572> 783 121<452 487>
VStem: 112 160<97 119 119 337 389 595 595 610> 235 290<751 850> 459 38<247 479 247 479> 534 38<507 692> 566 38<208 208>
AnchorPoint: "Anchor-3" 318 899 basechar 0
AnchorPoint: "Anchor-2" 318 0 basechar 0
LayerCount: 2
Fore
SplineSet
235 751 m 1x05
 407 874 l 2
 438 897 453 904 471 904 c 0
 503 904 525 860 525 840 c 0
 525 811 505 800 452 783 c 2
 249 719 l 1
 235 751 l 1x05
33 0 m 1xa2a0
 33 38 l 1
 104 41 112 46 112 97 c 2
 112 595 l 2
 112 646 104 651 33 654 c 1
 33 692 l 1
 572 692 l 1xaac0
 572 507 l 1
 534 507 l 1
 503 606 485 646 382 646 c 2
 307 646 l 2
 279 646 272 639 272 610 c 2
 272 389 l 1
 367 389 l 2
 430 389 443 406 459 479 c 1
 497 479 l 1
 497 247 l 1
 459 247 l 1
 443 320 430 337 367 337 c 2
 272 337 l 1
 272 119 l 2
 272 55 303 46 395 46 c 0x72c0
 513 46 530 101 566 208 c 1
 604 208 l 1
 592 0 l 1
 33 0 l 1xa2a0
EndSplineSet
EndChar

StartChar: Ecircumflex
Encoding: 202 202 138
Width: 629
GlyphClass: 2
Flags: MW
HStem: 0 38<33 33 33 592> 0 46<349 454 349 592> 337 52<272 367 272 367> 646 46<293 307 307 382> 654 38<33 572> 800 105<334 345>
VStem: 112 160<97 119 119 337 389 595 595 610> 152 376<755 755> 459 38<247 479 247 479> 534 38<507 692> 566 38<208 208>
AnchorPoint: "Anchor-3" 318 900 basechar 0
AnchorPoint: "Anchor-2" 318 0 basechar 0
LayerCount: 2
Fore
SplineSet
152 755 m 1x05
 294 881 l 2
 310 896 325 905 339 905 c 0
 354 905 372 895 386 882 c 2
 528 755 l 1
 510 725 l 1
 379 785 l 2
 366 792 351 800 339 800 c 0
 329 800 315 792 301 785 c 2
 171 725 l 1
 152 755 l 1x05
33 0 m 1xa2a0
 33 38 l 1
 104 41 112 46 112 97 c 2
 112 595 l 2
 112 646 104 651 33 654 c 1
 33 692 l 1
 572 692 l 1xaac0
 572 507 l 1
 534 507 l 1
 503 606 485 646 382 646 c 2
 307 646 l 2
 279 646 272 639 272 610 c 2
 272 389 l 1
 367 389 l 2
 430 389 443 406 459 479 c 1
 497 479 l 1
 497 247 l 1
 459 247 l 1
 443 320 430 337 367 337 c 2
 272 337 l 1
 272 119 l 2
 272 55 303 46 395 46 c 0x72c0
 513 46 530 101 566 208 c 1
 604 208 l 1
 592 0 l 1
 33 0 l 1xa2a0
EndSplineSet
EndChar

StartChar: Edieresis
Encoding: 203 203 139
Width: 629
GlyphClass: 2
Flags: MW
HStem: 0 38<33 33 33 592> 0 46<349 454 349 592> 337 52<272 367 272 367> 646 46<293 307 307 382> 654 38<33 572> 731 150<179.5 230.5 431.5 482.5>
VStem: 112 160<97 119 119 337 389 595 595 610> 126 158<787 825> 378 158<787 825> 459 38<247 479 247 479> 534 38<507 692> 566 38<208 208>
AnchorPoint: "Anchor-3" 318 876 basechar 0
AnchorPoint: "Anchor-2" 318 0 basechar 0
LayerCount: 2
Fore
SplineSet
378 806 m 0x0580
 378 844 406 881 457 881 c 0
 508 881 536 844 536 806 c 0
 536 768 508 731 457 731 c 0
 406 731 378 768 378 806 c 0x0580
126 806 m 0
 126 844 154 881 205 881 c 0
 256 881 284 844 284 806 c 0
 284 768 256 731 205 731 c 0
 154 731 126 768 126 806 c 0
33 0 m 1xa250
 33 38 l 1
 104 41 112 46 112 97 c 2
 112 595 l 2
 112 646 104 651 33 654 c 1
 33 692 l 1
 572 692 l 1xaa60
 572 507 l 1
 534 507 l 1
 503 606 485 646 382 646 c 2
 307 646 l 2
 279 646 272 639 272 610 c 2
 272 389 l 1
 367 389 l 2
 430 389 443 406 459 479 c 1
 497 479 l 1
 497 247 l 1
 459 247 l 1
 443 320 430 337 367 337 c 2
 272 337 l 1
 272 119 l 2
 272 55 303 46 395 46 c 0x7260
 513 46 530 101 566 208 c 1
 604 208 l 1
 592 0 l 1
 33 0 l 1xa250
EndSplineSet
EndChar

StartChar: Igrave
Encoding: 204 204 140
Width: 384
GlyphClass: 2
Flags: MW
HStem: 0 38<33 33 33 351> 654 38<33 351 33 351>
VStem: 112 160<97 595>
AnchorPoint: "Anchor-3" 192 899 basechar 0
AnchorPoint: "Anchor-2" 192 0 basechar 0
LayerCount: 2
Fore
SplineSet
9 840 m 0
 9 860 31 904 63 904 c 0
 81 904 96 897 127 874 c 2
 299 751 l 1
 285 719 l 1
 82 783 l 2
 29 800 9 811 9 840 c 0
33 0 m 1
 33 38 l 1
 104 41 112 46 112 97 c 2
 112 595 l 2
 112 646 104 651 33 654 c 1
 33 692 l 1
 351 692 l 1
 351 654 l 1
 280 651 272 646 272 595 c 2
 272 97 l 2
 272 46 280 41 351 38 c 1
 351 0 l 1
 33 0 l 1
EndSplineSet
EndChar

StartChar: Iacute
Encoding: 205 205 141
Width: 384
GlyphClass: 2
Flags: MW
HStem: 0 38<33 33 33 351> 654 38<33 351 33 351>
VStem: 112 160<97 595>
AnchorPoint: "Anchor-3" 192 899 basechar 0
AnchorPoint: "Anchor-2" 192 0 basechar 0
LayerCount: 2
Fore
SplineSet
83 751 m 1
 255 874 l 2
 286 897 301 904 319 904 c 0
 351 904 373 860 373 840 c 0
 373 811 353 800 300 783 c 2
 97 719 l 1
 83 751 l 1
33 0 m 1
 33 38 l 1
 104 41 112 46 112 97 c 2
 112 595 l 2
 112 646 104 651 33 654 c 1
 33 692 l 1
 351 692 l 1
 351 654 l 1
 280 651 272 646 272 595 c 2
 272 97 l 2
 272 46 280 41 351 38 c 1
 351 0 l 1
 33 0 l 1
EndSplineSet
EndChar

StartChar: Icircumflex
Encoding: 206 206 142
Width: 384
GlyphClass: 2
Flags: MW
HStem: 0 38<33 33 33 351> 654 38<33 351 33 351> 800 105<186 197>
VStem: 112 160<97 595>
AnchorPoint: "Anchor-3" 192 900 basechar 0
AnchorPoint: "Anchor-2" 192 0 basechar 0
LayerCount: 2
Fore
SplineSet
4 755 m 1
 146 881 l 2
 162 896 177 905 191 905 c 0
 206 905 224 895 238 882 c 2
 380 755 l 1
 362 725 l 1
 231 785 l 2
 218 792 203 800 191 800 c 0
 181 800 167 792 153 785 c 2
 23 725 l 1
 4 755 l 1
33 0 m 1
 33 38 l 1
 104 41 112 46 112 97 c 2
 112 595 l 2
 112 646 104 651 33 654 c 1
 33 692 l 1
 351 692 l 1
 351 654 l 1
 280 651 272 646 272 595 c 2
 272 97 l 2
 272 46 280 41 351 38 c 1
 351 0 l 1
 33 0 l 1
EndSplineSet
EndChar

StartChar: Idieresis
Encoding: 207 207 143
Width: 384
GlyphClass: 2
Flags: MW
HStem: 0 38<33 33 33 351> 654 38<33 351 33 351> 731 150<40.5 91.5 292.5 343.5>
VStem: -13 158<787 825> 112 160<97 595> 239 158<787 825>
AnchorPoint: "Anchor-3" 192 876 basechar 0
AnchorPoint: "Anchor-2" 192 0 basechar 0
LayerCount: 2
Fore
SplineSet
239 806 m 0x34
 239 844 267 881 318 881 c 0
 369 881 397 844 397 806 c 0
 397 768 369 731 318 731 c 0
 267 731 239 768 239 806 c 0x34
-13 806 m 0
 -13 844 15 881 66 881 c 0
 117 881 145 844 145 806 c 0
 145 768 117 731 66 731 c 0
 15 731 -13 768 -13 806 c 0
33 0 m 1xc8
 33 38 l 1
 104 41 112 46 112 97 c 2
 112 595 l 2
 112 646 104 651 33 654 c 1
 33 692 l 1
 351 692 l 1
 351 654 l 1
 280 651 272 646 272 595 c 2
 272 97 l 2
 272 46 280 41 351 38 c 1
 351 0 l 1
 33 0 l 1xc8
EndSplineSet
EndChar

StartChar: Eth
Encoding: 208 208 144
Width: 783
GlyphClass: 2
Flags: MW
HStem: 0 38<39 338 39 39> 0 46<326.5 338> 341 48<35 118 35 118 278 420> 646 46<329.5 382 39 428> 654 38<39 382>
VStem: 118 160<97 341 389 595 595 618> 564 177<220 409 187 447.5>
LayerCount: 2
Fore
SplineSet
35 341 m 1xa6
 35 389 l 1
 118 389 l 1
 118 595 l 2
 118 646 110 651 39 654 c 1
 39 692 l 1xae
 382 692 l 1
 512 691 596 663 654 606 c 0
 712 549 741 465 741 353 c 0
 741 21 494 0 338 0 c 2x76
 39 0 l 1
 39 38 l 1
 110 41 118 46 118 97 c 2
 118 341 l 1
 35 341 l 1xa6
278 90 m 2
 278 58 295 46 358 46 c 0
 456 46 564 89 564 351 c 0
 564 544 495 646 361 646 c 0x76
 298 646 278 641 278 618 c 2
 278 389 l 1
 420 389 l 1
 420 341 l 1
 278 341 l 1
 278 90 l 2
EndSplineSet
EndChar

StartChar: Ntilde
Encoding: 209 209 145
Width: 739
GlyphClass: 2
Flags: MW
HStem: 0 38<28 28 28 269> 654 38<25 262> 736 85<476 502> 778 85<265 293> 856 20<564 564>
VStem: 104 62<252 558> 581 62<216 440 0 481>
LayerCount: 2
Fore
SplineSet
171 741 m 1x10
 189 784 224 863 306 863 c 0x10
 334 863 366 853 398 842 c 1
 431 832 463 821 489 821 c 0
 526 821 542 837 564 876 c 1
 596 858 l 1
 578 815 543 736 461 736 c 0x28
 436 736 405 747 373 757 c 0
 341 768 308 778 278 778 c 0
 241 778 225 762 203 723 c 1
 171 741 l 1x10
28 0 m 1xc6
 28 38 l 1
 63 43 l 2
 86 46 96 61 99 96 c 0
 103 131 104 170 104 252 c 2
 104 595 l 2
 104 646 96 651 25 654 c 1
 25 692 l 1
 262 692 l 1
 365 533 471 375 577 216 c 1
 581 216 l 1
 581 440 l 2
 581 522 580 560 576 596 c 0
 573 631 562 647 534 649 c 2
 478 654 l 1
 478 692 l 1
 719 692 l 1
 719 654 l 1
 684 649 l 2
 661 646 651 631 648 596 c 0
 644 561 643 522 643 440 c 2
 643 0 l 1
 533 0 l 1
 414 186 293 372 170 558 c 1
 166 558 l 1
 166 252 l 2
 166 170 167 132 171 96 c 0
 174 61 185 45 213 43 c 2
 269 38 l 1
 269 0 l 1
 28 0 l 1xc6
EndSplineSet
EndChar

StartChar: Ograve
Encoding: 210 210 146
Width: 768
GlyphClass: 2
Flags: MW
HStem: -15 46<311.5 457.5 311.5 499> 661 46<310.5 457.5>
VStem: 42 177<285.5 406.5 285.5 459> 549 177<285.5 406.5>
AnchorPoint: "Anchor-3" 384 884 basechar 0
AnchorPoint: "Anchor-2" 384 0 basechar 0
LayerCount: 2
Fore
SplineSet
199 840 m 0
 199 860 221 904 253 904 c 0
 271 904 286 897 317 874 c 2
 489 751 l 1
 475 719 l 1
 272 783 l 2
 219 800 199 811 199 840 c 0
42 346 m 0
 42 572 154 707 384 707 c 0
 614 707 726 572 726 346 c 0
 726 120 614 -15 384 -15 c 0
 154 -15 42 120 42 346 c 0
219 346 m 0
 219 225 239 31 384 31 c 0
 531 31 549 225 549 346 c 0
 549 467 531 661 384 661 c 0
 237 661 219 467 219 346 c 0
EndSplineSet
EndChar

StartChar: Oacute
Encoding: 211 211 147
Width: 768
GlyphClass: 2
Flags: MW
HStem: -15 46<311.5 457.5 311.5 499> 661 46<310.5 457.5>
VStem: 42 177<285.5 406.5 285.5 459> 549 177<285.5 406.5>
AnchorPoint: "Anchor-3" 384 884 basechar 0
AnchorPoint: "Anchor-2" 384 0 basechar 0
LayerCount: 2
Fore
SplineSet
277 751 m 1
 449 874 l 2
 480 897 495 904 513 904 c 0
 545 904 567 860 567 840 c 0
 567 811 547 800 494 783 c 2
 291 719 l 1
 277 751 l 1
42 346 m 0
 42 572 154 707 384 707 c 0
 614 707 726 572 726 346 c 0
 726 120 614 -15 384 -15 c 0
 154 -15 42 120 42 346 c 0
219 346 m 0
 219 225 239 31 384 31 c 0
 531 31 549 225 549 346 c 0
 549 467 531 661 384 661 c 0
 237 661 219 467 219 346 c 0
EndSplineSet
EndChar

StartChar: Ocircumflex
Encoding: 212 212 148
Width: 768
GlyphClass: 2
Flags: MW
HStem: -15 46<311.5 457.5 311.5 499> 661 46<310.5 457.5> 800 105<378 389>
VStem: 42 177<285.5 406.5 285.5 459> 549 177<285.5 406.5>
AnchorPoint: "Anchor-3" 384 885 basechar 0
AnchorPoint: "Anchor-2" 384 0 basechar 0
LayerCount: 2
Fore
SplineSet
196 755 m 1
 338 881 l 2
 354 896 369 905 383 905 c 0
 398 905 416 895 430 882 c 2
 572 755 l 1
 554 725 l 1
 423 785 l 2
 410 792 395 800 383 800 c 0
 373 800 359 792 345 785 c 2
 215 725 l 1
 196 755 l 1
42 346 m 0
 42 572 154 707 384 707 c 0
 614 707 726 572 726 346 c 0
 726 120 614 -15 384 -15 c 0
 154 -15 42 120 42 346 c 0
219 346 m 0
 219 225 239 31 384 31 c 0
 531 31 549 225 549 346 c 0
 549 467 531 661 384 661 c 0
 237 661 219 467 219 346 c 0
EndSplineSet
EndChar

StartChar: Otilde
Encoding: 213 213 149
Width: 768
GlyphClass: 2
Flags: MW
HStem: -15 46<311.5 457.5 311.5 499> 661 46<310.5 457.5> 736 85<476 502> 778 85<265 293> 856 20<564 564>
VStem: 42 177<285.5 406.5 285.5 459> 549 177<285.5 406.5>
AnchorPoint: "Anchor-3" 384 856 basechar 0
AnchorPoint: "Anchor-2" 384 0 basechar 0
LayerCount: 2
Fore
SplineSet
171 741 m 1x10
 189 784 224 863 306 863 c 0x10
 334 863 366 853 398 842 c 1
 431 832 463 821 489 821 c 0
 526 821 542 837 564 876 c 1
 596 858 l 1
 578 815 543 736 461 736 c 0x28
 436 736 405 747 373 757 c 0
 341 768 308 778 278 778 c 0
 241 778 225 762 203 723 c 1
 171 741 l 1x10
42 346 m 0xc6
 42 572 154 707 384 707 c 0
 614 707 726 572 726 346 c 0
 726 120 614 -15 384 -15 c 0
 154 -15 42 120 42 346 c 0xc6
219 346 m 0
 219 225 239 31 384 31 c 0
 531 31 549 225 549 346 c 0
 549 467 531 661 384 661 c 0
 237 661 219 467 219 346 c 0
EndSplineSet
EndChar

StartChar: Odieresis
Encoding: 214 214 150
Width: 768
GlyphClass: 2
Flags: MW
HStem: -15 46<311.5 457.5 311.5 499> 661 46<310.5 457.5> 731 150<232.5 283.5 484.5 535.5>
VStem: 42 177<285.5 406.5 285.5 459> 179 158<787 825> 431 158<787 825> 549 177<285.5 406.5>
AnchorPoint: "Anchor-3" 384 861 basechar 0
AnchorPoint: "Anchor-2" 384 0 basechar 0
LayerCount: 2
Fore
SplineSet
431 806 m 0x2c
 431 844 459 881 510 881 c 0
 561 881 589 844 589 806 c 0
 589 768 561 731 510 731 c 0
 459 731 431 768 431 806 c 0x2c
179 806 m 0
 179 844 207 881 258 881 c 0
 309 881 337 844 337 806 c 0
 337 768 309 731 258 731 c 0
 207 731 179 768 179 806 c 0
42 346 m 0xd2
 42 572 154 707 384 707 c 0
 614 707 726 572 726 346 c 0
 726 120 614 -15 384 -15 c 0
 154 -15 42 120 42 346 c 0xd2
219 346 m 0
 219 225 239 31 384 31 c 0
 531 31 549 225 549 346 c 0
 549 467 531 661 384 661 c 0
 237 661 219 467 219 346 c 0
EndSplineSet
EndChar

StartChar: multiply
Encoding: 215 215 151
Width: 600
GlyphClass: 2
Flags: MW
HStem: 20 456<133 133 133 466>
VStem: 75 450<81 81 81 413>
LayerCount: 2
Fore
SplineSet
75 81 m 1
 240 247 l 1
 75 413 l 1
 133 476 l 1
 300 308 l 1
 466 476 l 1
 525 413 l 1
 360 247 l 1
 525 81 l 1
 466 20 l 1
 300 187 l 1
 133 20 l 1
 75 81 l 1
EndSplineSet
EndChar

StartChar: Oslash
Encoding: 216 216 152
Width: 768
GlyphClass: 2
Flags: MW
HStem: -15 46<358 456.5 358 499> 661 46<311.5 409.5>
VStem: 42 177<346 346> 549 177<346 346>
LayerCount: 2
Fore
SplineSet
42 346 m 0
 42 572 154 707 384 707 c 0
 443 707 494 698 538 681 c 1
 575 747 l 1
 622 721 l 1
 586 657 l 1
 680 599 726 491 726 346 c 0
 726 120 614 -15 384 -15 c 0
 324 -15 271 -6 227 13 c 1
 186 -61 l 1
 142 -30 l 1
 179 37 l 1
 87 96 42 203 42 346 c 0
219 346 m 1
 220 283 224 211 243 152 c 1
 494 602 l 1
 470 638 435 661 384 661 c 0
 239 661 221 474 219 346 c 1
271 91 m 1
 296 54 332 31 384 31 c 0
 529 31 547 210 549 346 c 1
 548 407 543 482 523 543 c 1
 271 91 l 1
EndSplineSet
EndChar

StartChar: Ugrave
Encoding: 217 217 153
Width: 786
GlyphClass: 2
Flags: MW
HStem: -15 46<348 439 348 485.5> 654 38<29 341 29 341>
VStem: 105 160<225 595> 521 160<225 595 225 595 225 620.5>
AnchorPoint: "Anchor-3" 393 899 basechar 0
AnchorPoint: "Anchor-2" 393 0 basechar 0
LayerCount: 2
Fore
SplineSet
196 840 m 0
 196 860 218 904 250 904 c 0
 268 904 283 897 314 874 c 2
 486 751 l 1
 472 719 l 1
 269 783 l 2
 216 800 196 811 196 840 c 0
29 654 m 1
 29 692 l 1
 341 692 l 1
 341 654 l 1
 273 651 265 646 265 595 c 2
 265 211 l 2
 265 97 303 31 393 31 c 0
 485 31 521 97 521 211 c 2
 521 595 l 2
 521 646 513 651 445 654 c 1
 445 692 l 1
 757 692 l 1
 757 654 l 1
 689 651 681 646 681 595 c 2
 681 225 l 1
 679 52 578 -15 393 -15 c 0
 193 -15 105 52 105 225 c 2
 105 595 l 2
 105 646 97 651 29 654 c 1
EndSplineSet
EndChar

StartChar: Uacute
Encoding: 218 218 154
Width: 786
GlyphClass: 2
Flags: MW
HStem: -15 46<348 439 348 485.5> 654 38<29 341 29 341>
VStem: 105 160<225 595> 521 160<225 595 225 595 225 620.5>
AnchorPoint: "Anchor-3" 393 899 basechar 0
AnchorPoint: "Anchor-2" 393 0 basechar 0
LayerCount: 2
Fore
SplineSet
300 751 m 1
 472 874 l 2
 503 897 518 904 536 904 c 0
 568 904 590 860 590 840 c 0
 590 811 570 800 517 783 c 2
 314 719 l 1
 300 751 l 1
29 654 m 1
 29 692 l 1
 341 692 l 1
 341 654 l 1
 273 651 265 646 265 595 c 2
 265 211 l 2
 265 97 303 31 393 31 c 0
 485 31 521 97 521 211 c 2
 521 595 l 2
 521 646 513 651 445 654 c 1
 445 692 l 1
 757 692 l 1
 757 654 l 1
 689 651 681 646 681 595 c 2
 681 225 l 1
 679 52 578 -15 393 -15 c 0
 193 -15 105 52 105 225 c 2
 105 595 l 2
 105 646 97 651 29 654 c 1
EndSplineSet
EndChar

StartChar: Ucircumflex
Encoding: 219 219 155
Width: 786
GlyphClass: 2
Flags: MW
HStem: -15 46<348 439 348 485.5> 654 38<29 341 29 341> 800 105<387 398>
VStem: 105 160<225 595> 521 160<225 595 225 595 225 620.5>
AnchorPoint: "Anchor-3" 393 900 basechar 0
AnchorPoint: "Anchor-2" 393 0 basechar 0
LayerCount: 2
Fore
SplineSet
205 755 m 1
 347 881 l 2
 363 896 378 905 392 905 c 0
 407 905 425 895 439 882 c 2
 581 755 l 1
 563 725 l 1
 432 785 l 2
 419 792 404 800 392 800 c 0
 382 800 368 792 354 785 c 2
 224 725 l 1
 205 755 l 1
29 654 m 1
 29 692 l 1
 341 692 l 1
 341 654 l 1
 273 651 265 646 265 595 c 2
 265 211 l 2
 265 97 303 31 393 31 c 0
 485 31 521 97 521 211 c 2
 521 595 l 2
 521 646 513 651 445 654 c 1
 445 692 l 1
 757 692 l 1
 757 654 l 1
 689 651 681 646 681 595 c 2
 681 225 l 1
 679 52 578 -15 393 -15 c 0
 193 -15 105 52 105 225 c 2
 105 595 l 2
 105 646 97 651 29 654 c 1
EndSplineSet
EndChar

StartChar: Udieresis
Encoding: 220 220 156
Width: 786
GlyphClass: 2
Flags: MW
HStem: -15 46<348 439 348 485.5> 654 38<29 341 29 341> 731 150<241.5 292.5 493.5 544.5>
VStem: 105 160<225 595> 188 158<787 825> 440 158<787 825> 521 160<225 595 225 595 225 620.5>
AnchorPoint: "Anchor-3" 393 876 basechar 0
AnchorPoint: "Anchor-2" 393 0 basechar 0
LayerCount: 2
Fore
SplineSet
440 806 m 0x2c
 440 844 468 881 519 881 c 0
 570 881 598 844 598 806 c 0
 598 768 570 731 519 731 c 0
 468 731 440 768 440 806 c 0x2c
188 806 m 0
 188 844 216 881 267 881 c 0
 318 881 346 844 346 806 c 0
 346 768 318 731 267 731 c 0
 216 731 188 768 188 806 c 0
29 654 m 1xd2
 29 692 l 1
 341 692 l 1
 341 654 l 1
 273 651 265 646 265 595 c 2
 265 211 l 2
 265 97 303 31 393 31 c 0
 485 31 521 97 521 211 c 2
 521 595 l 2
 521 646 513 651 445 654 c 1
 445 692 l 1
 757 692 l 1
 757 654 l 1
 689 651 681 646 681 595 c 2
 681 225 l 1
 679 52 578 -15 393 -15 c 0
 193 -15 105 52 105 225 c 2
 105 595 l 2
 105 646 97 651 29 654 c 1xd2
EndSplineSet
EndChar

StartChar: Yacute
Encoding: 221 221 157
Width: 617
GlyphClass: 2
Flags: MW
HStem: 0 38<142 494 142 142> 651 41
VStem: 238 160<97 240 240 250 71.5 252.5> 486 169
AnchorPoint: "Anchor-3" 313 899 basechar 0
AnchorPoint: "Anchor-2" 313 0 basechar 0
LayerCount: 2
Fore
SplineSet
234 751 m 1
 406 874 l 2
 437 897 452 904 470 904 c 0
 502 904 524 860 524 840 c 0
 524 811 504 800 451 783 c 2
 248 719 l 1
 234 751 l 1
-12 654 m 1
 -12 692 l 1
 304 692 l 1
 304 654 l 1
 250 648 l 2
 228 645 229 631 236 615 c 2
 359 342 l 1
 362 342 l 1
 402 432 455 540 481 608 c 0
 491 634 485 646 466 648 c 2
 414 654 l 1
 414 692 l 1
 655 692 l 1
 655 654 l 1
 601 648 584 640 561 600 c 0
 514 518 463 416 416 321 c 0
 405 298 398 278 398 250 c 2
 398 97 l 2
 398 46 406 41 494 38 c 1
 494 0 l 1
 142 0 l 1
 142 38 l 1
 230 41 238 46 238 97 c 2
 238 240 l 2
 238 265 227 289 217 309 c 2
 72 597 l 2
 49 643 40 650 -12 654 c 1
EndSplineSet
EndChar

StartChar: Thorn
Encoding: 222 222 158
Width: 640
GlyphClass: 2
Flags: MW
HStem: 0 36<33 368> 176 46<309.5 312 272 376.5> 502 46<306.5 358 358 365.5> 654 38<33 350 33 350>
VStem: 112 160<97 176 243.5 258 258 464 548 595> 454 168<323.5 415>
LayerCount: 2
Fore
SplineSet
33 0 m 1
 33 38 l 1
 104 41 112 46 112 97 c 2
 112 595 l 2
 112 646 104 651 33 654 c 1
 33 692 l 1
 350 692 l 1
 350 654 l 1
 280 651 272 646 272 595 c 2
 272 548 l 1
 358 548 l 2
 517 548 622 502 622 363 c 0
 622 194 445 176 312 176 c 2
 272 176 l 1
 272 97 l 2
 272 46 280 41 368 36 c 1
 368 0 l 1
 33 0 l 1
272 258 m 2
 272 229 289 222 330 222 c 0
 423 222 454 284 454 363 c 0
 454 467 396 502 335 502 c 0
 278 502 272 491 272 464 c 2
 272 258 l 2
EndSplineSet
EndChar

StartChar: germandbls
Encoding: 223 223 159
Width: 662
GlyphClass: 2
Flags: MW
HStem: -12 46<467.5 488.5 467.5 521> 0 36<29 29 29 306> 696 46<313.5 371.5>
VStem: 92 151<85 490 490 511> 312 137<389.5 393.5> 435 141<565.5 604.5 560 611> 521 126<94.5 104.5>
LayerCount: 2
Fore
SplineSet
29 0 m 1x74
 29 36 l 1
 84 41 92 45 92 85 c 2
 92 490 l 2
 92 559 103 620 142 664 c 1
 181 710 253 742 342 742 c 0
 548 742 576 634 576 575 c 0x74
 576 545 570 522 550 500 c 1
 485 494 449 459 449 415 c 0
 449 364 505 327 526 312 c 0
 576 278 647 229 647 144 c 0
 647 45 580 -12 462 -12 c 0
 384 -12 328 17 328 57 c 0
 328 86 357 108 381 108 c 0
 396 108 404 99 411 88 c 0
 436 51 456 34 479 34 c 0
 498 34 521 47 521 84 c 0
 521 125 491 159 418 206 c 0
 343 254 312 310 312 363 c 0xba
 312 424 352 481 415 497 c 1
 433 523 435 554 435 577 c 0
 435 645 399 696 344 696 c 0
 283 696 243 631 243 511 c 2
 243 85 l 2
 243 45 251 41 306 36 c 1
 306 0 l 1
 29 0 l 1x74
EndSplineSet
EndChar

StartChar: agrave
Encoding: 224 224 160
Width: 544
GlyphClass: 2
Flags: MW
HStem: -12 78<141.5 282.5> 456 46<259 287.5>
VStem: 41 154<123.5 161.5> 331 147<134 279 279 279 329 362>
AnchorPoint: "Anchor-3" 291 720 basechar 0
AnchorPoint: "Anchor-2" 291 0 basechar 0
LayerCount: 2
Fore
SplineSet
41 133 m 0
 41 190 68 231 147 258 c 0
 212 280 296 305 331 329 c 1
 331 382 l 2
 331 439 302 456 273 456 c 0
 245 456 213 441 185 356 c 0
 177 332 166 316 144 316 c 0
 118 316 54 334 54 379 c 0
 54 444 144 502 291 502 c 0
 468 502 478 424 478 362 c 2
 478 131 l 2
 478 72 497 60 510 56 c 0
 525 51 545 50 558 51 c 1
 561 18 l 1
 528 5 465 -12 413 -12 c 0
 365 -12 348 15 335 46 c 1
 300 23 256 -12 192 -12 c 0
 91 -12 41 58 41 133 c 0
195 150 m 0
 195 97 230 66 269 66 c 0
 296 66 329 80 331 134 c 1
 331 279 l 1
 307 268 272 254 241 237 c 0
 211 220 195 197 195 150 c 0
102 680 m 0
 102 705 131 740 155 740 c 0
 175 740 192 728 229 690 c 2
 374 541 l 1
 353 511 l 1
 170 614 l 2
 134 634 102 654 102 680 c 0
EndSplineSet
EndChar

StartChar: aacute
Encoding: 225 225 161
Width: 544
GlyphClass: 2
Flags: MW
HStem: -12 78<141.5 282.5> 456 46<259 287.5>
VStem: 41 154<123.5 161.5> 331 147<134 279 279 279 329 362>
AnchorPoint: "Anchor-3" 291 720 basechar 0
AnchorPoint: "Anchor-2" 291 0 basechar 0
LayerCount: 2
Fore
SplineSet
196 541 m 1
 341 690 l 2
 378 728 395 740 415 740 c 0
 439 740 468 705 468 680 c 0
 468 654 436 634 400 614 c 2
 217 511 l 1
 196 541 l 1
41 133 m 0
 41 190 68 231 147 258 c 0
 212 280 296 305 331 329 c 1
 331 382 l 2
 331 439 302 456 273 456 c 0
 245 456 213 441 185 356 c 0
 177 332 166 316 144 316 c 0
 118 316 54 334 54 379 c 0
 54 444 144 502 291 502 c 0
 468 502 478 424 478 362 c 2
 478 131 l 2
 478 72 497 60 510 56 c 0
 525 51 545 50 558 51 c 1
 561 18 l 1
 528 5 465 -12 413 -12 c 0
 365 -12 348 15 335 46 c 1
 300 23 256 -12 192 -12 c 0
 91 -12 41 58 41 133 c 0
195 150 m 0
 195 97 230 66 269 66 c 0
 296 66 329 80 331 134 c 1
 331 279 l 1
 307 268 272 254 241 237 c 0
 211 220 195 197 195 150 c 0
EndSplineSet
EndChar

StartChar: acircumflex
Encoding: 226 226 162
Width: 544
GlyphClass: 2
Flags: MW
HStem: -12 78<141.5 282.5> 456 46<259 287.5>
VStem: 41 154<123.5 161.5> 331 147<134 279 279 279 329 362>
AnchorPoint: "Anchor-3" 291 727 basechar 0
AnchorPoint: "Anchor-2" 291 0 basechar 0
LayerCount: 2
Fore
SplineSet
91 547 m 1
 234 716 l 2
 249 734 264 747 278 747 c 0
 292 747 307 733 322 716 c 2
 465 547 l 1
 441 520 l 1
 316 614 l 2
 302 624 289 633 278 633 c 0
 268 633 254 624 240 614 c 2
 115 520 l 1
 91 547 l 1
41 133 m 0
 41 190 68 231 147 258 c 0
 212 280 296 305 331 329 c 1
 331 382 l 2
 331 439 302 456 273 456 c 0
 245 456 213 441 185 356 c 0
 177 332 166 316 144 316 c 0
 118 316 54 334 54 379 c 0
 54 444 144 502 291 502 c 0
 468 502 478 424 478 362 c 2
 478 131 l 2
 478 72 497 60 510 56 c 0
 525 51 545 50 558 51 c 1
 561 18 l 1
 528 5 465 -12 413 -12 c 0
 365 -12 348 15 335 46 c 1
 300 23 256 -12 192 -12 c 0
 91 -12 41 58 41 133 c 0
195 150 m 0
 195 97 230 66 269 66 c 0
 296 66 329 80 331 134 c 1
 331 279 l 1
 307 268 272 254 241 237 c 0
 211 220 195 197 195 150 c 0
EndSplineSet
EndChar

StartChar: atilde
Encoding: 227 227 163
Width: 544
GlyphClass: 2
Flags: MW
HStem: -12 78<141.5 282.5> 456 46<259 287.5> 566 85<370 396> 608 85<159 187> 686 20<458 458>
VStem: 41 154<123.5 161.5> 331 147<134 279 279 279 329 362>
AnchorPoint: "Anchor-3" 291 686 basechar 0
AnchorPoint: "Anchor-2" 291 0 basechar 0
LayerCount: 2
Fore
SplineSet
65 571 m 1x10
 83 614 118 693 200 693 c 0x10
 228 693 260 683 292 672 c 1
 325 662 357 651 383 651 c 0
 420 651 436 667 458 706 c 1
 490 688 l 1
 472 645 437 566 355 566 c 0x28
 330 566 299 577 267 587 c 0
 235 598 202 608 172 608 c 0
 135 608 119 592 97 553 c 1
 65 571 l 1x10
41 133 m 0xc6
 41 190 68 231 147 258 c 0
 212 280 296 305 331 329 c 1
 331 382 l 2
 331 439 302 456 273 456 c 0
 245 456 213 441 185 356 c 0
 177 332 166 316 144 316 c 0
 118 316 54 334 54 379 c 0
 54 444 144 502 291 502 c 0
 468 502 478 424 478 362 c 2
 478 131 l 2
 478 72 497 60 510 56 c 0
 525 51 545 50 558 51 c 1
 561 18 l 1
 528 5 465 -12 413 -12 c 0
 365 -12 348 15 335 46 c 1
 300 23 256 -12 192 -12 c 0
 91 -12 41 58 41 133 c 0xc6
195 150 m 0
 195 97 230 66 269 66 c 0
 296 66 329 80 331 134 c 1
 331 279 l 1
 307 268 272 254 241 237 c 0
 211 220 195 197 195 150 c 0
EndSplineSet
EndChar

StartChar: adieresis
Encoding: 228 228 164
Width: 544
GlyphClass: 2
Flags: MW
HStem: -12 78<141.5 282.5> 456 46<259 287.5> 561 149
VStem: 41 154<123.5 161.5> 81 158<616 654> 321 158<616 654> 331 147<134 279 279 279 329 362>
AnchorPoint: "Anchor-3" 291 690 basechar 0
AnchorPoint: "Anchor-2" 291 0 basechar 0
LayerCount: 2
Fore
SplineSet
321 635 m 0x2c
 321 673 349 710 400 710 c 0
 451 710 479 673 479 635 c 0
 479 597 451 560 400 560 c 0
 349 560 321 597 321 635 c 0x2c
81 635 m 0
 81 673 109 710 160 710 c 0
 211 710 239 673 239 635 c 0
 239 597 211 560 160 560 c 0
 109 560 81 597 81 635 c 0
41 133 m 0xd2
 41 190 68 231 147 258 c 0
 212 280 296 305 331 329 c 1
 331 382 l 2
 331 439 302 456 273 456 c 0
 245 456 213 441 185 356 c 0
 177 332 166 316 144 316 c 0
 118 316 54 334 54 379 c 0
 54 444 144 502 291 502 c 0
 468 502 478 424 478 362 c 2
 478 131 l 2
 478 72 497 60 510 56 c 0
 525 51 545 50 558 51 c 1
 561 18 l 1
 528 5 465 -12 413 -12 c 0
 365 -12 348 15 335 46 c 1
 300 23 256 -12 192 -12 c 0
 91 -12 41 58 41 133 c 0xd2
195 150 m 0
 195 97 230 66 269 66 c 0
 296 66 329 80 331 134 c 1
 331 279 l 1
 307 268 272 254 241 237 c 0
 211 220 195 197 195 150 c 0
EndSplineSet
EndChar

StartChar: aring
Encoding: 229 229 165
Width: 544
GlyphClass: 2
Flags: MW
HStem: -12 78<141.5 282.5> 456 46<259 287.5> 540 41<257.5 286 257.5 301.5> 721 41<257.5 286>
VStem: 41 154<123.5 161.5> 153 67<628 674 628 692> 324 67<628 674> 331 147<134 279 279 279 329 362>
LayerCount: 2
Fore
SplineSet
153 651 m 0x36
 153 733 213 762 272 762 c 0
 331 762 391 733 391 651 c 0
 391 568 331 540 272 540 c 0
 213 540 153 568 153 651 c 0x36
220 651 m 0
 220 605 243 581 272 581 c 0
 300 581 324 605 324 651 c 0
 324 697 300 721 272 721 c 0
 243 721 220 697 220 651 c 0
41 133 m 0xc9
 41 190 68 231 147 258 c 0
 212 280 296 305 331 329 c 1
 331 382 l 2
 331 439 302 456 273 456 c 0
 245 456 213 441 185 356 c 0
 177 332 166 316 144 316 c 0
 118 316 54 334 54 379 c 0
 54 444 144 502 291 502 c 0
 468 502 478 424 478 362 c 2
 478 131 l 2
 478 72 497 60 510 56 c 0
 525 51 545 50 558 51 c 1
 561 18 l 1
 528 5 465 -12 413 -12 c 0
 365 -12 348 15 335 46 c 1
 300 23 256 -12 192 -12 c 0
 91 -12 41 58 41 133 c 0xc9
195 150 m 0
 195 97 230 66 269 66 c 0
 296 66 329 80 331 134 c 1
 331 279 l 1
 307 268 272 254 241 237 c 0
 211 220 195 197 195 150 c 0
EndSplineSet
EndChar

StartChar: ae
Encoding: 230 230 166
Width: 806
GlyphClass: 2
Flags: MW
HStem: -12 77<565 623.5> 252 48<478 604 604 615.5 478 738 478 604> 456 46<259 287.5 547.5 594.5>
VStem: 41 154<123.5 161.5> 331 147<199.5 252 199.5 279 199.5 279 329 337 199.5 382 199.5 410.5> 635 157<319.5 321.5 278 356.5>
AnchorPoint: "Anchor-3" 422 502 basechar 0
AnchorPoint: "Anchor-2" 416 0 basechar 0
LayerCount: 2
Fore
SplineSet
41 133 m 0
 41 190 68 231 146 259 c 0
 212 283 287 305 331 329 c 1
 331 382 l 2
 331 439 302 456 273 456 c 0
 245 456 213 441 185 356 c 0
 177 332 166 316 144 316 c 0
 118 316 54 334 54 379 c 0
 54 444 144 502 285 502 c 0
 354 502 397 480 423 444 c 1
 464 479 518 502 577 502 c 0
 779 502 792 349 792 294 c 0
 792 262 774 252 738 252 c 2
 478 252 l 1
 478 147 510 65 613 65 c 0
 674 65 717 97 747 154 c 1
 783 134 l 1
 749 46 682 -12 565 -12 c 1
 475 -13 417 21 382 75 c 1
 335 45 l 2
 302 23 256 -12 192 -12 c 0
 90 -12 41 58 41 133 c 0
195 150 m 0
 195 97 230 66 269 66 c 0
 296 66 329 80 331 134 c 1
 331 279 l 1
 307 268 272 254 241 237 c 0
 211 220 195 197 195 150 c 0
478 300 m 1
 604 300 l 2
 627 300 635 306 635 333 c 0
 635 380 625 456 564 456 c 0
 497 456 478 374 478 300 c 1
EndSplineSet
EndChar

StartChar: ccedilla
Encoding: 231 231 167
Width: 494
GlyphClass: 2
Flags: MW
HStem: -246 35<169 240.5> 456 46<257 295.5>
VStem: 34 159<187 284.5> 263 105<-174.5 -132> 347 131 449 35<140 156>
AnchorPoint: "Anchor-3" 287 502 basechar 0
LayerCount: 2
Fore
SplineSet
34 241 m 0xf4
 34 328 60 393 102 435 c 0
 147 480 209 502 287 502 c 0
 378 502 478 463 478 392 c 0
 478 348 430 330 395 330 c 0
 369 330 354 342 347 365 c 0xe8
 330 425 313 456 278 456 c 0
 236 456 193 399 193 265 c 0
 193 109 256 65 321 65 c 0
 376 65 415 88 449 156 c 1
 484 140 l 1
 450 32 374 -3 301 -10 c 1
 269 -58 l 1
 300 -62 368 -79 368 -144 c 0
 368 -234 264 -246 217 -246 c 0
 198 -246 186 -245 169 -243 c 1
 169 -211 l 1
 225 -211 263 -196 263 -153 c 0
 263 -111 219 -102 197 -100 c 1
 193 -92 l 1
 244 -10 l 1
 117 -2 34 83 34 241 c 0xf4
EndSplineSet
EndChar

StartChar: egrave
Encoding: 232 232 168
Width: 519
GlyphClass: 2
Flags: MW
HStem: -12 77<277 338.5> 252 48<193 317 317 328.5 193 451 193 317> 456 46<244.5 307.5>
VStem: 34 159<199.5 252 300 315> 348 157<319.5 335 278 356.5>
AnchorPoint: "Anchor-3" 280 720 basechar 0
AnchorPoint: "Anchor-2" 279 0 basechar 0
LayerCount: 2
Fore
SplineSet
34 245 m 0
 34 385 101 502 281 502 c 0
 474 502 505 376 505 294 c 0
 505 262 487 252 451 252 c 2
 193 252 l 1
 193 147 227 65 327 65 c 0
 388 65 431 97 461 154 c 1
 497 134 l 1
 463 46 398 -12 279 -12 c 0
 93 -12 34 109 34 245 c 0
193 300 m 1
 317 300 l 2
 340 300 348 306 348 333 c 0
 348 380 338 456 277 456 c 0
 212 456 193 372 193 300 c 1
105 680 m 0
 105 705 134 740 158 740 c 0
 178 740 195 728 232 690 c 2
 377 541 l 1
 356 511 l 1
 173 614 l 2
 137 634 105 654 105 680 c 0
EndSplineSet
EndChar

StartChar: eacute
Encoding: 233 233 169
Width: 519
GlyphClass: 2
Flags: MW
HStem: -12 77<277 338.5> 252 48<193 317 317 328.5 193 451 193 317> 456 46<244.5 307.5>
VStem: 34 159<199.5 252 300 315> 348 157<319.5 335 278 356.5>
AnchorPoint: "Anchor-3" 280 720 basechar 0
AnchorPoint: "Anchor-2" 279 0 basechar 0
LayerCount: 2
Fore
SplineSet
189 541 m 1
 334 690 l 2
 371 728 388 740 408 740 c 0
 432 740 461 705 461 680 c 0
 461 654 429 634 393 614 c 2
 210 511 l 1
 189 541 l 1
34 245 m 0
 34 385 101 502 281 502 c 0
 474 502 505 376 505 294 c 0
 505 262 487 252 451 252 c 2
 193 252 l 1
 193 147 227 65 327 65 c 0
 388 65 431 97 461 154 c 1
 497 134 l 1
 463 46 398 -12 279 -12 c 0
 93 -12 34 109 34 245 c 0
193 300 m 1
 317 300 l 2
 340 300 348 306 348 333 c 0
 348 380 338 456 277 456 c 0
 212 456 193 372 193 300 c 1
EndSplineSet
EndChar

StartChar: ecircumflex
Encoding: 234 234 170
Width: 519
GlyphClass: 2
Flags: MW
HStem: -12 77<277 338.5> 252 48<193 317 317 328.5 193 451 193 317> 456 46<244.5 307.5>
VStem: 34 159<199.5 252 300 315> 348 157<319.5 335 278 356.5>
AnchorPoint: "Anchor-3" 280 727 basechar 0
AnchorPoint: "Anchor-2" 279 0 basechar 0
LayerCount: 2
Fore
SplineSet
89 547 m 1
 232 716 l 2
 247 734 262 747 276 747 c 0
 290 747 305 733 320 716 c 2
 463 547 l 1
 439 520 l 1
 314 614 l 2
 300 624 287 633 276 633 c 0
 266 633 252 624 238 614 c 2
 113 520 l 1
 89 547 l 1
34 245 m 0
 34 385 101 502 281 502 c 0
 474 502 505 376 505 294 c 0
 505 262 487 252 451 252 c 2
 193 252 l 1
 193 147 227 65 327 65 c 0
 388 65 431 97 461 154 c 1
 497 134 l 1
 463 46 398 -12 279 -12 c 0
 93 -12 34 109 34 245 c 0
193 300 m 1
 317 300 l 2
 340 300 348 306 348 333 c 0
 348 380 338 456 277 456 c 0
 212 456 193 372 193 300 c 1
EndSplineSet
EndChar

StartChar: edieresis
Encoding: 235 235 171
Width: 519
GlyphClass: 2
Flags: MW
HStem: -12 77<277 338.5> 252 48<193 317 317 328.5 193 451 193 317> 456 46<244.5 307.5> 561 149
VStem: 34 159<199.5 252 300 315> 75 158<616 654> 315 158<616 654> 348 157<319.5 335 278 356.5>
AnchorPoint: "Anchor-3" 280 690 basechar 0
AnchorPoint: "Anchor-2" 279 0 basechar 0
LayerCount: 2
Fore
SplineSet
315 635 m 0x16
 315 673 343 710 394 710 c 0
 445 710 473 673 473 635 c 0
 473 597 445 560 394 560 c 0
 343 560 315 597 315 635 c 0x16
75 635 m 0
 75 673 103 710 154 710 c 0
 205 710 233 673 233 635 c 0
 233 597 205 560 154 560 c 0
 103 560 75 597 75 635 c 0
34 245 m 0xe9
 34 385 101 502 281 502 c 0
 474 502 505 376 505 294 c 0
 505 262 487 252 451 252 c 2
 193 252 l 1
 193 147 227 65 327 65 c 0
 388 65 431 97 461 154 c 1
 497 134 l 1
 463 46 398 -12 279 -12 c 0
 93 -12 34 109 34 245 c 0xe9
193 300 m 1
 317 300 l 2
 340 300 348 306 348 333 c 0
 348 380 338 456 277 456 c 0
 212 456 193 372 193 300 c 1
EndSplineSet
EndChar

StartChar: igrave
Encoding: 236 236 172
Width: 316
GlyphClass: 3
Flags: MW
HStem: 0 38<26 26 26 307> 437 36<32 32> 482 20<235 235> 511 229<24 234>
VStem: -17 272<541 692.5> 91 151<87 381 381 401>
AnchorPoint: "Anchor-3" 166 720 basechar 0
AnchorPoint: "Anchor-2" 166 0 basechar 0
LayerCount: 2
Fore
SplineSet
26 0 m 1xe4
 26 38 l 1
 83 41 91 45 91 87 c 2
 91 381 l 2
 91 421 83 430 67 432 c 2
 32 437 l 1
 32 473 l 1
 235 502 l 1
 242 496 l 1
 242 87 l 2
 242 45 250 41 307 38 c 1
 307 0 l 1
 26 0 l 1xe4
-17 680 m 0x18
 -17 705 12 740 36 740 c 0
 56 740 73 728 110 690 c 2
 255 541 l 1
 234 511 l 1
 51 614 l 2
 15 634 -17 654 -17 680 c 0x18
EndSplineSet
Ligature2: "'liga' Standard Ligatures in Latin lookup 1 subtable" i gravecomb
EndChar

StartChar: iacute
Encoding: 237 237 173
Width: 316
GlyphClass: 3
Flags: MW
HStem: 0 38<26 26 26 307> 437 36<32 32> 482 20<235 235> 511 229<78 288>
VStem: 57 272<541 692.5> 91 151<87 381 381 401>
AnchorPoint: "Anchor-3" 166 720 basechar 0
AnchorPoint: "Anchor-2" 166 0 basechar 0
LayerCount: 2
Fore
SplineSet
26 0 m 1xe4
 26 38 l 1
 83 41 91 45 91 87 c 2
 91 381 l 2
 91 421 83 430 67 432 c 2
 32 437 l 1
 32 473 l 1
 235 502 l 1
 242 496 l 1
 242 87 l 2
 242 45 250 41 307 38 c 1
 307 0 l 1
 26 0 l 1xe4
57 541 m 1x18
 202 690 l 2
 239 728 256 740 276 740 c 0
 300 740 329 705 329 680 c 0
 329 654 297 634 261 614 c 2
 78 511 l 1
 57 541 l 1x18
EndSplineSet
Ligature2: "'liga' Standard Ligatures in Latin lookup 1 subtable" i acutecomb
Ligature2: "'liga' Standard Ligatures in Cyrillic lookup 0 subtable" afii10103 acutecomb
EndChar

StartChar: icircumflex
Encoding: 238 238 174
Width: 316
GlyphClass: 3
Flags: MW
HStem: 0 38<26 26 26 307> 437 36<32 32> 482 20<235 235> 520 227<-4 166 152 322>
VStem: -28 374<547 547> 91 151<87 381 381 401>
AnchorPoint: "Anchor-3" 166 727 basechar 0
AnchorPoint: "Anchor-2" 166 0 basechar 0
LayerCount: 2
Fore
SplineSet
-28 547 m 1x18
 115 716 l 2
 130 734 145 747 159 747 c 0
 173 747 188 733 203 716 c 2
 346 547 l 1
 322 520 l 1
 197 614 l 2
 183 624 170 633 159 633 c 0
 149 633 135 624 121 614 c 2
 -4 520 l 1
 -28 547 l 1x18
26 0 m 1xe4
 26 38 l 1
 83 41 91 45 91 87 c 2
 91 381 l 2
 91 421 83 430 67 432 c 2
 32 437 l 1
 32 473 l 1
 235 502 l 1
 242 496 l 1
 242 87 l 2
 242 45 250 41 307 38 c 1
 307 0 l 1
 26 0 l 1xe4
EndSplineSet
Ligature2: "'liga' Standard Ligatures in Latin lookup 1 subtable" i uni0302
EndChar

StartChar: idieresis
Encoding: 239 239 175
Width: 316
GlyphClass: 3
Flags: MW
HStem: 0 38<26 26 26 307> 437 36<32 32> 482 20<235 235> 561 149
VStem: -37 158<616 654> 91 151<87 381 381 401> 203 158<616 654>
AnchorPoint: "Anchor-3" 166 690 basechar 0
LayerCount: 2
Fore
SplineSet
26 0 m 1xe4
 26 38 l 1
 83 41 91 45 91 87 c 2
 91 381 l 2
 91 421 83 430 67 432 c 2
 32 437 l 1
 32 473 l 1
 235 502 l 1
 242 496 l 1
 242 87 l 2
 242 45 250 41 307 38 c 1
 307 0 l 1
 26 0 l 1xe4
203 635 m 0x1a
 203 673 231 710 282 710 c 0
 333 710 361 673 361 635 c 0
 361 597 333 560 282 560 c 0
 231 560 203 597 203 635 c 0x1a
-37 635 m 0
 -37 673 -9 710 42 710 c 0
 93 710 121 673 121 635 c 0
 121 597 93 560 42 560 c 0
 -9 560 -37 597 -37 635 c 0
EndSplineSet
Ligature2: "'liga' Standard Ligatures in Latin lookup 1 subtable" i uni0308
EndChar

StartChar: eth
Encoding: 240 240 176
Width: 585
GlyphClass: 2
Flags: MW
HStem: -12 46<257.5 328 257.5 383.5> 456 46<257.5 297.5 201.5 321 201.5 328> 722 20G<154 154>
VStem: 34 159<178 312 178 325> 392 159<178 308 168 312>
LayerCount: 2
Fore
SplineSet
34 245 m 0
 34 405 111 502 292 502 c 0
 303 502 310 501 321 499 c 1
 321 502 l 1
 302 526 278 552 246 582 c 1
 114 525 l 1
 89 564 l 1
 210 616 l 1
 182 642 147 670 107 700 c 1
 107 712 l 1
 154 742 l 1
 205 715 255 685 299 654 c 1
 450 718 l 1
 476 680 l 1
 340 622 l 1
 379 593 411 563 441 531 c 0
 510 455 551 365 551 251 c 0
 551 85 474 -12 293 -12 c 0
 111 -12 34 85 34 245 c 0
193 245 m 0
 193 111 222 34 293 34 c 0
 363 34 392 111 392 245 c 0
 392 379 363 456 293 456 c 0
 222 456 193 379 193 245 c 0
EndSplineSet
EndChar

StartChar: ntilde
Encoding: 241 241 177
Width: 638
GlyphClass: 2
Flags: MW
HStem: 0 38<26 26 26 295> 425 77 566 85<419 445> 608 85<208 236> 686 20<507 507>
VStem: 91 151<87 317> 413 151<80 87 87 334 334 334>
LayerCount: 2
Fore
SplineSet
114 571 m 1x10
 132 614 167 693 249 693 c 0x10
 277 693 309 683 341 672 c 1
 374 662 406 651 432 651 c 0
 469 651 485 667 507 706 c 1
 539 688 l 1
 521 645 486 566 404 566 c 0x28
 379 566 348 577 316 587 c 0
 284 598 251 608 221 608 c 0
 184 608 168 592 146 553 c 1
 114 571 l 1x10
26 0 m 1xc6
 26 38 l 1
 83 41 91 45 91 87 c 2
 91 381 l 2
 91 421 83 430 67 432 c 2
 32 437 l 1
 32 473 l 1
 229 502 l 1
 242 433 l 1
 308 472 355 502 413 502 c 0
 516 502 563 442 564 348 c 1
 564 87 l 2
 564 45 572 41 629 38 c 1
 629 0 l 1
 360 0 l 1
 360 38 l 1
 381 40 l 2
 402 42 413 47 413 80 c 2
 413 334 l 1
 411 394 385 425 334 425 c 0
 292 425 265 402 252 376 c 0
 245 362 242 339 242 317 c 2
 242 80 l 2
 242 47 253 42 274 40 c 2
 295 38 l 1
 295 0 l 1
 26 0 l 1xc6
EndSplineSet
EndChar

StartChar: ograve
Encoding: 242 242 178
Width: 585
GlyphClass: 2
Flags: MW
HStem: -12 46<257.5 328.5 257.5 384> 456 46<257.5 328.5>
VStem: 34 159<178 312 178 325> 392 159
AnchorPoint: "Anchor-3" 293 720 basechar 0
AnchorPoint: "Anchor-2" 293 0 basechar 0
LayerCount: 2
Fore
SplineSet
34 245 m 0
 34 405 111 502 293 502 c 0
 475 502 552 405 552 245 c 0
 552 85 475 -12 293 -12 c 0
 111 -12 34 85 34 245 c 0
193 245 m 0
 193 111 222 34 293 34 c 0
 364 34 393 111 393 245 c 0
 393 379 364 456 293 456 c 0
 222 456 193 379 193 245 c 0
108 680 m 0
 108 705 137 740 161 740 c 0
 181 740 198 728 235 690 c 2
 380 541 l 1
 359 511 l 1
 176 614 l 2
 140 634 108 654 108 680 c 0
EndSplineSet
EndChar

StartChar: oacute
Encoding: 243 243 179
Width: 585
GlyphClass: 2
Flags: MW
HStem: -12 46<257.5 328.5 257.5 384> 456 46<257.5 328.5>
VStem: 34 159<178 312 178 325> 392 159
AnchorPoint: "Anchor-3" 293 720 basechar 0
AnchorPoint: "Anchor-2" 293 0 basechar 0
LayerCount: 2
Fore
SplineSet
202 541 m 1
 347 690 l 2
 384 728 401 740 421 740 c 0
 445 740 474 705 474 680 c 0
 474 654 442 634 406 614 c 2
 223 511 l 1
 202 541 l 1
34 245 m 0
 34 405 111 502 293 502 c 0
 475 502 552 405 552 245 c 0
 552 85 475 -12 293 -12 c 0
 111 -12 34 85 34 245 c 0
193 245 m 0
 193 111 222 34 293 34 c 0
 364 34 393 111 393 245 c 0
 393 379 364 456 293 456 c 0
 222 456 193 379 193 245 c 0
EndSplineSet
EndChar

StartChar: ocircumflex
Encoding: 244 244 180
Width: 585
GlyphClass: 2
Flags: MW
HStem: -12 46<257.5 328.5 257.5 384> 456 46<257.5 328.5>
VStem: 34 159<178 312 178 325> 392 159
AnchorPoint: "Anchor-3" 293 727 basechar 0
AnchorPoint: "Anchor-2" 293 0 basechar 0
LayerCount: 2
Fore
SplineSet
106 547 m 1
 249 716 l 2
 264 734 279 747 293 747 c 0
 307 747 322 733 337 716 c 2
 480 547 l 1
 456 520 l 1
 331 614 l 2
 317 624 304 633 293 633 c 0
 283 633 269 624 255 614 c 2
 130 520 l 1
 106 547 l 1
34 245 m 0
 34 405 111 502 293 502 c 0
 475 502 552 405 552 245 c 0
 552 85 475 -12 293 -12 c 0
 111 -12 34 85 34 245 c 0
193 245 m 0
 193 111 222 34 293 34 c 0
 364 34 393 111 393 245 c 0
 393 379 364 456 293 456 c 0
 222 456 193 379 193 245 c 0
EndSplineSet
EndChar

StartChar: otilde
Encoding: 245 245 181
Width: 585
GlyphClass: 2
Flags: MW
HStem: -12 46<257.5 328.5 257.5 384> 456 46<257.5 328.5> 566 85<385 411> 608 85<174 202> 686 20<473 473>
VStem: 34 159<178 312 178 325> 393 159<178 312>
AnchorPoint: "Anchor-3" 293 686 basechar 0
AnchorPoint: "Anchor-2" 293 0 basechar 0
LayerCount: 2
Fore
SplineSet
80 571 m 1x10
 98 614 133 693 215 693 c 0x10
 243 693 275 683 307 672 c 1
 340 662 372 651 398 651 c 0
 435 651 451 667 473 706 c 1
 505 688 l 1
 487 645 452 566 370 566 c 0x28
 345 566 314 577 282 587 c 0
 250 598 217 608 187 608 c 0
 150 608 134 592 112 553 c 1
 80 571 l 1x10
34 245 m 0xc6
 34 405 111 502 293 502 c 0
 475 502 552 405 552 245 c 0
 552 85 475 -12 293 -12 c 0
 111 -12 34 85 34 245 c 0xc6
193 245 m 0
 193 111 222 34 293 34 c 0
 364 34 393 111 393 245 c 0
 393 379 364 456 293 456 c 0
 222 456 193 379 193 245 c 0
EndSplineSet
EndChar

StartChar: odieresis
Encoding: 246 246 182
Width: 585
GlyphClass: 2
Flags: MW
HStem: -12 46<257.5 328.5 257.5 384> 456 46<257.5 328.5> 561 149
VStem: 34 159<178 312 178 325> 94 158<616 654> 334 158<616 654> 393 159<178 312>
AnchorPoint: "Anchor-3" 293 690 basechar 0
AnchorPoint: "Anchor-2" 293 0 basechar 0
LayerCount: 2
Fore
SplineSet
334 635 m 0x2c
 334 673 362 710 413 710 c 0
 464 710 492 673 492 635 c 0
 492 597 464 560 413 560 c 0
 362 560 334 597 334 635 c 0x2c
94 635 m 0
 94 673 122 710 173 710 c 0
 224 710 252 673 252 635 c 0
 252 597 224 560 173 560 c 0
 122 560 94 597 94 635 c 0
34 245 m 0xd2
 34 405 111 502 293 502 c 0
 475 502 552 405 552 245 c 0
 552 85 475 -12 293 -12 c 0
 111 -12 34 85 34 245 c 0xd2
193 245 m 0
 193 111 222 34 293 34 c 0
 364 34 393 111 393 245 c 0
 393 379 364 456 293 456 c 0
 222 456 193 379 193 245 c 0
EndSplineSet
EndChar

StartChar: divide
Encoding: 247 247 183
Width: 600
GlyphClass: 2
Flags: MW
HStem: 6 140<280.5 320> 210 80<58 542 58 542> 354 140<280.5 320>
VStem: 232 138<57 76 57 95 405 424>
LayerCount: 2
Fore
SplineSet
232 76 m 0
 232 114 261 146 300 146 c 0
 340 146 370 114 371 78 c 1
 370 76 l 1
 370 38 340 6 300 6 c 0
 261 6 232 38 232 76 c 0
232 424 m 0
 232 462 261 494 300 494 c 0
 340 494 370 462 371 426 c 1
 370 424 l 1
 370 386 340 354 300 354 c 0
 261 354 232 386 232 424 c 0
58 210 m 1
 58 290 l 1
 542 290 l 1
 542 210 l 1
 58 210 l 1
EndSplineSet
EndChar

StartChar: oslash
Encoding: 248 248 184
Width: 585
GlyphClass: 2
Flags: MW
HStem: -12 46<275.5 330 275.5 383.5> 456 46<255.5 309.5>
VStem: 34 155<224.5 312 224.5 325> 396 155<178 267>
LayerCount: 2
Fore
SplineSet
34 245 m 0
 34 405 111 502 293 502 c 0
 338 502 377 496 409 484 c 1
 441 535 l 1
 480 511 l 1
 451 465 l 1
 520 423 551 347 551 245 c 0
 551 85 474 -12 293 -12 c 0
 246 -12 207 -5 172 8 c 1
 136 -51 l 1
 99 -23 l 1
 130 28 l 1
 64 70 34 145 34 245 c 0
189 245 m 0
 189 204 192 168 198 139 c 1
 366 413 l 1
 349 441 326 456 293 456 c 0
 218 456 189 379 189 245 c 0
217 82 m 1
 233 50 258 34 293 34 c 0
 367 34 396 111 396 245 c 0
 396 289 393 326 386 358 c 1
 217 82 l 1
EndSplineSet
EndChar

StartChar: ugrave
Encoding: 249 249 185
Width: 629
GlyphClass: 2
Flags: MW
HStem: -12 79<191 339> 0 38<412 620> 437 36<23 23> 482 20<226 226 548 548> 511 229<146 356>
VStem: 82 151<138 176 176 381 381 401> 105 272<541 692.5> 404 151<56 87 170 381 381 401>
AnchorPoint: "Anchor-3" 318 720 basechar 0
AnchorPoint: "Anchor-2" 318 0 basechar 0
LayerCount: 2
Fore
SplineSet
23 437 m 1xb5
 23 473 l 1
 226 502 l 1
 233 496 l 1
 233 176 l 2
 233 98 264 67 317 67 c 0xb5
 361 67 387 91 396 114 c 0
 402 129 404 153 404 170 c 2
 404 381 l 2
 404 421 396 430 380 432 c 2
 345 437 l 1
 345 473 l 1
 548 502 l 1
 555 496 l 1
 555 87 l 2
 555 45 563 41 620 38 c 1
 620 0 l 1
 412 0 l 1x75
 404 56 l 1
 364 34 312 -12 227 -12 c 0
 155 -12 82 21 82 138 c 2
 82 381 l 2
 82 421 74 430 58 432 c 2
 23 437 l 1xb5
105 680 m 0x0a
 105 705 134 740 158 740 c 0
 178 740 195 728 232 690 c 2
 377 541 l 1
 356 511 l 1
 173 614 l 2
 137 634 105 654 105 680 c 0x0a
EndSplineSet
EndChar

StartChar: uacute
Encoding: 250 250 186
Width: 629
GlyphClass: 2
Flags: MW
HStem: -12 79<191 339> 0 38<412 620> 437 36<23 23> 482 20<226 226 548 548> 511 229<260 470>
VStem: 82 151<138 176 176 381 381 401> 239 272<541 692.5> 404 151<56 87 170 381 381 401>
AnchorPoint: "Anchor-3" 318 720 basechar 0
AnchorPoint: "Anchor-2" 318 0 basechar 0
LayerCount: 2
Fore
SplineSet
239 541 m 1x0a
 384 690 l 2
 421 728 438 740 458 740 c 0
 482 740 511 705 511 680 c 0
 511 654 479 634 443 614 c 2
 260 511 l 1
 239 541 l 1x0a
23 437 m 1xb5
 23 473 l 1
 226 502 l 1
 233 496 l 1
 233 176 l 2
 233 98 264 67 317 67 c 0xb5
 361 67 387 91 396 114 c 0
 402 129 404 153 404 170 c 2
 404 381 l 2
 404 421 396 430 380 432 c 2
 345 437 l 1
 345 473 l 1
 548 502 l 1
 555 496 l 1
 555 87 l 2
 555 45 563 41 620 38 c 1
 620 0 l 1
 412 0 l 1x75
 404 56 l 1
 364 34 312 -12 227 -12 c 0
 155 -12 82 21 82 138 c 2
 82 381 l 2
 82 421 74 430 58 432 c 2
 23 437 l 1xb5
EndSplineSet
EndChar

StartChar: ucircumflex
Encoding: 251 251 187
Width: 629
GlyphClass: 2
Flags: MW
HStem: -12 79<191 339> 0 38<412 620> 437 36<23 23> 482 20<226 226 548 548> 520 227<152 322 308 478>
VStem: 82 151<138 176 176 381 381 401> 128 374<547 547> 404 151<56 87 170 381 381 401>
AnchorPoint: "Anchor-3" 318 727 basechar 0
AnchorPoint: "Anchor-2" 318 0 basechar 0
LayerCount: 2
Fore
SplineSet
128 547 m 1x0a
 271 716 l 2
 286 734 301 747 315 747 c 0
 329 747 344 733 359 716 c 2
 502 547 l 1
 478 520 l 1
 353 614 l 2
 339 624 326 633 315 633 c 0
 305 633 291 624 277 614 c 2
 152 520 l 1
 128 547 l 1x0a
23 437 m 1xb5
 23 473 l 1
 226 502 l 1
 233 496 l 1
 233 176 l 2
 233 98 264 67 317 67 c 0xb5
 361 67 387 91 396 114 c 0
 402 129 404 153 404 170 c 2
 404 381 l 2
 404 421 396 430 380 432 c 2
 345 437 l 1
 345 473 l 1
 548 502 l 1
 555 496 l 1
 555 87 l 2
 555 45 563 41 620 38 c 1
 620 0 l 1
 412 0 l 1x75
 404 56 l 1
 364 34 312 -12 227 -12 c 0
 155 -12 82 21 82 138 c 2
 82 381 l 2
 82 421 74 430 58 432 c 2
 23 437 l 1xb5
EndSplineSet
EndChar

StartChar: udieresis
Encoding: 252 252 188
Width: 629
GlyphClass: 2
Flags: MW
HStem: -12 79<191 339> 0 38<412 620> 437 36<23 23> 482 20<226 226 548 548> 561 149
VStem: 82 151<138 176 176 381 381 401> 116 158<616 654> 356 158<616 654> 404 151<56 87 170 381 381 401>
AnchorPoint: "Anchor-3" 318 690 basechar 0
AnchorPoint: "Anchor-2" 318 0 basechar 0
LayerCount: 2
Fore
SplineSet
356 635 m 0x0b
 356 673 384 710 435 710 c 0
 486 710 514 673 514 635 c 0
 514 597 486 560 435 560 c 0
 384 560 356 597 356 635 c 0x0b
116 635 m 0
 116 673 144 710 195 710 c 0
 246 710 274 673 274 635 c 0
 274 597 246 560 195 560 c 0
 144 560 116 597 116 635 c 0
23 437 m 1xb480
 23 473 l 1
 226 502 l 1
 233 496 l 1
 233 176 l 2
 233 98 264 67 317 67 c 0xb480
 361 67 387 91 396 114 c 0
 402 129 404 153 404 170 c 2
 404 381 l 2
 404 421 396 430 380 432 c 2
 345 437 l 1
 345 473 l 1
 548 502 l 1
 555 496 l 1
 555 87 l 2
 555 45 563 41 620 38 c 1
 620 0 l 1
 412 0 l 1x7480
 404 56 l 1
 364 34 312 -12 227 -12 c 0
 155 -12 82 21 82 138 c 2
 82 381 l 2
 82 421 74 430 58 432 c 2
 23 437 l 1xb480
EndSplineSet
EndChar

StartChar: yacute
Encoding: 253 253 189
Width: 524
GlyphClass: 2
Flags: MW
HStem: -242 108<114 209> 452 38<-12 268 -12 268> 511 229<237 447>
VStem: 216 272<541 692.5>
AnchorPoint: "Anchor-3" 273 732 basechar 0
AnchorPoint: "Anchor-2" 272 -230 basechar 0
LayerCount: 2
Fore
SplineSet
216 541 m 1
 361 690 l 2
 398 728 415 740 435 740 c 0
 459 740 488 705 488 680 c 0
 488 654 456 634 420 614 c 2
 237 511 l 1
 216 541 l 1
-12 452 m 1
 -12 490 l 1
 268 490 l 1
 268 452 l 1
 230 446 l 2
 214 444 211 433 218 413 c 0
 249 319 286 226 319 134 c 1
 321 134 l 1
 352 228 384 321 412 416 c 0
 417 435 411 444 397 446 c 2
 356 452 l 1
 356 490 l 1
 557 490 l 1
 557 452 l 1
 536 450 l 2
 508 447 497 428 479 385 c 0
 420 242 360 95 302 -60 c 0
 248 -204 202 -242 133 -242 c 0
 95 -242 52 -218 52 -179 c 0
 52 -141 84 -98 116 -98 c 0
 133 -98 142 -105 161 -119 c 0
 173 -129 186 -134 197 -134 c 0
 221 -134 230 -108 236 -85 c 0
 241 -65 238 -39 230 -19 c 0
 177 119 117 267 59 406 c 0
 48 433 36 444 21 447 c 2
 -12 452 l 1
EndSplineSet
EndChar

StartChar: thorn
Encoding: 254 254 190
Width: 609
GlyphClass: 2
Flags: MW
HStem: -230 38<13 312 13 13> -12 46<294.5 350.5 290 382> 425 77<295 441> 659 36<19 19>
VStem: 78 151<-143 0 142.5 152 152 310 433 601 601 621> 416 159<175 318>
LayerCount: 2
Fore
SplineSet
13 -192 m 1
 70 -189 78 -185 78 -143 c 2
 78 601 l 2
 78 641 70 650 54 653 c 2
 19 659 l 1
 19 695 l 1
 222 722 l 1
 229 716 l 1
 229 433 l 1
 278 470 324 502 394 502 c 0
 488 502 575 425 575 259 c 0
 575 38 456 -12 308 -12 c 0
 281 -12 246 -7 229 0 c 1
 229 -143 l 2
 229 -185 239 -189 312 -192 c 1
 312 -230 l 1
 13 -230 l 1
 13 -192 l 1
229 152 m 2
 229 133 230 116 233 101 c 0
 242 57 268 34 312 34 c 0
 389 34 416 113 416 237 c 0
 416 399 363 425 316 425 c 0
 274 425 249 402 236 365 c 0
 231 351 229 331 229 310 c 2
 229 152 l 2
EndSplineSet
EndChar

StartChar: ydieresis
Encoding: 255 255 191
Width: 524
GlyphClass: 2
Flags: MW
HStem: -242 108<114 209> 452 38<-12 268 -12 268> 561 149
VStem: 83 158<616 654> 323 158<616 654>
AnchorPoint: "Anchor-3" 273 702 basechar 0
AnchorPoint: "Anchor-2" 272 -230 basechar 0
LayerCount: 2
Fore
SplineSet
323 635 m 0
 323 673 351 710 402 710 c 0
 453 710 481 673 481 635 c 0
 481 597 453 560 402 560 c 0
 351 560 323 597 323 635 c 0
83 635 m 0
 83 673 111 710 162 710 c 0
 213 710 241 673 241 635 c 0
 241 597 213 560 162 560 c 0
 111 560 83 597 83 635 c 0
-12 452 m 1
 -12 490 l 1
 268 490 l 1
 268 452 l 1
 230 446 l 2
 214 444 211 433 218 413 c 0
 249 319 286 226 319 134 c 1
 321 134 l 1
 352 228 384 321 412 416 c 0
 417 435 411 444 397 446 c 2
 356 452 l 1
 356 490 l 1
 557 490 l 1
 557 452 l 1
 536 450 l 2
 508 447 497 428 479 385 c 0
 420 242 360 95 302 -60 c 0
 248 -204 202 -242 133 -242 c 0
 95 -242 52 -218 52 -179 c 0
 52 -141 84 -98 116 -98 c 0
 133 -98 142 -105 161 -119 c 0
 173 -129 186 -134 197 -134 c 0
 221 -134 230 -108 236 -85 c 0
 241 -65 238 -39 230 -19 c 0
 177 119 117 267 59 406 c 0
 48 433 36 444 21 447 c 2
 -12 452 l 1
EndSplineSet
EndChar

StartChar: Amacron
Encoding: 256 256 192
Width: 644
GlyphClass: 2
Flags: MW
HStem: 0 38<-28 -28 -28 206> 246 48<192 354 192 370 176 354> 672 20<262 388 388 388> 765 87<150 500 150 500>
AnchorPoint: "Anchor-3" 325 847 basechar 0
AnchorPoint: "Anchor-2" 318 0 basechar 0
LayerCount: 2
Fore
SplineSet
150 765 m 1
 150 852 l 1
 500 852 l 1
 500 765 l 1
 150 765 l 1
-28 0 m 1
 -28 38 l 1
 26 41 37 48 53 90 c 0
 77 151 110 252 146 355 c 2
 262 692 l 1
 388 692 l 1
 585 86 l 2
 598 45 611 39 663 38 c 1
 663 0 l 1
 347 0 l 1
 347 38 l 1
 405 44 l 2
 426 46 429 59 422 80 c 2
 370 246 l 1
 176 246 l 1
 158 187 140 133 128 79 c 0
 123 57 124 45 146 43 c 2
 206 38 l 1
 206 0 l 1
 -28 0 l 1
192 294 m 1
 354 294 l 1
 276 553 l 1
 273 553 l 1
 192 294 l 1
EndSplineSet
EndChar

StartChar: amacron
Encoding: 257 257 193
Width: 544
GlyphClass: 2
Flags: MW
HStem: -12 78<141.5 282.5> 456 46<259 287.5> 587 87<135 446 135 446>
VStem: 41 154<123.5 161.5> 135 311<587 674 587 674> 331 147<134 279 279 279 329 362>
AnchorPoint: "Anchor-3" 291 654 basechar 0
AnchorPoint: "Anchor-2" 291 0 basechar 0
LayerCount: 2
Fore
SplineSet
135 587 m 1x28
 135 674 l 1
 446 674 l 1
 446 587 l 1
 135 587 l 1x28
41 133 m 0xd4
 41 190 68 231 147 258 c 0
 212 280 296 305 331 329 c 1
 331 382 l 2
 331 439 302 456 273 456 c 0
 245 456 213 441 185 356 c 0
 177 332 166 316 144 316 c 0
 118 316 54 334 54 379 c 0
 54 444 144 502 291 502 c 0
 468 502 478 424 478 362 c 2
 478 131 l 2
 478 72 497 60 510 56 c 0
 525 51 545 50 558 51 c 1
 561 18 l 1
 528 5 465 -12 413 -12 c 0
 365 -12 348 15 335 46 c 1
 300 23 256 -12 192 -12 c 0
 91 -12 41 58 41 133 c 0xd4
195 150 m 0
 195 97 230 66 269 66 c 0
 296 66 329 80 331 134 c 1
 331 279 l 1
 307 268 272 254 241 237 c 0
 211 220 195 197 195 150 c 0
EndSplineSet
EndChar

StartChar: Abreve
Encoding: 258 258 194
Width: 644
GlyphClass: 2
Flags: MW
HStem: 0 38<-28 -28 -28 206> 246 48<192 354 192 370 176 354> 672 20<262 388 388 388> 746 81<275.5 374.5 275.5 394.5>
VStem: 160 41<859 896> 449 41<859 896>
AnchorPoint: "Anchor-3" 325 891 basechar 0
AnchorPoint: "Anchor-2" 318 0 basechar 0
LayerCount: 2
Fore
SplineSet
-28 0 m 1
 -28 38 l 1
 26 41 37 48 53 90 c 0
 77 151 110 252 146 355 c 2
 262 692 l 1
 388 692 l 1
 585 86 l 2
 598 45 611 39 663 38 c 1
 663 0 l 1
 347 0 l 1
 347 38 l 1
 405 44 l 2
 426 46 429 59 422 80 c 2
 370 246 l 1
 176 246 l 1
 158 187 140 133 128 79 c 0
 123 57 124 45 146 43 c 2
 206 38 l 1
 206 0 l 1
 -28 0 l 1
192 294 m 1
 354 294 l 1
 276 553 l 1
 273 553 l 1
 192 294 l 1
160 896 m 1
 201 896 l 1
 203 872 226 827 325 827 c 0
 424 827 447 872 449 896 c 1
 490 896 l 1
 490 822 464 746 325 746 c 0
 186 746 160 822 160 896 c 1
EndSplineSet
EndChar

StartChar: abreve
Encoding: 259 259 195
Width: 544
GlyphClass: 2
Flags: MW
HStem: -12 78<141.5 282.5> 456 46<259 287.5> 556 85<239 341 239 362>
VStem: 41 154<123.5 161.5> 131 38<678 716> 331 147<134 279 279 279 329 362> 411 39<681 716>
AnchorPoint: "Anchor-3" 291 696 basechar 0
AnchorPoint: "Anchor-2" 291 0 basechar 0
LayerCount: 2
Fore
SplineSet
41 133 m 0xd4
 41 190 68 231 147 258 c 0
 212 280 296 305 331 329 c 1
 331 382 l 2
 331 439 302 456 273 456 c 0
 245 456 213 441 185 356 c 0
 177 332 166 316 144 316 c 0
 118 316 54 334 54 379 c 0
 54 444 144 502 291 502 c 0
 468 502 478 424 478 362 c 2
 478 131 l 2
 478 72 497 60 510 56 c 0
 525 51 545 50 558 51 c 1
 561 18 l 1
 528 5 465 -12 413 -12 c 0
 365 -12 348 15 335 46 c 1
 300 23 256 -12 192 -12 c 0
 91 -12 41 58 41 133 c 0xd4
195 150 m 0
 195 97 230 66 269 66 c 0
 296 66 329 80 331 134 c 1
 331 279 l 1
 307 268 272 254 241 237 c 0
 211 220 195 197 195 150 c 0
131 716 m 1x2a
 169 716 l 1
 171 692 188 641 290 641 c 0
 392 641 409 692 411 716 c 1
 450 716 l 1
 450 646 433 556 291 556 c 0
 148 556 131 640 131 716 c 1x2a
EndSplineSet
EndChar

StartChar: Aogonek
Encoding: 260 260 196
Width: 644
GlyphClass: 3
Flags: MW
HStem: -242 54<425.5 525.5> 0 38<-28 -28 -28 206> 246 48<192 354 192 370 176 354> 672 20G<262 388 388 388>
VStem: 359 101<-128 -117.5>
AnchorPoint: "Anchor-3" 325 707 basechar 0
LayerCount: 2
Fore
SplineSet
-28 0 m 1
 -28 38 l 1
 26 41 37 48 53 90 c 0
 77 151 110 252 146 355 c 2
 262 692 l 1
 388 692 l 1
 585 86 l 2
 598 45 611 39 663 38 c 1
 663 0 l 1
 540 0 l 1
 486 -44 460 -88 460 -128 c 0
 461 -168 485 -188 518 -188 c 0
 533 -188 554 -183 567 -175 c 1
 582 -202 l 1
 545 -233 508 -242 477 -242 c 0
 374 -242 359 -184 359 -147 c 0
 359 -88 415 -35 481 0 c 1
 347 0 l 1
 347 38 l 1
 405 44 l 2
 426 46 429 59 422 80 c 2
 370 246 l 1
 176 246 l 1
 158 187 140 133 128 79 c 0
 123 57 124 45 146 43 c 2
 206 38 l 1
 206 0 l 1
 -28 0 l 1
192 294 m 1
 354 294 l 1
 276 553 l 1
 273 553 l 1
 192 294 l 1
EndSplineSet
Ligature2: "'liga' Standard Ligatures in Latin lookup 2 subtable" A uni0328
EndChar

StartChar: aogonek
Encoding: 261 261 197
Width: 544
GlyphClass: 2
Flags: MW
HStem: -242 54<334.5 434.5> -12 78<141.5 282.5> 18 33<558 561> 456 46<259 287.5>
VStem: 41 154<123.5 161.5> 54 131 268 101<-148 -121> 331 147<134 279 279 279 329 362>
AnchorPoint: "Anchor-3" 291 502 basechar 0
LayerCount: 2
Fore
SplineSet
41 133 m 0xda
 41 190 68 231 147 258 c 0
 212 280 296 305 331 329 c 1
 331 382 l 2
 331 439 302 456 273 456 c 0
 245 456 213 441 185 356 c 0
 177 332 166 316 144 316 c 0
 118 316 54 334 54 379 c 0
 54 444 144 502 291 502 c 0
 468 502 478 424 478 362 c 2
 478 131 l 2
 478 72 497 60 510 56 c 0
 525 51 545 50 558 51 c 1
 561 18 l 1xb5
 529 5 472 -8 439 -17 c 0
 408 -25 369 -86 369 -128 c 0
 369 -168 394 -188 427 -188 c 0
 442 -188 463 -183 476 -175 c 1
 491 -202 l 1
 454 -233 417 -242 386 -242 c 0
 283 -242 268 -185 268 -147 c 0
 268 -95 316 -38 380 -7 c 1
 356 2 344 23 335 46 c 1
 300 23 256 -12 192 -12 c 0
 91 -12 41 58 41 133 c 0xda
195 150 m 0xd9
 195 97 230 66 269 66 c 0
 296 66 329 80 331 134 c 1
 331 279 l 1
 307 268 272 254 241 237 c 0
 211 220 195 197 195 150 c 0xd9
EndSplineSet
EndChar

StartChar: Cacute
Encoding: 262 262 198
Width: 689
GlyphClass: 2
Flags: MW
HStem: -15 46<333 443> 661 46<352.5 448 352.5 478> 783 121<533 568>
VStem: 42 177<298.5 389> 316 290<751 850> 600 38<484 663>
AnchorPoint: "Anchor-3" 423 884 basechar 0
AnchorPoint: "Anchor-2" 408 0 basechar 0
LayerCount: 2
Fore
SplineSet
316 751 m 1x28
 488 874 l 2
 519 897 534 904 552 904 c 0
 584 904 606 860 606 840 c 0
 606 811 586 800 533 783 c 2
 330 719 l 1
 316 751 l 1x28
42 339 m 0xd4
 42 439 67 534 128 602 c 0
 187 668 282 707 423 707 c 0
 473 707 578 699 638 663 c 1
 638 484 l 1
 600 484 l 1
 577 556 542 661 414 661 c 0
 233 661 219 428 219 355 c 0
 219 242 244 31 422 31 c 0
 535 31 578 118 616 228 c 1
 654 228 l 1
 642 33 l 1
 582 -3 478 -15 408 -15 c 0
 151 -15 42 125 42 339 c 0xd4
EndSplineSet
EndChar

StartChar: cacute
Encoding: 263 263 199
Width: 494
GlyphClass: 2
Flags: MW
HStem: -12 77<288.5 310.5> 456 46<257 295.5> 511 229<217 427>
VStem: 34 159<187 284.5> 196 272<541 692.5>
AnchorPoint: "Anchor-3" 287 720 basechar 0
AnchorPoint: "Anchor-2" 269 0 basechar 0
LayerCount: 2
Fore
SplineSet
196 541 m 1
 341 690 l 2
 378 728 395 740 415 740 c 0
 439 740 468 705 468 680 c 0
 468 654 436 634 400 614 c 2
 217 511 l 1
 196 541 l 1
34 241 m 0
 34 328 60 393 102 435 c 0
 147 480 209 502 287 502 c 0
 378 502 478 463 478 392 c 0
 478 348 430 330 395 330 c 0
 369 330 354 342 347 365 c 0
 330 425 313 456 278 456 c 0
 236 456 193 399 193 265 c 0
 193 109 256 65 321 65 c 0
 376 65 415 88 449 156 c 1
 484 140 l 1
 445 16 352 -12 269 -12 c 0
 128 -12 34 73 34 241 c 0
EndSplineSet
EndChar

StartChar: Ccircumflex
Encoding: 264 264 200
Width: 689
GlyphClass: 2
Flags: MW
HStem: -15 46<333 443> 661 46<352.5 448 352.5 478> 800 105<417 428>
VStem: 42 177<298.5 389> 235 376<755 755> 600 38<484 663>
AnchorPoint: "Anchor-3" 423 885 basechar 0
AnchorPoint: "Anchor-2" 408 0 basechar 0
LayerCount: 2
Fore
SplineSet
235 755 m 1x28
 377 881 l 2
 393 896 408 905 422 905 c 0
 437 905 455 895 469 882 c 2
 611 755 l 1
 593 725 l 1
 462 785 l 2
 449 792 434 800 422 800 c 0
 412 800 398 792 384 785 c 2
 254 725 l 1
 235 755 l 1x28
42 339 m 0xd4
 42 439 67 534 128 602 c 0
 187 668 282 707 423 707 c 0
 473 707 578 699 638 663 c 1
 638 484 l 1
 600 484 l 1
 577 556 542 661 414 661 c 0
 233 661 219 428 219 355 c 0
 219 242 244 31 422 31 c 0
 535 31 578 118 616 228 c 1
 654 228 l 1
 642 33 l 1
 582 -3 478 -15 408 -15 c 0
 151 -15 42 125 42 339 c 0xd4
EndSplineSet
EndChar

StartChar: ccircumflex
Encoding: 265 265 201
Width: 494
GlyphClass: 2
Flags: MW
HStem: -12 77<288.5 310.5> 456 46<257 295.5> 520 227<124 294 280 450>
VStem: 34 159<187 284.5> 100 374<547 547>
AnchorPoint: "Anchor-3" 287 727 basechar 0
AnchorPoint: "Anchor-2" 269 0 basechar 0
LayerCount: 2
Fore
SplineSet
100 547 m 1x28
 243 716 l 2
 258 734 273 747 287 747 c 0
 301 747 316 733 331 716 c 2
 474 547 l 1
 450 520 l 1
 325 614 l 2
 311 624 298 633 287 633 c 0
 277 633 263 624 249 614 c 2
 124 520 l 1
 100 547 l 1x28
34 241 m 0xd0
 34 328 60 393 102 435 c 0
 147 480 209 502 287 502 c 0
 378 502 478 463 478 392 c 0
 478 348 430 330 395 330 c 0
 369 330 354 342 347 365 c 0
 330 425 313 456 278 456 c 0
 236 456 193 399 193 265 c 0
 193 109 256 65 321 65 c 0
 376 65 415 88 449 156 c 1
 484 140 l 1
 445 16 352 -12 269 -12 c 0
 128 -12 34 73 34 241 c 0xd0
EndSplineSet
EndChar

StartChar: Cdotaccent
Encoding: 266 266 202
Width: 689
GlyphClass: 2
Flags: MW
HStem: -15 46<333 443> 661 46<352.5 448 352.5 478> 731 150<397.5 448.5>
VStem: 42 177<298.5 389> 344 158<787 825> 600 38<484 663>
AnchorPoint: "Anchor-3" 423 861 basechar 0
AnchorPoint: "Anchor-2" 408 0 basechar 0
LayerCount: 2
Fore
SplineSet
344 806 m 0
 344 844 372 881 423 881 c 0
 474 881 502 844 502 806 c 0
 502 768 474 731 423 731 c 0
 372 731 344 768 344 806 c 0
42 339 m 0
 42 439 67 534 128 602 c 0
 187 668 282 707 423 707 c 0
 473 707 578 699 638 663 c 1
 638 484 l 1
 600 484 l 1
 577 556 542 661 414 661 c 0
 233 661 219 428 219 355 c 0
 219 242 244 31 422 31 c 0
 535 31 578 118 616 228 c 1
 654 228 l 1
 642 33 l 1
 582 -3 478 -15 408 -15 c 0
 151 -15 42 125 42 339 c 0
EndSplineSet
EndChar

StartChar: cdotaccent
Encoding: 267 267 203
Width: 494
GlyphClass: 2
Flags: MW
HStem: -12 77<288.5 310.5> 456 46<257 295.5> 560 150<261.5 312.5>
VStem: 34 159<187 284.5> 208 158<616 654>
AnchorPoint: "Anchor-3" 287 690 basechar 0
AnchorPoint: "Anchor-2" 269 0 basechar 0
LayerCount: 2
Fore
SplineSet
208 635 m 0
 208 673 236 710 287 710 c 0
 338 710 366 673 366 635 c 0
 366 597 338 560 287 560 c 0
 236 560 208 597 208 635 c 0
34 241 m 0
 34 328 60 393 102 435 c 0
 147 480 209 502 287 502 c 0
 378 502 478 463 478 392 c 0
 478 348 430 330 395 330 c 0
 369 330 354 342 347 365 c 0
 330 425 313 456 278 456 c 0
 236 456 193 399 193 265 c 0
 193 109 256 65 321 65 c 0
 376 65 415 88 449 156 c 1
 484 140 l 1
 445 16 352 -12 269 -12 c 0
 128 -12 34 73 34 241 c 0
EndSplineSet
EndChar

StartChar: Ccaron
Encoding: 268 268 204
Width: 689
GlyphClass: 2
Flags: MW
HStem: -15 46<333 443> 661 46<352.5 448 352.5 478> 736 105<417 428 417 429.5>
VStem: 42 177<298.5 389> 600 38<484 663>
AnchorPoint: "Anchor-3" 423 896 basechar 0
AnchorPoint: "Anchor-2" 408 0 basechar 0
LayerCount: 2
Fore
SplineSet
235 886 m 1
 254 916 l 1
 384 856 l 2
 398 849 412 841 422 841 c 0
 434 841 449 849 462 856 c 2
 593 916 l 1
 611 886 l 1
 469 759 l 2
 455 746 437 736 422 736 c 0
 408 736 393 745 377 760 c 2
 235 886 l 1
42 339 m 0
 42 439 67 534 128 602 c 0
 187 668 282 707 423 707 c 0
 473 707 578 699 638 663 c 1
 638 484 l 1
 600 484 l 1
 577 556 542 661 414 661 c 0
 233 661 219 428 219 355 c 0
 219 242 244 31 422 31 c 0
 535 31 578 118 616 228 c 1
 654 228 l 1
 642 33 l 1
 582 -3 478 -15 408 -15 c 0
 151 -15 42 125 42 339 c 0
EndSplineSet
EndChar

StartChar: ccaron
Encoding: 269 269 205
Width: 494
GlyphClass: 2
Flags: MW
HStem: -12 77<288.5 310.5> 456 46<257 295.5> 520 227<124 294>
VStem: 34 159<187 284.5> 100 374<720 720>
AnchorPoint: "Anchor-3" 287 727 basechar 0
AnchorPoint: "Anchor-2" 269 0 basechar 0
LayerCount: 2
Fore
SplineSet
100 720 m 1x28
 124 747 l 1
 249 653 l 2
 263 643 277 634 287 634 c 0
 298 634 311 643 325 653 c 2
 450 747 l 1
 474 720 l 1
 331 551 l 2
 316 534 301 520 287 520 c 0
 273 520 258 533 243 551 c 2
 100 720 l 1x28
34 241 m 0xd0
 34 328 60 393 102 435 c 0
 147 480 209 502 287 502 c 0
 378 502 478 463 478 392 c 0
 478 348 430 330 395 330 c 0
 369 330 354 342 347 365 c 0
 330 425 313 456 278 456 c 0
 236 456 193 399 193 265 c 0
 193 109 256 65 321 65 c 0
 376 65 415 88 449 156 c 1
 484 140 l 1
 445 16 352 -12 269 -12 c 0
 128 -12 34 73 34 241 c 0xd0
EndSplineSet
EndChar

StartChar: Dcaron
Encoding: 270 270 206
Width: 777
GlyphClass: 2
Flags: MW
HStem: 0 38<33 33 33 332> 0 46<320.5 332> 646 46<323.5 376 33 422> 654 38<33 376> 736 105<364 375 364 376.5>
VStem: 112 160<97 595 595 618> 558 177<221 409 187 449.5>
AnchorPoint: "Anchor-3" 370 911 basechar 0
AnchorPoint: "Anchor-2" 370 0 basechar 0
LayerCount: 2
Fore
SplineSet
182 886 m 1x08
 201 916 l 1
 331 856 l 2
 345 849 359 841 369 841 c 0
 381 841 396 849 409 856 c 2
 540 916 l 1
 558 886 l 1
 416 759 l 2
 402 746 384 736 369 736 c 0
 355 736 340 745 324 760 c 2
 182 886 l 1x08
33 0 m 1x86
 33 38 l 1
 104 41 112 46 112 97 c 2
 112 595 l 2
 112 646 104 651 33 654 c 1
 33 692 l 1x96
 376 692 l 1
 506 691 590 663 648 606 c 0
 706 549 735 465 735 353 c 0
 735 21 488 0 332 0 c 2x66
 33 0 l 1x86
272 90 m 2
 272 58 289 46 352 46 c 0
 450 46 558 89 558 353 c 0
 558 546 489 646 355 646 c 0x66
 292 646 272 641 272 618 c 2
 272 90 l 2
EndSplineSet
EndChar

StartChar: dcaron
Encoding: 271 271 207
Width: 680
GlyphClass: 2
Flags: MW
HStem: -12 77<171.5 334> 0 38<380 596> 456 46<276 313 258.5 323> 532 279<626 626> 679 36<321 321> 722 20<524 524>
VStem: 34 159<192 281> 380 151<0 87 50 87 152 358 358 368.5 489 621 621 641> 610 93<634 736>
LayerCount: 2
Fore
SplineSet
559 749 m 0x1080
 559 788 583 811 623 811 c 0
 676 811 703 764 703 708 c 0
 703 644 667 577 626 532 c 1
 594 555 l 1
 609 587 610 621 610 647 c 0
 610 689 559 706 559 749 c 0x1080
34 236 m 0xaf
 34 326 62 393 109 437 c 0
 155 480 221 502 296 502 c 0
 330 502 358 498 380 489 c 1
 380 621 l 2
 380 661 372 670 356 673 c 2
 321 679 l 1
 321 715 l 1
 524 742 l 1
 531 736 l 1
 531 87 l 2
 531 45 539 41 596 38 c 1
 596 0 l 1
 380 0 l 1x6f
 380 50 l 1
 326 7 272 -12 235 -12 c 0
 108 -12 34 90 34 236 c 0xaf
193 256 m 0
 193 128 237 65 302 65 c 0xaf
 366 65 380 112 380 152 c 2
 380 358 l 2
 380 379 380 402 372 417 c 0
 362 437 342 456 304 456 c 0
 248 456 193 403 193 256 c 0
EndSplineSet
EndChar

StartChar: Dcroat
Encoding: 272 272 208
Width: 777
GlyphClass: 2
Flags: MW
HStem: 0 38<33 33 33 332> 0 46<320.5 332> 308 87<44 112 44 112 272 355> 646 46<323.5 376 33 422> 654 38<33 376>
VStem: 112 160<97 308 395 595 595 618> 558 177<221 409 187 449.5>
LayerCount: 2
Fore
SplineSet
33 0 m 1xa6
 33 38 l 1
 104 41 112 46 112 97 c 2
 112 308 l 1
 44 308 l 1
 44 395 l 1
 112 395 l 1
 112 595 l 2
 112 646 104 651 33 654 c 1
 33 692 l 1xae
 376 692 l 1
 506 691 590 663 648 606 c 0
 706 549 735 465 735 353 c 0
 735 21 488 0 332 0 c 2x76
 33 0 l 1xa6
272 90 m 2
 272 58 289 46 352 46 c 0
 450 46 558 89 558 353 c 0
 558 546 489 646 355 646 c 0x76
 292 646 272 641 272 618 c 2
 272 395 l 1
 355 395 l 1
 355 308 l 1
 272 308 l 1
 272 90 l 2
EndSplineSet
EndChar

StartChar: dcroat
Encoding: 273 273 209
Width: 605
GlyphClass: 2
Flags: MW
HStem: -12 77<171.5 334> 0 38<380 596> 456 46<276 313 258.5 323> 554 87<285 379 285 380 285 379 531 596> 679 36<321 321> 722 20G<524 524>
VStem: 34 159<192 281> 380 151<0 87 50 87 152 358 358 368.5 489 554>
LayerCount: 2
Fore
SplineSet
34 236 m 0xbf
 34 326 62 393 109 437 c 0
 155 480 221 502 296 502 c 0
 330 502 358 498 380 489 c 1
 380 554 l 1
 285 554 l 1
 285 641 l 1
 379 641 l 1
 377 664 369 670 356 673 c 2
 321 679 l 1
 321 715 l 1
 524 742 l 1
 531 736 l 1
 531 641 l 1
 596 641 l 1
 596 554 l 1
 531 554 l 1
 531 87 l 2
 531 45 539 41 596 38 c 1
 596 0 l 1
 380 0 l 1x7f
 380 50 l 1
 326 7 272 -12 235 -12 c 0
 108 -12 34 90 34 236 c 0xbf
193 256 m 0
 193 128 237 65 302 65 c 0xbf
 366 65 380 112 380 152 c 2
 380 358 l 2
 380 379 380 402 372 417 c 0
 362 437 342 456 304 456 c 0
 248 456 193 403 193 256 c 0
EndSplineSet
EndChar

StartChar: Emacron
Encoding: 274 274 210
Width: 629
GlyphClass: 2
Flags: MW
HStem: 0 38<33 33 33 592> 0 46<349 454 349 592> 337 52<272 367 272 367> 646 46<293 307 307 382> 654 38<33 572> 765 87<143 493 143 493>
VStem: 112 160<97 119 119 337 389 595 595 610> 459 38<247 479 247 479> 534 38<507 692> 566 38<208 208>
AnchorPoint: "Anchor-3" 318 847 basechar 0
AnchorPoint: "Anchor-2" 318 0 basechar 0
LayerCount: 2
Fore
SplineSet
143 765 m 1x04
 143 852 l 1
 493 852 l 1
 493 765 l 1
 143 765 l 1x04
33 0 m 1xa340
 33 38 l 1
 104 41 112 46 112 97 c 2
 112 595 l 2
 112 646 104 651 33 654 c 1
 33 692 l 1
 572 692 l 1xab80
 572 507 l 1
 534 507 l 1
 503 606 485 646 382 646 c 2
 307 646 l 2
 279 646 272 639 272 610 c 2
 272 389 l 1
 367 389 l 2
 430 389 443 406 459 479 c 1
 497 479 l 1
 497 247 l 1
 459 247 l 1
 443 320 430 337 367 337 c 2
 272 337 l 1
 272 119 l 2
 272 55 303 46 395 46 c 0x7380
 513 46 530 101 566 208 c 1
 604 208 l 1
 592 0 l 1
 33 0 l 1xa340
EndSplineSet
EndChar

StartChar: emacron
Encoding: 275 275 211
Width: 519
GlyphClass: 2
Flags: MW
HStem: -12 77<277 338.5> 252 48<193 317 317 328.5 193 451 193 317> 456 46<244.5 307.5> 587 87<124 435 124 435>
VStem: 34 159<199.5 252 300 315> 124 311<587 674 587 674> 348 157<319.5 335 278 356.5>
AnchorPoint: "Anchor-3" 280 654 basechar 0
AnchorPoint: "Anchor-2" 279 0 basechar 0
LayerCount: 2
Fore
SplineSet
124 587 m 1x14
 124 674 l 1
 435 674 l 1
 435 587 l 1
 124 587 l 1x14
34 245 m 0xea
 34 385 101 502 281 502 c 0
 474 502 505 376 505 294 c 0
 505 262 487 252 451 252 c 2
 193 252 l 1
 193 147 227 65 327 65 c 0
 388 65 431 97 461 154 c 1
 497 134 l 1
 463 46 398 -12 279 -12 c 0
 93 -12 34 109 34 245 c 0xea
193 300 m 1
 317 300 l 2
 340 300 348 306 348 333 c 0
 348 380 338 456 277 456 c 0
 212 456 193 372 193 300 c 1
EndSplineSet
EndChar

StartChar: Ebreve
Encoding: 276 276 212
Width: 629
GlyphClass: 2
Flags: MW
HStem: 0 38<33 33 33 592> 0 46<349 454 349 592> 337 52<272 367 272 367> 646 46<293 307 307 382> 654 38<33 572> 746 81<268.5 367.5 268.5 387.5>
VStem: 112 160<97 119 119 337 389 595 595 610> 153 41<859 896> 442 41<859 896> 459 38<247 479 247 479> 534 38<507 692> 566 38<208 208>
AnchorPoint: "Anchor-3" 318 891 basechar 0
AnchorPoint: "Anchor-2" 318 0 basechar 0
LayerCount: 2
Fore
SplineSet
153 896 m 1x0580
 194 896 l 1
 196 872 219 827 318 827 c 0
 417 827 440 872 442 896 c 1
 483 896 l 1
 483 822 457 746 318 746 c 0
 179 746 153 822 153 896 c 1x0580
33 0 m 1xa250
 33 38 l 1
 104 41 112 46 112 97 c 2
 112 595 l 2
 112 646 104 651 33 654 c 1
 33 692 l 1
 572 692 l 1xaa60
 572 507 l 1
 534 507 l 1
 503 606 485 646 382 646 c 2
 307 646 l 2
 279 646 272 639 272 610 c 2
 272 389 l 1
 367 389 l 2
 430 389 443 406 459 479 c 1
 497 479 l 1
 497 247 l 1
 459 247 l 1
 443 320 430 337 367 337 c 2
 272 337 l 1
 272 119 l 2
 272 55 303 46 395 46 c 0x7260
 513 46 530 101 566 208 c 1
 604 208 l 1
 592 0 l 1
 33 0 l 1xa250
EndSplineSet
EndChar

StartChar: ebreve
Encoding: 277 277 213
Width: 519
GlyphClass: 2
Flags: MW
HStem: -12 77<277 338.5> 252 48<193 317 317 328.5 193 451 193 317> 456 46<244.5 307.5> 556 85<228 330 228 351>
VStem: 34 159<199.5 252 300 315> 120 38<678 716> 348 157<319.5 335 278 356.5> 400 39<681 716>
AnchorPoint: "Anchor-3" 280 696 basechar 0
AnchorPoint: "Anchor-2" 279 0 basechar 0
LayerCount: 2
Fore
SplineSet
120 716 m 1x15
 158 716 l 1
 160 692 177 641 279 641 c 0
 381 641 398 692 400 716 c 1
 439 716 l 1
 439 646 422 556 280 556 c 0
 137 556 120 640 120 716 c 1x15
34 245 m 0xea
 34 385 101 502 281 502 c 0
 474 502 505 376 505 294 c 0
 505 262 487 252 451 252 c 2
 193 252 l 1
 193 147 227 65 327 65 c 0
 388 65 431 97 461 154 c 1
 497 134 l 1
 463 46 398 -12 279 -12 c 0
 93 -12 34 109 34 245 c 0xea
193 300 m 1
 317 300 l 2
 340 300 348 306 348 333 c 0
 348 380 338 456 277 456 c 0
 212 456 193 372 193 300 c 1
EndSplineSet
EndChar

StartChar: Edotaccent
Encoding: 278 278 214
Width: 629
GlyphClass: 2
Flags: MW
HStem: 0 38<33 33 33 592> 0 46<349 454 349 592> 337 52<272 367 272 367> 646 46<293 307 307 382> 654 38<33 572> 731 150<292.5 343.5>
VStem: 112 160<97 119 119 337 389 595 595 610> 239 158<787 825> 459 38<247 479 247 479> 534 38<507 692> 566 38<208 208>
AnchorPoint: "Anchor-3" 318 876 basechar 0
AnchorPoint: "Anchor-2" 318 0 basechar 0
LayerCount: 2
Fore
SplineSet
239 806 m 0x05
 239 844 267 881 318 881 c 0
 369 881 397 844 397 806 c 0
 397 768 369 731 318 731 c 0
 267 731 239 768 239 806 c 0x05
33 0 m 1xa2a0
 33 38 l 1
 104 41 112 46 112 97 c 2
 112 595 l 2
 112 646 104 651 33 654 c 1
 33 692 l 1
 572 692 l 1xaac0
 572 507 l 1
 534 507 l 1
 503 606 485 646 382 646 c 2
 307 646 l 2
 279 646 272 639 272 610 c 2
 272 389 l 1
 367 389 l 2
 430 389 443 406 459 479 c 1
 497 479 l 1
 497 247 l 1
 459 247 l 1
 443 320 430 337 367 337 c 2
 272 337 l 1
 272 119 l 2
 272 55 303 46 395 46 c 0x72c0
 513 46 530 101 566 208 c 1
 604 208 l 1
 592 0 l 1
 33 0 l 1xa2a0
EndSplineSet
EndChar

StartChar: edotaccent
Encoding: 279 279 215
Width: 519
GlyphClass: 2
Flags: MW
HStem: -12 77<277 338.5> 252 48<193 317 317 328.5 193 451 193 317> 456 46<244.5 307.5> 560 150<254.5 305.5>
VStem: 34 159<199.5 252 300 315> 201 158<616 654> 348 157<319.5 335 278 356.5>
AnchorPoint: "Anchor-3" 280 690 basechar 0
AnchorPoint: "Anchor-2" 279 0 basechar 0
LayerCount: 2
Fore
SplineSet
201 635 m 0x14
 201 673 229 710 280 710 c 0
 331 710 359 673 359 635 c 0
 359 597 331 560 280 560 c 0
 229 560 201 597 201 635 c 0x14
34 245 m 0xea
 34 385 101 502 281 502 c 0
 474 502 505 376 505 294 c 0
 505 262 487 252 451 252 c 2
 193 252 l 1
 193 147 227 65 327 65 c 0
 388 65 431 97 461 154 c 1
 497 134 l 1
 463 46 398 -12 279 -12 c 0
 93 -12 34 109 34 245 c 0xea
193 300 m 1
 317 300 l 2
 340 300 348 306 348 333 c 0
 348 380 338 456 277 456 c 0
 212 456 193 372 193 300 c 1
EndSplineSet
EndChar

StartChar: Eogonek
Encoding: 280 280 216
Width: 629
GlyphClass: 2
Flags: MW
HStem: -242 54<405.5 505.5> 0 38<33 33 33 461> 0 46<349 454 349 461> 337 52<272 367 272 367> 646 46<293 307 307 382> 654 38<33 572>
VStem: 112 160<97 119 119 337 389 595 595 610> 339 101<-128 -117.5> 459 38<247 479 247 479> 534 38<507 692>
AnchorPoint: "Anchor-3" 302 707 basechar 0
LayerCount: 2
Fore
SplineSet
33 0 m 1xd3c0
 33 38 l 1
 104 41 112 46 112 97 c 2
 112 595 l 2
 112 646 104 651 33 654 c 1
 33 692 l 1
 572 692 l 1xd7c0
 572 507 l 1
 534 507 l 1
 503 606 485 646 382 646 c 2
 307 646 l 2
 279 646 272 639 272 610 c 2
 272 389 l 1
 367 389 l 2
 430 389 443 406 459 479 c 1
 497 479 l 1
 497 247 l 1
 459 247 l 1
 443 320 430 337 367 337 c 2
 272 337 l 1
 272 119 l 2
 272 55 303 46 395 46 c 0xbbc0
 513 46 530 101 566 208 c 1
 604 208 l 1
 592 0 l 1
 520 0 l 1
 466 -44 440 -88 440 -128 c 0
 441 -168 465 -188 498 -188 c 0
 513 -188 534 -183 547 -175 c 1
 562 -202 l 1
 525 -233 488 -242 457 -242 c 0
 354 -242 339 -184 339 -147 c 0
 339 -88 395 -35 461 0 c 1
 33 0 l 1xd3c0
EndSplineSet
EndChar

StartChar: eogonek
Encoding: 281 281 217
Width: 519
GlyphClass: 2
Flags: MW
HStem: -242 54<299.5 399.5> -12 77<277 291> 252 48<193 317 317 328.5 193 451 193 317> 456 46<244.5 307.5>
VStem: 34 159<199.5 252 300 315> 233 101<-148 -116.5> 348 157<319.5 335 278 356.5>
AnchorPoint: "Anchor-3" 280 502 basechar 0
LayerCount: 2
Fore
SplineSet
34 245 m 0
 34 385 101 502 281 502 c 0
 474 502 505 376 505 294 c 0
 505 262 487 252 451 252 c 2
 193 252 l 1
 193 147 227 65 327 65 c 0
 388 65 431 97 461 154 c 1
 497 134 l 1
 479 86 441 40 419 18 c 0
 387 -14 334 -75 334 -128 c 0
 334 -168 359 -188 392 -188 c 0
 407 -188 428 -183 441 -175 c 1
 456 -202 l 1
 419 -233 382 -242 351 -242 c 0
 248 -242 233 -184 233 -147 c 0
 233 -86 286 -40 342 -4 c 1
 319 -10 303 -12 279 -12 c 0
 93 -12 34 109 34 245 c 0
193 300 m 1
 317 300 l 2
 340 300 348 306 348 333 c 0
 348 380 338 456 277 456 c 0
 212 456 193 372 193 300 c 1
EndSplineSet
EndChar

StartChar: Ecaron
Encoding: 282 282 218
Width: 629
GlyphClass: 2
Flags: MW
HStem: 0 38<33 33 33 592> 0 46<349 454 349 592> 337 52<272 367 272 367> 646 46<293 307 307 382> 654 38<33 572> 736 105<312 323 312 324.5>
VStem: 112 160<97 119 119 337 389 595 595 610> 459 38<247 479 247 479> 534 38<507 692> 566 38<208 208>
AnchorPoint: "Anchor-3" 318 911 basechar 0
AnchorPoint: "Anchor-2" 318 0 basechar 0
LayerCount: 2
Fore
SplineSet
130 886 m 1x04
 149 916 l 1
 279 856 l 2
 293 849 307 841 317 841 c 0
 329 841 344 849 357 856 c 2
 488 916 l 1
 506 886 l 1
 364 759 l 2
 350 746 332 736 317 736 c 0
 303 736 288 745 272 760 c 2
 130 886 l 1x04
33 0 m 1xa340
 33 38 l 1
 104 41 112 46 112 97 c 2
 112 595 l 2
 112 646 104 651 33 654 c 1
 33 692 l 1
 572 692 l 1xab80
 572 507 l 1
 534 507 l 1
 503 606 485 646 382 646 c 2
 307 646 l 2
 279 646 272 639 272 610 c 2
 272 389 l 1
 367 389 l 2
 430 389 443 406 459 479 c 1
 497 479 l 1
 497 247 l 1
 459 247 l 1
 443 320 430 337 367 337 c 2
 272 337 l 1
 272 119 l 2
 272 55 303 46 395 46 c 0x7380
 513 46 530 101 566 208 c 1
 604 208 l 1
 592 0 l 1
 33 0 l 1xa340
EndSplineSet
EndChar

StartChar: ecaron
Encoding: 283 283 219
Width: 519
GlyphClass: 2
Flags: MW
HStem: -12 77<277 338.5> 252 48<193 317 317 328.5 193 451 193 317> 456 46<244.5 307.5> 520 227<117 287>
VStem: 34 159<199.5 252 300 315> 93 374<720 720> 348 157<319.5 335 278 356.5>
AnchorPoint: "Anchor-3" 280 727 basechar 0
AnchorPoint: "Anchor-2" 279 0 basechar 0
LayerCount: 2
Fore
SplineSet
93 720 m 1x14
 117 747 l 1
 242 653 l 2
 256 643 270 634 280 634 c 0
 291 634 304 643 318 653 c 2
 443 747 l 1
 467 720 l 1
 324 551 l 2
 309 534 294 520 280 520 c 0
 266 520 251 533 236 551 c 2
 93 720 l 1x14
34 245 m 0xea
 34 385 101 502 281 502 c 0
 474 502 505 376 505 294 c 0
 505 262 487 252 451 252 c 2
 193 252 l 1
 193 147 227 65 327 65 c 0
 388 65 431 97 461 154 c 1
 497 134 l 1
 463 46 398 -12 279 -12 c 0
 93 -12 34 109 34 245 c 0xea
193 300 m 1
 317 300 l 2
 340 300 348 306 348 333 c 0
 348 380 338 456 277 456 c 0
 212 456 193 372 193 300 c 1
EndSplineSet
EndChar

StartChar: Gcircumflex
Encoding: 284 284 220
Width: 726
GlyphClass: 2
Flags: MW
HStem: -15 46<377 444.5 319.5 448> 276 38<407 709 407 709> 661 46<331.5 453.5 254 474.5> 800 105<408 419>
VStem: 42 177<317.5 405 317.5 410> 226 376<755 755> 493 160<76 217 217 219 33 241.5> 605 38<481 663>
AnchorPoint: "Anchor-3" 414 885 basechar 0
AnchorPoint: "Anchor-2" 410 0 basechar 0
LayerCount: 2
Fore
SplineSet
226 755 m 1x14
 368 881 l 2
 384 896 399 905 413 905 c 0
 428 905 446 895 460 882 c 2
 602 755 l 1
 584 725 l 1
 453 785 l 2
 440 792 425 800 413 800 c 0
 403 800 389 792 375 785 c 2
 245 725 l 1
 226 755 l 1x14
42 341 m 0xea
 42 479 94 707 414 707 c 0
 493 707 580 697 643 663 c 1
 643 481 l 1
 605 481 l 1xe9
 577 567 530 661 419 661 c 0
 244 661 219 456 219 354 c 0
 219 281 229 31 410 31 c 0
 479 31 493 41 493 76 c 2
 493 217 l 2
 493 266 485 271 407 276 c 1
 407 314 l 1
 709 314 l 1
 709 276 l 1
 661 271 653 266 653 219 c 2
 653 33 l 1
 583 2 486 -15 410 -15 c 0
 344 -15 250 -9 177 40 c 0
 101 91 42 183 42 341 c 0xea
EndSplineSet
EndChar

StartChar: gcircumflex
Encoding: 285 285 221
Width: 533
GlyphClass: 2
Flags: MW
HStem: -242 46<253.5 294> -16 121<251 315.5> 174 46<254 288 243.5 319> 456 46<246 285.5> 520 227<95 265 251 421>
VStem: 25 135<-121.5 -72 -121.5 -62.5> 34 156<300.5 371> 49 125<73 150> 71 374<547 547> 340 143<300.5 351 276.5 378> 411 121<-88 -65.5>
AnchorPoint: "Anchor-3" 258 717 basechar 0
AnchorPoint: "Anchor-2" 272 -230 basechar 0
LayerCount: 2
Fore
SplineSet
71 547 m 1x0880
 214 716 l 2
 229 734 244 747 258 747 c 0
 272 747 287 733 302 716 c 2
 445 547 l 1
 421 520 l 1
 296 614 l 2
 282 624 269 633 258 633 c 0
 248 633 234 624 220 614 c 2
 95 520 l 1
 71 547 l 1x0880
25 -96 m 0xf420
 25 -29 99 -10 141 -1 c 1
 141 1 l 1
 97 11 49 51 49 95 c 0xf1
 49 135 91 171 156 187 c 1
 156 189 l 1
 95 199 34 249 34 332 c 0xf2
 34 410 87 502 267 502 c 0
 321 502 377 488 410 469 c 1
 535 512 l 1
 546 501 l 1
 526 426 l 1
 460 414 l 1
 473 397 483 366 483 336 c 0
 483 217 378 174 260 174 c 0
 248 174 233 174 214 176 c 1
 200 173 174 161 174 139 c 0xf140
 174 121 192 105 241 105 c 2
 334 105 l 2
 439 105 532 68 532 -52 c 0
 532 -124 494 -176 439 -205 c 0
 389 -232 316 -242 272 -242 c 0
 129 -242 25 -194 25 -96 c 0xf420
160 -86 m 0xf420
 160 -157 220 -196 287 -196 c 0
 354 -196 411 -167 411 -96 c 0
 411 -35 358 -16 273 -16 c 0
 229 -16 199 -22 185 -31 c 0
 171 -41 160 -58 160 -86 c 0xf420
190 335 m 0xf240
 190 266 222 220 265 220 c 0
 311 220 340 265 340 336 c 0
 340 420 305 456 266 456 c 0
 226 456 190 420 190 335 c 0xf240
EndSplineSet
EndChar

StartChar: Gbreve
Encoding: 286 286 222
Width: 726
GlyphClass: 2
Flags: MW
HStem: -15 46<377 444.5 319.5 448> 276 38<407 709 407 709> 661 46<331.5 453.5 254 474.5> 746 81<364.5 463.5 364.5 483.5>
VStem: 42 177<317.5 405 317.5 410> 249 41<859 896> 493 160<76 217 217 219 33 241.5> 538 41<859 896> 605 38<481 663>
AnchorPoint: "Anchor-3" 414 876 basechar 0
AnchorPoint: "Anchor-2" 410 0 basechar 0
LayerCount: 2
Fore
SplineSet
249 896 m 1x15
 290 896 l 1
 292 872 315 827 414 827 c 0
 513 827 536 872 538 896 c 1
 579 896 l 1
 579 822 553 746 414 746 c 0
 275 746 249 822 249 896 c 1x15
42 341 m 0xea
 42 479 94 707 414 707 c 0
 493 707 580 697 643 663 c 1
 643 481 l 1
 605 481 l 1xe880
 577 567 530 661 419 661 c 0
 244 661 219 456 219 354 c 0
 219 281 229 31 410 31 c 0
 479 31 493 41 493 76 c 2
 493 217 l 2
 493 266 485 271 407 276 c 1
 407 314 l 1
 709 314 l 1
 709 276 l 1
 661 271 653 266 653 219 c 2
 653 33 l 1
 583 2 486 -15 410 -15 c 0
 344 -15 250 -9 177 40 c 0
 101 91 42 183 42 341 c 0xea
EndSplineSet
EndChar

StartChar: gbreve
Encoding: 287 287 223
Width: 533
GlyphClass: 2
Flags: MW
HStem: -242 46<253.5 294> -16 121<251 315.5> 174 46<254 288 243.5 319> 456 46<246 285.5> 556 85<206 308 206 329>
VStem: 25 135<-121.5 -72 -121.5 -62.5> 34 156<300.5 371> 49 125<73 150> 98 38<678 716> 340 143<300.5 351 276.5 378> 378 39<681 716> 411 121<-88 -65.5>
AnchorPoint: "Anchor-3" 258 686 basechar 0
AnchorPoint: "Anchor-2" 272 -230 basechar 0
LayerCount: 2
Fore
SplineSet
98 716 m 1x08a0
 136 716 l 1
 138 692 155 641 257 641 c 0
 359 641 376 692 378 716 c 1
 417 716 l 1
 417 646 400 556 258 556 c 0
 115 556 98 640 98 716 c 1x08a0
25 -96 m 0xf410
 25 -29 99 -10 141 -1 c 1
 141 1 l 1
 97 11 49 51 49 95 c 0xf1
 49 135 91 171 156 187 c 1
 156 189 l 1
 95 199 34 249 34 332 c 0xf2
 34 410 87 502 267 502 c 0
 321 502 377 488 410 469 c 1
 535 512 l 1
 546 501 l 1
 526 426 l 1
 460 414 l 1
 473 397 483 366 483 336 c 0
 483 217 378 174 260 174 c 0
 248 174 233 174 214 176 c 1
 200 173 174 161 174 139 c 0xf140
 174 121 192 105 241 105 c 2
 334 105 l 2
 439 105 532 68 532 -52 c 0
 532 -124 494 -176 439 -205 c 0
 389 -232 316 -242 272 -242 c 0
 129 -242 25 -194 25 -96 c 0xf410
160 -86 m 0xf410
 160 -157 220 -196 287 -196 c 0
 354 -196 411 -167 411 -96 c 0
 411 -35 358 -16 273 -16 c 0
 229 -16 199 -22 185 -31 c 0
 171 -41 160 -58 160 -86 c 0xf410
190 335 m 0xf240
 190 266 222 220 265 220 c 0
 311 220 340 265 340 336 c 0
 340 420 305 456 266 456 c 0
 226 456 190 420 190 335 c 0xf240
EndSplineSet
EndChar

StartChar: Gdotaccent
Encoding: 288 288 224
Width: 726
GlyphClass: 2
Flags: MW
HStem: -15 46<377 444.5 319.5 448> 276 38<407 709 407 709> 661 46<331.5 453.5 254 474.5> 731 150<388.5 439.5>
VStem: 42 177<317.5 405 317.5 410> 335 158<787 825> 493 160<76 217 217 219 33 241.5> 605 38<481 663>
AnchorPoint: "Anchor-3" 414 861 basechar 0
AnchorPoint: "Anchor-2" 410 0 basechar 0
LayerCount: 2
Fore
SplineSet
335 806 m 0x14
 335 844 363 881 414 881 c 0
 465 881 493 844 493 806 c 0
 493 768 465 731 414 731 c 0
 363 731 335 768 335 806 c 0x14
42 341 m 0xea
 42 479 94 707 414 707 c 0
 493 707 580 697 643 663 c 1
 643 481 l 1
 605 481 l 1xe9
 577 567 530 661 419 661 c 0
 244 661 219 456 219 354 c 0
 219 281 229 31 410 31 c 0
 479 31 493 41 493 76 c 2
 493 217 l 2
 493 266 485 271 407 276 c 1
 407 314 l 1
 709 314 l 1
 709 276 l 1
 661 271 653 266 653 219 c 2
 653 33 l 1
 583 2 486 -15 410 -15 c 0
 344 -15 250 -9 177 40 c 0
 101 91 42 183 42 341 c 0xea
EndSplineSet
EndChar

StartChar: gdotaccent
Encoding: 289 289 225
Width: 533
GlyphClass: 2
Flags: MW
HStem: -242 46<253.5 294> -16 121<251 315.5> 174 46<254 288 243.5 319> 456 46<246 285.5> 560 150<232.5 283.5>
VStem: 25 135<-121.5 -72 -121.5 -62.5> 34 156<300.5 371> 49 125<73 150> 179 158<616 654> 340 143<300.5 351 276.5 378> 411 121<-88 -65.5>
AnchorPoint: "Anchor-3" 258 680 basechar 0
AnchorPoint: "Anchor-2" 272 -230 basechar 0
LayerCount: 2
Fore
SplineSet
179 635 m 0x0880
 179 673 207 710 258 710 c 0
 309 710 337 673 337 635 c 0
 337 597 309 560 258 560 c 0
 207 560 179 597 179 635 c 0x0880
25 -96 m 0xf420
 25 -29 99 -10 141 -1 c 1
 141 1 l 1
 97 11 49 51 49 95 c 0xf1
 49 135 91 171 156 187 c 1
 156 189 l 1
 95 199 34 249 34 332 c 0xf2
 34 410 87 502 267 502 c 0
 321 502 377 488 410 469 c 1
 535 512 l 1
 546 501 l 1
 526 426 l 1
 460 414 l 1
 473 397 483 366 483 336 c 0
 483 217 378 174 260 174 c 0
 248 174 233 174 214 176 c 1
 200 173 174 161 174 139 c 0xf140
 174 121 192 105 241 105 c 2
 334 105 l 2
 439 105 532 68 532 -52 c 0
 532 -124 494 -176 439 -205 c 0
 389 -232 316 -242 272 -242 c 0
 129 -242 25 -194 25 -96 c 0xf420
160 -86 m 0xf420
 160 -157 220 -196 287 -196 c 0
 354 -196 411 -167 411 -96 c 0
 411 -35 358 -16 273 -16 c 0
 229 -16 199 -22 185 -31 c 0
 171 -41 160 -58 160 -86 c 0xf420
190 335 m 0xf240
 190 266 222 220 265 220 c 0
 311 220 340 265 340 336 c 0
 340 420 305 456 266 456 c 0
 226 456 190 420 190 335 c 0xf240
EndSplineSet
EndChar

StartChar: Hcircumflex
Encoding: 292 292 226
Width: 807
GlyphClass: 2
Flags: MW
HStem: 0 38<33 33 33 351> 341 48<272 535 272 535> 654 38<33 351 33 351> 800 105<398 409>
VStem: 112 160<97 341 389 595> 216 376<755 755> 535 160<97 341 341 341 389 595>
AnchorPoint: "Anchor-3" 404 900 basechar 0
AnchorPoint: "Anchor-2" 404 0 basechar 0
LayerCount: 2
Fore
SplineSet
216 755 m 1x14
 358 881 l 2
 374 896 389 905 403 905 c 0
 418 905 436 895 450 882 c 2
 592 755 l 1
 574 725 l 1
 443 785 l 2
 430 792 415 800 403 800 c 0
 393 800 379 792 365 785 c 2
 235 725 l 1
 216 755 l 1x14
33 0 m 1xea
 33 38 l 1
 104 41 112 46 112 97 c 2
 112 595 l 2
 112 646 104 651 33 654 c 1
 33 692 l 1
 351 692 l 1
 351 654 l 1
 280 651 272 646 272 595 c 2
 272 389 l 1
 535 389 l 1
 535 595 l 2
 535 646 527 651 456 654 c 1
 456 692 l 1
 774 692 l 1
 774 654 l 1
 703 651 695 646 695 595 c 2
 695 97 l 2
 695 46 703 41 774 38 c 1
 774 0 l 1
 456 0 l 1
 456 38 l 1
 527 41 535 46 535 97 c 2
 535 341 l 1
 272 341 l 1
 272 97 l 2
 272 46 280 41 351 38 c 1
 351 0 l 1
 33 0 l 1xea
EndSplineSet
EndChar

StartChar: hcircumflex
Encoding: 293 293 227
Width: 631
GlyphClass: 2
Flags: MW
HStem: 0 38<19 19 19 288> 425 77<306 456.5> 679 36<25 25> 722 20<228 228> 760 227<157 327 313 483>
VStem: 84 151<87 317 433 621 621 641> 133 374<787 787> 406 151<80 87 87 332 332 347>
AnchorPoint: "Anchor-3" 320 967 basechar 0
AnchorPoint: "Anchor-2" 320 0 basechar 0
LayerCount: 2
Fore
SplineSet
133 787 m 1x0a
 276 956 l 2
 291 974 306 987 320 987 c 0
 334 987 349 973 364 956 c 2
 507 787 l 1
 483 760 l 1
 358 854 l 2
 344 864 331 873 320 873 c 0
 310 873 296 864 282 854 c 2
 157 760 l 1
 133 787 l 1x0a
19 0 m 1xf5
 19 38 l 1
 76 41 84 45 84 87 c 2
 84 621 l 2
 84 661 76 670 60 673 c 2
 25 679 l 1
 25 715 l 1
 228 742 l 1
 235 736 l 1
 235 433 l 1
 297 472 344 502 404 502 c 0
 509 502 557 441 557 347 c 2
 557 87 l 2
 557 45 565 41 622 38 c 1
 622 0 l 1
 353 0 l 1
 353 38 l 1
 374 40 l 2
 395 42 406 47 406 80 c 2
 406 332 l 2
 406 392 378 425 327 425 c 0
 285 425 258 402 245 376 c 0
 238 362 235 339 235 317 c 2
 235 80 l 2
 235 47 246 42 267 40 c 2
 288 38 l 1
 288 0 l 1
 19 0 l 1xf5
EndSplineSet
EndChar

StartChar: Hbar
Encoding: 294 294 228
Width: 807
GlyphClass: 2
Flags: MW
HStem: 0 38<33 33 33 351> 341 48<272 535 272 535> 553 46<42 112 42 112 272 535 695 765> 654 38<33 351 33 351>
VStem: 112 160<97 341 389 553 599 622.5> 535 160<97 341 341 341 389 553 599 622.5>
LayerCount: 2
Fore
SplineSet
33 0 m 1
 33 38 l 1
 104 41 112 46 112 97 c 2
 112 553 l 1
 42 553 l 1
 42 599 l 1
 112 599 l 1
 112 646 102 651 33 654 c 1
 33 692 l 1
 351 692 l 1
 351 654 l 1
 282 651 272 646 272 599 c 1
 535 599 l 1
 535 646 525 651 456 654 c 1
 456 692 l 1
 774 692 l 1
 774 654 l 1
 705 651 695 646 695 599 c 1
 765 599 l 1
 765 553 l 1
 695 553 l 1
 695 97 l 2
 695 46 703 41 774 38 c 1
 774 0 l 1
 456 0 l 1
 456 38 l 1
 527 41 535 46 535 97 c 2
 535 341 l 1
 272 341 l 1
 272 97 l 2
 272 46 280 41 351 38 c 1
 351 0 l 1
 33 0 l 1
272 389 m 1
 535 389 l 1
 535 553 l 1
 272 553 l 1
 272 389 l 1
EndSplineSet
EndChar

StartChar: hbar
Encoding: 295 295 229
Width: 631
GlyphClass: 2
Flags: MW
HStem: 0 38<19 288 19 19> 425 77<306 456.5> 560 45<17 84 17 84 235 438> 679 36<25 25> 722 20G<228 228>
VStem: 84 151<87 317 433 560 605 621 621 641> 406 151<80 87 87 332 332 347>
LayerCount: 2
Fore
SplineSet
17 560 m 1
 17 605 l 1
 84 605 l 1
 84 621 l 2
 84 661 76 670 60 673 c 2
 25 679 l 1
 25 715 l 1
 228 742 l 1
 235 736 l 1
 235 605 l 1
 438 605 l 1
 438 560 l 1
 235 560 l 1
 235 433 l 1
 297 472 344 502 404 502 c 0
 509 502 557 441 557 347 c 2
 557 87 l 2
 557 45 565 41 622 38 c 1
 622 0 l 1
 353 0 l 1
 353 38 l 1
 374 40 l 2
 395 42 406 47 406 80 c 2
 406 332 l 2
 406 392 378 425 327 425 c 0
 285 425 258 402 245 376 c 0
 238 362 235 339 235 317 c 2
 235 80 l 2
 235 47 246 42 267 40 c 2
 288 38 l 1
 288 0 l 1
 19 0 l 1
 19 38 l 1
 76 41 84 45 84 87 c 2
 84 560 l 1
 17 560 l 1
EndSplineSet
EndChar

StartChar: Itilde
Encoding: 296 296 230
Width: 384
GlyphClass: 2
Flags: MW
HStem: 0 38<33 33 33 351> 654 38<33 351 33 351> 736 85<285 311> 778 85<74 102> 856 20<373 373>
VStem: 112 160<97 595>
LayerCount: 2
Fore
SplineSet
33 0 m 1xc4
 33 38 l 1
 104 41 112 46 112 97 c 2
 112 595 l 2
 112 646 104 651 33 654 c 1
 33 692 l 1
 351 692 l 1
 351 654 l 1
 280 651 272 646 272 595 c 2
 272 97 l 2
 272 46 280 41 351 38 c 1
 351 0 l 1
 33 0 l 1xc4
-20 741 m 1x10
 -2 784 33 863 115 863 c 0x10
 143 863 175 853 207 842 c 1
 240 832 272 821 298 821 c 0
 335 821 351 837 373 876 c 1
 405 858 l 1
 387 815 352 736 270 736 c 0x28
 245 736 214 747 182 757 c 0
 150 768 117 778 87 778 c 0
 50 778 34 762 12 723 c 1
 -20 741 l 1x10
EndSplineSet
EndChar

StartChar: itilde
Encoding: 297 297 231
Width: 316
GlyphClass: 2
Flags: MW
HStem: 0 38<26 26 26 307> 437 36<32 32> 482 20<235 235> 566 85<259 285> 608 85<48 76> 686 20<347 347>
VStem: 91 151<87 381 381 401>
LayerCount: 2
Fore
SplineSet
26 0 m 1xe2
 26 38 l 1
 83 41 91 45 91 87 c 2
 91 381 l 2
 91 421 83 430 67 432 c 2
 32 437 l 1
 32 473 l 1
 235 502 l 1
 242 496 l 1
 242 87 l 2
 242 45 250 41 307 38 c 1
 307 0 l 1
 26 0 l 1xe2
-46 571 m 1x08
 -28 614 7 693 89 693 c 0x08
 117 693 149 683 181 672 c 1
 214 662 246 651 272 651 c 0
 309 651 325 667 347 706 c 1
 379 688 l 1
 361 645 326 566 244 566 c 0x14
 219 566 188 577 156 587 c 0
 124 598 91 608 61 608 c 0
 24 608 8 592 -14 553 c 1
 -46 571 l 1x08
EndSplineSet
EndChar

StartChar: Imacron
Encoding: 298 298 232
Width: 384
GlyphClass: 2
Flags: MW
HStem: 0 38<33 33 33 351> 654 38<33 351 33 351> 765 87<17 367 17 367>
VStem: 112 160<97 595>
AnchorPoint: "Anchor-3" 192 847 basechar 0
AnchorPoint: "Anchor-2" 192 0 basechar 0
LayerCount: 2
Fore
SplineSet
17 765 m 1
 17 852 l 1
 367 852 l 1
 367 765 l 1
 17 765 l 1
33 0 m 1
 33 38 l 1
 104 41 112 46 112 97 c 2
 112 595 l 2
 112 646 104 651 33 654 c 1
 33 692 l 1
 351 692 l 1
 351 654 l 1
 280 651 272 646 272 595 c 2
 272 97 l 2
 272 46 280 41 351 38 c 1
 351 0 l 1
 33 0 l 1
EndSplineSet
EndChar

StartChar: imacron
Encoding: 299 299 233
Width: 316
GlyphClass: 3
Flags: MW
HStem: 0 38<26 26 26 307> 437 36<32 32> 482 20<235 235> 587 87<10 321 10 321>
VStem: 10 311<587 674 587 674> 91 151<87 381 381 401>
AnchorPoint: "Anchor-3" 166 654 basechar 0
AnchorPoint: "Anchor-2" 166 0 basechar 0
LayerCount: 2
Fore
SplineSet
10 587 m 1x18
 10 674 l 1
 321 674 l 1
 321 587 l 1
 10 587 l 1x18
26 0 m 1xe4
 26 38 l 1
 83 41 91 45 91 87 c 2
 91 381 l 2
 91 421 83 430 67 432 c 2
 32 437 l 1
 32 473 l 1
 235 502 l 1
 242 496 l 1
 242 87 l 2
 242 45 250 41 307 38 c 1
 307 0 l 1
 26 0 l 1xe4
EndSplineSet
Ligature2: "'liga' Standard Ligatures in Latin lookup 1 subtable" i uni0304
EndChar

StartChar: Ibreve
Encoding: 300 300 234
Width: 384
GlyphClass: 2
Flags: MW
HStem: 0 38<33 33 33 351> 654 38<33 351 33 351> 746 81<142.5 241.5 142.5 261.5>
VStem: 27 41<859 896> 112 160<97 595> 316 41<859 896>
CounterMasks: 1 1c
AnchorPoint: "Anchor-3" 192 891 basechar 0
AnchorPoint: "Anchor-2" 192 0 basechar 0
LayerCount: 2
Fore
SplineSet
27 896 m 1
 68 896 l 1
 70 872 93 827 192 827 c 0
 291 827 314 872 316 896 c 1
 357 896 l 1
 357 822 331 746 192 746 c 0
 53 746 27 822 27 896 c 1
33 0 m 1
 33 38 l 1
 104 41 112 46 112 97 c 2
 112 595 l 2
 112 646 104 651 33 654 c 1
 33 692 l 1
 351 692 l 1
 351 654 l 1
 280 651 272 646 272 595 c 2
 272 97 l 2
 272 46 280 41 351 38 c 1
 351 0 l 1
 33 0 l 1
EndSplineSet
EndChar

StartChar: ibreve
Encoding: 301 301 235
Width: 316
GlyphClass: 3
Flags: MW
HStem: 0 38<26 26 26 307> 437 36<32 32> 482 20<235 235> 556 85<114 216 114 237>
VStem: 6 38<678 716> 91 151<87 381 381 401> 286 39<681 716>
AnchorPoint: "Anchor-3" 166 696 basechar 0
AnchorPoint: "Anchor-2" 166 0 basechar 0
LayerCount: 2
Fore
SplineSet
6 716 m 1
 44 716 l 1
 46 692 63 641 165 641 c 0
 267 641 284 692 286 716 c 1
 325 716 l 1
 325 646 308 556 166 556 c 0
 23 556 6 640 6 716 c 1
26 0 m 1
 26 38 l 1
 83 41 91 45 91 87 c 2
 91 381 l 2
 91 421 83 430 67 432 c 2
 32 437 l 1
 32 473 l 1
 235 502 l 1
 242 496 l 1
 242 87 l 2
 242 45 250 41 307 38 c 1
 307 0 l 1
 26 0 l 1
EndSplineSet
Ligature2: "'liga' Standard Ligatures in Latin lookup 1 subtable" i uni0306
EndChar

StartChar: Idotaccent
Encoding: 304 304 236
Width: 384
GlyphClass: 2
Flags: MW
HStem: 0 38<33 33 33 351> 654 38<33 351 33 351> 731 150<166.5 217.5>
VStem: 112 160<97 595> 113 158<787 825>
AnchorPoint: "Anchor-3" 192 876 basechar 0
AnchorPoint: "Anchor-2" 192 0 basechar 0
LayerCount: 2
Fore
SplineSet
113 806 m 0x28
 113 844 141 881 192 881 c 0
 243 881 271 844 271 806 c 0
 271 768 243 731 192 731 c 0
 141 731 113 768 113 806 c 0x28
33 0 m 1xd0
 33 38 l 1
 104 41 112 46 112 97 c 2
 112 595 l 2
 112 646 104 651 33 654 c 1
 33 692 l 1
 351 692 l 1
 351 654 l 1
 280 651 272 646 272 595 c 2
 272 97 l 2
 272 46 280 41 351 38 c 1
 351 0 l 1
 33 0 l 1xd0
EndSplineSet
EndChar

StartChar: dotlessi
Encoding: 305 305 237
Width: 316
GlyphClass: 2
Flags: MW
HStem: 0 38<26 26 26 307> 437 36<32 32> 482 20G<235 235>
VStem: 91 151<87 381 381 401>
AnchorPoint: "Anchor-3" 166 502 basechar 0
AnchorPoint: "Anchor-2" 166 0 basechar 0
LayerCount: 2
Fore
SplineSet
26 0 m 1
 26 38 l 1
 83 41 91 45 91 87 c 2
 91 381 l 2
 91 421 83 430 67 432 c 2
 32 437 l 1
 32 473 l 1
 235 502 l 1
 242 496 l 1
 242 87 l 2
 242 45 250 41 307 38 c 1
 307 0 l 1
 26 0 l 1
EndSplineSet
EndChar

StartChar: Jcircumflex
Encoding: 308 308 238
Width: 386
GlyphClass: 2
Flags: MW
HStem: 654 38<43 361 43 361> 800 105<196 207>
VStem: 14 376<755 755> 122 160<146 595>
AnchorPoint: "Anchor-3" 202 900 basechar 0
AnchorPoint: "Anchor-2" 184 0 basechar 0
LayerCount: 2
Fore
SplineSet
14 755 m 1x60
 156 881 l 2
 172 896 187 905 201 905 c 0
 216 905 234 895 248 882 c 2
 390 755 l 1
 372 725 l 1
 241 785 l 2
 228 792 213 800 201 800 c 0
 191 800 177 792 163 785 c 2
 33 725 l 1
 14 755 l 1x60
6 -83 m 1x90
 41 -72 62 -60 83 -36 c 0
 106 -10 122 50 122 146 c 2
 122 595 l 2
 122 646 114 651 43 654 c 1
 43 692 l 1
 361 692 l 1
 361 654 l 1
 290 651 282 646 282 595 c 2
 282 143 l 2
 282 30 255 -44 178 -81 c 0
 127 -105 68 -115 12 -114 c 1
 6 -83 l 1x90
EndSplineSet
EndChar

StartChar: jcircumflex
Encoding: 309 309 239
Width: 316
GlyphClass: 3
Flags: MW
HStem: -232 21<-8 21.5> 437 36<39 39> 482 20<242 242> 520 227<11 181 167 337>
VStem: -13 374<547 547> 98 151<31 381 381 401>
AnchorPoint: "Anchor-3" 174 727 basechar 0
AnchorPoint: "Anchor-2" 13 -230 basechar 0
LayerCount: 2
Fore
SplineSet
-13 547 m 1x18
 130 716 l 2
 145 734 160 747 174 747 c 0
 188 747 203 733 218 716 c 2
 361 547 l 1
 337 520 l 1
 212 614 l 2
 198 624 185 633 174 633 c 0
 164 633 150 624 136 614 c 2
 11 520 l 1
 -13 547 l 1x18
-12 -201 m 1xe4
 15 -192 40 -181 60 -156 c 0
 82 -128 98 -69 98 31 c 2
 98 381 l 2
 98 421 90 430 74 432 c 2
 39 437 l 1
 39 473 l 1
 242 502 l 1
 249 496 l 1
 249 25 l 2
 249 -84 227 -162 158 -198 c 0
 108 -224 51 -232 -8 -232 c 1
 -12 -201 l 1xe4
EndSplineSet
Ligature2: "'liga' Standard Ligatures in Latin lookup 2 subtable" j uni0302
EndChar

StartChar: Lacute
Encoding: 313 313 240
Width: 585
GlyphClass: 2
Flags: MW
HStem: 0 38<33 33 33 572> 0 46<341 440 341 572> 654 38<33 363 33 363> 783 121<418 453>
VStem: 112 160<97 119 119 595> 201 290<751 850> 546 38<201 201>
AnchorPoint: "Anchor-3" 308 899 basechar 0
AnchorPoint: "Anchor-2" 308 0 basechar 0
LayerCount: 2
Fore
SplineSet
201 751 m 1x14
 373 874 l 2
 404 897 419 904 437 904 c 0
 469 904 491 860 491 840 c 0
 491 811 471 800 418 783 c 2
 215 719 l 1
 201 751 l 1x14
33 0 m 1xaa
 33 38 l 1xaa
 104 41 112 46 112 97 c 2
 112 595 l 2
 112 646 104 651 33 654 c 1
 33 692 l 1
 363 692 l 1
 363 654 l 1
 280 651 272 646 272 595 c 2
 272 119 l 2
 272 55 299 46 383 46 c 0x6a
 497 46 510 101 546 201 c 1
 584 201 l 1
 572 0 l 1
 33 0 l 1xaa
EndSplineSet
EndChar

StartChar: lacute
Encoding: 314 314 241
Width: 309
GlyphClass: 2
Flags: MW
HStem: 0 38<19 19 19 300> 722 20<228 228> 751 229<90 300>
VStem: 69 272<781 932.5> 84 151<87 621 621 641>
AnchorPoint: "Anchor-3" 160 960 basechar 0
AnchorPoint: "Anchor-2" 160 0 basechar 0
LayerCount: 2
Fore
SplineSet
69 781 m 1x30
 214 930 l 2
 251 968 268 980 288 980 c 0
 312 980 341 945 341 920 c 0
 341 894 309 874 273 854 c 2
 90 751 l 1
 69 781 l 1x30
19 0 m 1xc8
 19 38 l 1
 76 41 84 45 84 87 c 2
 84 621 l 2
 84 661 76 670 60 673 c 2
 25 679 l 1
 25 715 l 1
 228 742 l 1
 235 736 l 1
 235 87 l 2
 235 45 243 41 300 38 c 1
 300 0 l 1
 19 0 l 1xc8
EndSplineSet
EndChar

StartChar: Lcaron
Encoding: 317 317 242
Width: 585
GlyphClass: 2
Flags: MW
HStem: 0 38<33 33 33 572> 0 46<341 440 341 572> 532 279<465 465> 654 38<33 363 33 363>
VStem: 112 160<97 119 119 595> 449 93<634 736> 546 38<201 201>
LayerCount: 2
Fore
SplineSet
398 749 m 0x24
 398 788 422 811 462 811 c 0
 515 811 542 764 542 708 c 0
 542 644 506 577 465 532 c 1
 433 555 l 1
 448 587 449 621 449 647 c 0
 449 689 398 706 398 749 c 0x24
33 0 m 1x9a
 33 38 l 1x9a
 104 41 112 46 112 97 c 2
 112 595 l 2
 112 646 104 651 33 654 c 1
 33 692 l 1
 363 692 l 1
 363 654 l 1
 280 651 272 646 272 595 c 2
 272 119 l 2
 272 55 299 46 383 46 c 0x5a
 497 46 510 101 546 201 c 1
 584 201 l 1
 572 0 l 1
 33 0 l 1x9a
EndSplineSet
EndChar

StartChar: lcaron
Encoding: 318 318 243
Width: 384
GlyphClass: 2
Flags: MW
HStem: 0 38<19 19 19 300> 532 279<330 330> 722 20<228 228>
VStem: 84 151<87 621 621 641> 314 93<634 736>
LayerCount: 2
Fore
SplineSet
263 749 m 0x48
 263 788 287 811 327 811 c 0
 380 811 407 764 407 708 c 0
 407 644 371 577 330 532 c 1
 298 555 l 1
 313 587 314 621 314 647 c 0
 314 689 263 706 263 749 c 0x48
19 0 m 1xb0
 19 38 l 1
 76 41 84 45 84 87 c 2
 84 621 l 2
 84 661 76 670 60 673 c 2
 25 679 l 1
 25 715 l 1
 228 742 l 1
 235 736 l 1
 235 87 l 2
 235 45 243 41 300 38 c 1
 300 0 l 1
 19 0 l 1xb0
EndSplineSet
EndChar

StartChar: Lslash
Encoding: 321 321 244
Width: 591
GlyphClass: 2
Flags: MW
HStem: 0 38<39 578 39 39> 0 46<347 446 347 578> 654 38<39 369 39 369>
VStem: 118 160<97 119 119 241 241 241 301 356 416 595>
LayerCount: 2
Fore
SplineSet
30 178 m 1xb0
 30 238 l 1
 118 301 l 1
 118 595 l 2
 118 646 110 651 39 654 c 1
 39 692 l 1
 369 692 l 1
 369 654 l 1
 286 651 278 646 278 595 c 2
 278 416 l 1
 421 519 l 1
 421 459 l 1
 278 356 l 1
 278 119 l 2
 278 55 305 46 389 46 c 0x70
 503 46 516 101 552 201 c 1
 590 201 l 1
 578 0 l 1
 39 0 l 1
 39 38 l 1
 110 41 118 46 118 97 c 2
 118 241 l 1
 30 178 l 1xb0
EndSplineSet
EndChar

StartChar: lslash
Encoding: 322 322 245
Width: 321
GlyphClass: 2
Flags: MW
HStem: 0 38<25 306 25 25> 722 20G<234 234>
VStem: 90 151<87 262 262 262 321 377 435 621 621 641>
AnchorPoint: "Anchor-3" 128 742 basechar 0
LayerCount: 2
Fore
SplineSet
16 206 m 1
 16 265 l 1
 90 321 l 1
 90 621 l 2
 90 661 82 670 66 673 c 2
 31 679 l 1
 31 715 l 1
 234 742 l 1
 241 736 l 1
 241 435 l 1
 332 504 l 1
 332 446 l 1
 241 377 l 1
 241 87 l 2
 241 45 249 41 306 38 c 1
 306 0 l 1
 25 0 l 1
 25 38 l 1
 82 41 90 45 90 87 c 2
 90 262 l 1
 16 206 l 1
EndSplineSet
EndChar

StartChar: Nacute
Encoding: 323 323 246
Width: 739
GlyphClass: 2
Flags: MW
HStem: 0 38<28 28 28 269> 654 38<25 262> 783 121<484 519>
VStem: 104 62<252 558> 267 290<751 850> 581 62<216 440 0 481>
AnchorPoint: "Anchor-3" 374 899 basechar 0
AnchorPoint: "Anchor-2" 374 0 basechar 0
LayerCount: 2
Fore
SplineSet
267 751 m 1
 439 874 l 2
 470 897 485 904 503 904 c 0
 535 904 557 860 557 840 c 0
 557 811 537 800 484 783 c 2
 281 719 l 1
 267 751 l 1
28 0 m 1
 28 38 l 1
 63 43 l 2
 86 46 96 61 99 96 c 0
 103 131 104 170 104 252 c 2
 104 595 l 2
 104 646 96 651 25 654 c 1
 25 692 l 1
 262 692 l 1
 365 533 471 375 577 216 c 1
 581 216 l 1
 581 440 l 2
 581 522 580 560 576 596 c 0
 573 631 562 647 534 649 c 2
 478 654 l 1
 478 692 l 1
 719 692 l 1
 719 654 l 1
 684 649 l 2
 661 646 651 631 648 596 c 0
 644 561 643 522 643 440 c 2
 643 0 l 1
 533 0 l 1
 414 186 293 372 170 558 c 1
 166 558 l 1
 166 252 l 2
 166 170 167 132 171 96 c 0
 174 61 185 45 213 43 c 2
 269 38 l 1
 269 0 l 1
 28 0 l 1
EndSplineSet
EndChar

StartChar: nacute
Encoding: 324 324 247
Width: 638
GlyphClass: 2
Flags: MW
HStem: 0 38<26 26 26 295> 425 77 511 229<258 468>
VStem: 91 151<87 317> 237 272<541 692.5> 413 151<80 87 87 334 334 334>
AnchorPoint: "Anchor-3" 328 720 basechar 0
AnchorPoint: "Anchor-2" 328 0 basechar 0
LayerCount: 2
Fore
SplineSet
237 541 m 1x28
 382 690 l 2
 419 728 436 740 456 740 c 0
 480 740 509 705 509 680 c 0
 509 654 477 634 441 614 c 2
 258 511 l 1
 237 541 l 1x28
26 0 m 1xd4
 26 38 l 1
 83 41 91 45 91 87 c 2
 91 381 l 2
 91 421 83 430 67 432 c 2
 32 437 l 1
 32 473 l 1
 229 502 l 1
 242 433 l 1
 308 472 355 502 413 502 c 0
 516 502 563 442 564 348 c 1
 564 87 l 2
 564 45 572 41 629 38 c 1
 629 0 l 1
 360 0 l 1
 360 38 l 1
 381 40 l 2
 402 42 413 47 413 80 c 2
 413 334 l 1
 411 394 385 425 334 425 c 0
 292 425 265 402 252 376 c 0
 245 362 242 339 242 317 c 2
 242 80 l 2
 242 47 253 42 274 40 c 2
 295 38 l 1
 295 0 l 1
 26 0 l 1xd4
EndSplineSet
EndChar

StartChar: Ncommaaccent
Encoding: 325 325 248
Width: 739
GlyphClass: 2
Flags: MW
HStem: -297 255<325 394.5> 0 38<28 28 28 269> 654 38<25 262>
VStem: 104 62<252 558> 349 100<-203 -100> 581 62<216 440 0 481>
LayerCount: 2
Fore
SplineSet
28 0 m 1
 28 38 l 1
 63 43 l 2
 86 46 96 61 99 96 c 0
 103 131 104 170 104 252 c 2
 104 595 l 2
 104 646 96 651 25 654 c 1
 25 692 l 1
 262 692 l 1
 365 533 471 375 577 216 c 1
 581 216 l 1
 581 440 l 2
 581 522 580 560 576 596 c 0
 573 631 562 647 534 649 c 2
 478 654 l 1
 478 692 l 1
 719 692 l 1
 719 654 l 1
 684 649 l 2
 661 646 651 631 648 596 c 0
 644 561 643 522 643 440 c 2
 643 0 l 1
 533 0 l 1
 414 186 293 372 170 558 c 1
 166 558 l 1
 166 252 l 2
 166 170 167 132 171 96 c 0
 174 61 185 45 213 43 c 2
 269 38 l 1
 269 0 l 1
 28 0 l 1
304 -276 m 1
 332 -245 349 -222 349 -184 c 0
 349 -155 314 -134 314 -100 c 0
 314 -70 337 -42 373 -42 c 0
 416 -42 449 -73 449 -127 c 0
 449 -199 381 -254 325 -297 c 1
 304 -276 l 1
EndSplineSet
EndChar

StartChar: ncommaaccent
Encoding: 326 326 249
Width: 638
GlyphClass: 2
Flags: MW
HStem: -297 255<279 348.5> 0 38<26 26 26 295> 425 77
VStem: 91 151<87 317> 303 100<-203 -100> 413 151<80 87 87 334 334 334>
LayerCount: 2
Fore
SplineSet
26 0 m 1
 26 38 l 1
 83 41 91 45 91 87 c 2
 91 381 l 2
 91 421 83 430 67 432 c 2
 32 437 l 1
 32 473 l 1
 229 502 l 1
 242 433 l 1
 308 472 355 502 413 502 c 0
 516 502 563 442 564 348 c 1
 564 87 l 2
 564 45 572 41 629 38 c 1
 629 0 l 1
 360 0 l 1
 360 38 l 1
 381 40 l 2
 402 42 413 47 413 80 c 2
 413 334 l 1
 411 394 385 425 334 425 c 0
 292 425 265 402 252 376 c 0
 245 362 242 339 242 317 c 2
 242 80 l 2
 242 47 253 42 274 40 c 2
 295 38 l 1
 295 0 l 1
 26 0 l 1
258 -276 m 1
 286 -245 303 -222 303 -184 c 0
 303 -155 268 -134 268 -100 c 0
 268 -70 291 -42 327 -42 c 0
 370 -42 403 -73 403 -127 c 0
 403 -199 335 -254 279 -297 c 1
 258 -276 l 1
EndSplineSet
EndChar

StartChar: Ncaron
Encoding: 327 327 250
Width: 739
GlyphClass: 2
Flags: MW
HStem: 0 38<28 28 28 269> 654 38<25 262> 736 105<368 379 368 380.5>
VStem: 104 62<252 558> 581 62<216 440 0 481>
AnchorPoint: "Anchor-3" 374 911 basechar 0
AnchorPoint: "Anchor-2" 374 0 basechar 0
LayerCount: 2
Fore
SplineSet
186 886 m 1
 205 916 l 1
 335 856 l 2
 349 849 363 841 373 841 c 0
 385 841 400 849 413 856 c 2
 544 916 l 1
 562 886 l 1
 420 759 l 2
 406 746 388 736 373 736 c 0
 359 736 344 745 328 760 c 2
 186 886 l 1
28 0 m 1
 28 38 l 1
 63 43 l 2
 86 46 96 61 99 96 c 0
 103 131 104 170 104 252 c 2
 104 595 l 2
 104 646 96 651 25 654 c 1
 25 692 l 1
 262 692 l 1
 365 533 471 375 577 216 c 1
 581 216 l 1
 581 440 l 2
 581 522 580 560 576 596 c 0
 573 631 562 647 534 649 c 2
 478 654 l 1
 478 692 l 1
 719 692 l 1
 719 654 l 1
 684 649 l 2
 661 646 651 631 648 596 c 0
 644 561 643 522 643 440 c 2
 643 0 l 1
 533 0 l 1
 414 186 293 372 170 558 c 1
 166 558 l 1
 166 252 l 2
 166 170 167 132 171 96 c 0
 174 61 185 45 213 43 c 2
 269 38 l 1
 269 0 l 1
 28 0 l 1
EndSplineSet
EndChar

StartChar: ncaron
Encoding: 328 328 251
Width: 638
GlyphClass: 2
Flags: MW
HStem: 0 38<26 26 26 295> 425 77 520 227<165 335>
VStem: 91 151<87 317> 141 374<720 720> 413 151<80 87 87 334 334 334>
AnchorPoint: "Anchor-3" 328 727 basechar 0
AnchorPoint: "Anchor-2" 328 0 basechar 0
LayerCount: 2
Fore
SplineSet
141 720 m 1x28
 165 747 l 1
 290 653 l 2
 304 643 318 634 328 634 c 0
 339 634 352 643 366 653 c 2
 491 747 l 1
 515 720 l 1
 372 551 l 2
 357 534 342 520 328 520 c 0
 314 520 299 533 284 551 c 2
 141 720 l 1x28
26 0 m 1xd4
 26 38 l 1
 83 41 91 45 91 87 c 2
 91 381 l 2
 91 421 83 430 67 432 c 2
 32 437 l 1
 32 473 l 1
 229 502 l 1
 242 433 l 1
 308 472 355 502 413 502 c 0
 516 502 563 442 564 348 c 1
 564 87 l 2
 564 45 572 41 629 38 c 1
 629 0 l 1
 360 0 l 1
 360 38 l 1
 381 40 l 2
 402 42 413 47 413 80 c 2
 413 334 l 1
 411 394 385 425 334 425 c 0
 292 425 265 402 252 376 c 0
 245 362 242 339 242 317 c 2
 242 80 l 2
 242 47 253 42 274 40 c 2
 295 38 l 1
 295 0 l 1
 26 0 l 1xd4
EndSplineSet
EndChar

StartChar: Eng
Encoding: 330 330 252
Width: 776
GlyphClass: 2
Flags: MW
HStem: -242 46<442 498 442 509> 0 38<33 33 33 347> 625 82<473 474> 654 38<33 272>
VStem: 112 160<97 475 604 620.5> 540 160<47 486>
LayerCount: 2
Fore
SplineSet
33 0 m 1xec
 33 38 l 1
 104 41 112 46 112 97 c 2
 112 595 l 2
 112 646 104 651 33 654 c 1
 33 692 l 1
 272 692 l 1xdc
 272 604 l 1
 342 665 424 707 522 707 c 0
 652 707 700 628 700 486 c 2
 700 27 l 2
 700 -198 562 -242 456 -242 c 0
 336 -242 291 -192 291 -145 c 0
 291 -102 340 -78 372 -78 c 0
 434 -78 418 -196 466 -196 c 0
 530 -196 540 -90 540 47 c 2
 540 506 l 2
 540 591 508 625 440 625 c 0
 382 625 332 589 302 559 c 0
 284 541 272 528 272 475 c 2
 272 97 l 2
 272 46 282 42 347 38 c 1
 347 0 l 1
 33 0 l 1xec
EndSplineSet
EndChar

